FiraSystem-Medium.ufo
<glyph name="exclam" format="1">
  <advance width="241"/>
  <unicode hex="0021"/>
  <outline>
    <contour>
      <point x="54" y="691" type="line"/>
      <point x="69" y="241" type="line"/>
      <point x="170" y="241" type="line"/>
      <point x="184" y="691" type="line"/>
    </contour>
    <contour>
      <point x="76" y="143"/>
      <point x="42" y="107"/>
      <point x="42" y="65" type="curve" smooth="yes"/>
      <point x="42" y="21"/>
      <point x="76" y="-14"/>
      <point x="120" y="-14" type="curve" smooth="yes"/>
      <point x="164" y="-14"/>
      <point x="199" y="21"/>
      <point x="199" y="65" type="curve" smooth="yes"/>
      <point x="199" y="107"/>
      <point x="164" y="143"/>
      <point x="120" y="143" type="curve" smooth="yes"/>
    </contour>
  </outline>
</glyph>
<glyph name="numbersign" format="1">
  <advance width="556"/>
  <unicode hex="0023"/>
  <outline>
    <contour>
      <point x="389" y="691" type="line"/>
      <point x="298" y="0" type="line"/>
      <point x="398" y="0" type="line"/>
      <point x="489" y="691" type="line"/>
    </contour>
    <contour>
      <point x="26" y="239" type="line"/>
      <point x="26" y="155" type="line"/>
      <point x="493" y="155" type="line"/>
      <point x="493" y="239" type="line"/>
    </contour>
    <contour>
      <point x="157" y="691" type="line"/>
      <point x="66" y="0" type="line"/>
      <point x="167" y="0" type="line"/>
      <point x="257" y="691" type="line"/>
    </contour>
    <contour>
      <point x="63" y="539" type="line"/>
      <point x="63" y="454" type="line"/>
      <point x="530" y="454" type="line"/>
      <point x="530" y="539" type="line"/>
    </contour>
  </outline>
</glyph>
<glyph name="dollar" format="1">
  <advance width="556"/>
  <unicode hex="0024"/>
  <outline>
    <contour>
      <point x="231" y="2" type="line"/>
      <point x="231" y="-157" type="line"/>
      <point x="326" y="-157" type="line"/>
      <point x="326" y="7" type="line"/>
    </contour>
    <contour>
      <point x="231" y="849" type="line"/>
      <point x="231" y="668" type="line"/>
      <point x="326" y="671" type="line"/>
      <point x="326" y="849" type="line"/>
    </contour>
    <contour>
      <point x="144" y="698"/>
      <point x="51" y="623"/>
      <point x="51" y="513" type="curve" smooth="yes"/>
      <point x="51" y="410"/>
      <point x="114" y="355"/>
      <point x="252" y="312" type="curve" smooth="yes"/>
      <point x="359" y="279"/>
      <point x="387" y="253"/>
      <point x="387" y="194" type="curve" smooth="yes"/>
      <point x="387" y="125"/>
      <point x="332" y="89"/>
      <point x="259" y="89" type="curve" smooth="yes"/>
      <point x="188" y="89"/>
      <point x="134" y="115"/>
      <point x="88" y="158" type="curve"/>
      <point x="23" y="85" type="line"/>
      <point x="78" y="32"/>
      <point x="157" y="-5"/>
      <point x="261" y="-5" type="curve" smooth="yes"/>
      <point x="419" y="-5"/>
      <point x="512" y="80"/>
      <point x="512" y="200" type="curve" smooth="yes"/>
      <point x="512" y="328"/>
      <point x="428" y="375"/>
      <point x="313" y="411" type="curve" smooth="yes"/>
      <point x="199" y="446"/>
      <point x="173" y="469"/>
      <point x="173" y="521" type="curve" smooth="yes"/>
      <point x="173" y="576"/>
      <point x="219" y="604"/>
      <point x="281" y="604" type="curve" smooth="yes"/>
      <point x="336" y="604"/>
      <point x="384" y="586"/>
      <point x="430" y="545" type="curve"/>
      <point x="491" y="616" type="line"/>
      <point x="435" y="669"/>
      <point x="371" y="698"/>
      <point x="274" y="698" type="curve" smooth="yes"/>
    </contour>
    <contour>
      <point x="279" y="9" type="move" name="bottom"/>
    </contour>
  </outline>
</glyph>
<glyph name="percent" format="1">
  <advance width="900"/>
  <unicode hex="0025"/>
  <outline>
    <contour>
      <point x="177" y="15" type="line"/>
      <point x="255" y="-35" type="line"/>
      <point x="718" y="685" type="line"/>
      <point x="640" y="735" type="line"/>
    </contour>
    <contour>
      <point x="294" y="629"/>
      <point x="308" y="579"/>
      <point x="308" y="531" type="curve" smooth="yes"/>
      <point x="308" y="482"/>
      <point x="294" y="434"/>
      <point x="234" y="434" type="curve" smooth="yes"/>
      <point x="176" y="434"/>
      <point x="160" y="484"/>
      <point x="160" y="531" type="curve" smooth="yes"/>
      <point x="160" y="581"/>
      <point x="176" y="629"/>
      <point x="234" y="629" type="curve" smooth="yes"/>
    </contour>
    <contour>
      <point x="139" y="705"/>
      <point x="66" y="638"/>
      <point x="66" y="531" type="curve" smooth="yes"/>
      <point x="66" y="425"/>
      <point x="139" y="358"/>
      <point x="234" y="358" type="curve" smooth="yes"/>
      <point x="331" y="358"/>
      <point x="404" y="425"/>
      <point x="404" y="531" type="curve" smooth="yes"/>
      <point x="404" y="638"/>
      <point x="331" y="705"/>
      <point x="234" y="705" type="curve" smooth="yes"/>
    </contour>
    <contour>
      <point x="720" y="256"/>
      <point x="734" y="207"/>
      <point x="734" y="159" type="curve" smooth="yes"/>
      <point x="734" y="110"/>
      <point x="720" y="62"/>
      <point x="660" y="62" type="curve" smooth="yes"/>
      <point x="602" y="62"/>
      <point x="586" y="112"/>
      <point x="586" y="159" type="curve" smooth="yes"/>
      <point x="586" y="209"/>
      <point x="602" y="256"/>
      <point x="660" y="256" type="curve" smooth="yes"/>
    </contour>
    <contour>
      <point x="564" y="333"/>
      <point x="491" y="266"/>
      <point x="491" y="159" type="curve" smooth="yes"/>
      <point x="491" y="53"/>
      <point x="564" y="-14"/>
      <point x="660" y="-14" type="curve" smooth="yes"/>
      <point x="757" y="-14"/>
      <point x="829" y="53"/>
      <point x="829" y="159" type="curve" smooth="yes"/>
      <point x="829" y="266"/>
      <point x="757" y="333"/>
      <point x="660" y="333" type="curve" smooth="yes"/>
    </contour>
  </outline>
</glyph>
<glyph name="ampersand" format="1">
  <advance width="775"/>
  <unicode hex="0026"/>
  <outline>
    <contour>
      <point x="178" y="705"/>
      <point x="113" y="632"/>
      <point x="113" y="545" type="curve" smooth="yes"/>
      <point x="113" y="479"/>
      <point x="146" y="435"/>
      <point x="209" y="373" type="curve"/>
      <point x="122" y="318"/>
      <point x="72" y="261"/>
      <point x="72" y="176" type="curve" smooth="yes"/>
      <point x="72" y="60"/>
      <point x="167" y="-14"/>
      <point x="306" y="-14" type="curve" smooth="yes"/>
      <point x="396" y="-14"/>
      <point x="467" y="15"/>
      <point x="526" y="72" type="curve"/>
      <point x="615" y="-14" type="line"/>
      <point x="710" y="44" type="line"/>
      <point x="594" y="150" type="line"/>
      <point x="628" y="199"/>
      <point x="659" y="263"/>
      <point x="684" y="342" type="curve"/>
      <point x="579" y="373" type="line"/>
      <point x="565" y="312"/>
      <point x="545" y="258"/>
      <point x="524" y="215" type="curve"/>
      <point x="365" y="364" type="line"/>
      <point x="441" y="411"/>
      <point x="503" y="464"/>
      <point x="503" y="550" type="curve" smooth="yes"/>
      <point x="503" y="638"/>
      <point x="427" y="705"/>
      <point x="306" y="705" type="curve" smooth="yes"/>
    </contour>
    <contour>
      <point x="462" y="133" type="line"/>
      <point x="422" y="96"/>
      <point x="379" y="76"/>
      <point x="323" y="76" type="curve" smooth="yes"/>
      <point x="248" y="76"/>
      <point x="196" y="115"/>
      <point x="196" y="181" type="curve" smooth="yes"/>
      <point x="196" y="233"/>
      <point x="223" y="271"/>
      <point x="278" y="309" type="curve"/>
    </contour>
    <contour>
      <point x="357" y="622"/>
      <point x="387" y="593"/>
      <point x="387" y="545" type="curve" smooth="yes"/>
      <point x="387" y="497"/>
      <point x="354" y="462"/>
      <point x="299" y="427" type="curve"/>
      <point x="253" y="471"/>
      <point x="229" y="501"/>
      <point x="229" y="546" type="curve" smooth="yes"/>
      <point x="229" y="590"/>
      <point x="258" y="622"/>
      <point x="308" y="622" type="curve" smooth="yes"/>
    </contour>
  </outline>
</glyph>
<glyph name="quotesingle" format="1">
  <advance width="227"/>
  <unicode hex="0027"/>
  <outline>
    <contour>
      <point x="156" y="421" type="line"/>
      <point x="172" y="691" type="line"/>
      <point x="55" y="691" type="line"/>
      <point x="72" y="421" type="line"/>
    </contour>
  </outline>
</glyph>
<glyph name="parenleft" format="1">
  <advance width="324"/>
  <unicode hex="0028"/>
  <outline>
    <contour>
      <point x="121" y="712"/>
      <point x="31" y="588"/>
      <point x="31" y="350" type="curve" smooth="yes"/>
      <point x="31" y="112"/>
      <point x="121" y="-12"/>
      <point x="220" y="-151" type="curve"/>
      <point x="296" y="-99" type="line"/>
      <point x="205" y="34"/>
      <point x="154" y="148"/>
      <point x="154" y="350" type="curve" smooth="yes"/>
      <point x="154" y="552"/>
      <point x="205" y="666"/>
      <point x="296" y="799" type="curve"/>
      <point x="220" y="851" type="line"/>
    </contour>
  </outline>
</glyph>
<glyph name="parenright" format="1">
  <advance width="324"/>
  <unicode hex="0029"/>
  <outline>
    <contour>
      <point x="28" y="799" type="line"/>
      <point x="119" y="666"/>
      <point x="171" y="552"/>
      <point x="171" y="350" type="curve" smooth="yes"/>
      <point x="171" y="148"/>
      <point x="119" y="34"/>
      <point x="28" y="-99" type="curve"/>
      <point x="104" y="-151" type="line"/>
      <point x="203" y="-12"/>
      <point x="294" y="112"/>
      <point x="294" y="350" type="curve" smooth="yes"/>
      <point x="294" y="588"/>
      <point x="203" y="712"/>
      <point x="104" y="851" type="curve"/>
    </contour>
  </outline>
</glyph>
<glyph name="asterisk" format="1">
  <advance width="443"/>
  <unicode hex="002A"/>
  <outline>
    <contour>
      <point x="214" y="490" type="line"/>
      <point x="295" y="347" type="line"/>
      <point x="383" y="411" type="line"/>
      <point x="271" y="531" type="line"/>
      <point x="221" y="540" type="line"/>
    </contour>
    <contour>
      <point x="167" y="740" type="line"/>
      <point x="186" y="575" type="line"/>
      <point x="221" y="540" type="line"/>
      <point x="257" y="575" type="line"/>
      <point x="276" y="740" type="line"/>
    </contour>
    <contour>
      <point x="247" y="582" type="line"/>
      <point x="221" y="540" type="line"/>
      <point x="267" y="518" type="line"/>
      <point x="429" y="550" type="line"/>
      <point x="394" y="652" type="line"/>
    </contour>
    <contour>
      <point x="15" y="550" type="line"/>
      <point x="175" y="518" type="line"/>
      <point x="221" y="540" type="line"/>
      <point x="197" y="583" type="line"/>
      <point x="48" y="651" type="line"/>
    </contour>
    <contour>
      <point x="172" y="531" type="line"/>
      <point x="61" y="410" type="line"/>
      <point x="149" y="346" type="line"/>
      <point x="228" y="489" type="line"/>
      <point x="221" y="540" type="line"/>
    </contour>
  </outline>
</glyph>
<glyph name="comma" format="1">
  <advance width="240"/>
  <unicode hex="002C"/>
  <outline>
    <contour>
      <point x="75" y="143"/>
      <point x="41" y="108"/>
      <point x="41" y="65" type="curve" smooth="yes"/>
      <point x="41" y="38"/>
      <point x="54" y="14"/>
      <point x="74" y="0" type="curve"/>
      <point x="33" y="-171" type="line"/>
      <point x="108" y="-171" type="line"/>
      <point x="174" y="-21" type="line" smooth="yes"/>
      <point x="191" y="16"/>
      <point x="198" y="39"/>
      <point x="198" y="65" type="curve" smooth="yes"/>
      <point x="198" y="108"/>
      <point x="164" y="143"/>
      <point x="119" y="143" type="curve" smooth="yes"/>
    </contour>
  </outline>
</glyph>
<glyph name="hyphen" format="1">
  <advance width="405"/>
  <unicode hex="002D"/>
  <outline>
    <contour>
      <point x="351" y="264" type="line"/>
      <point x="351" y="362" type="line"/>
      <point x="53" y="362" type="line"/>
      <point x="53" y="264" type="line"/>
    </contour>
  </outline>
</glyph>
<glyph name="period" format="1">
  <advance width="240"/>
  <unicode hex="002E"/>
  <outline>
    <contour>
      <point x="76" y="143"/>
      <point x="41" y="107"/>
      <point x="41" y="65" type="curve" smooth="yes"/>
      <point x="41" y="21"/>
      <point x="76" y="-14"/>
      <point x="119" y="-14" type="curve" smooth="yes"/>
      <point x="164" y="-14"/>
      <point x="198" y="21"/>
      <point x="198" y="65" type="curve" smooth="yes"/>
      <point x="198" y="107"/>
      <point x="164" y="143"/>
      <point x="119" y="143" type="curve" smooth="yes"/>
    </contour>
  </outline>
</glyph>
<glyph name="slash" format="1">
  <advance width="520"/>
  <unicode hex="002F"/>
  <outline>
    <contour>
      <point x="92" y="-83" type="line"/>
      <point x="196" y="-107" type="line"/>
      <point x="428" y="787" type="line"/>
      <point x="325" y="811" type="line"/>
    </contour>
  </outline>
</glyph>
<glyph name="zero" format="1">
  <advance width="556"/>
  <unicode hex="0030"/>
  <outline>
    <contour>
      <point x="124" y="705"/>
      <point x="43" y="581"/>
      <point x="43" y="346" type="curve" smooth="yes"/>
      <point x="43" y="111"/>
      <point x="124" y="-14"/>
      <point x="278" y="-14" type="curve" smooth="yes"/>
      <point x="432" y="-14"/>
      <point x="513" y="111"/>
      <point x="513" y="346" type="curve" smooth="yes"/>
      <point x="513" y="580"/>
      <point x="432" y="705"/>
      <point x="278" y="705" type="curve" smooth="yes"/>
    </contour>
    <contour>
      <point x="351" y="613"/>
      <point x="389" y="548"/>
      <point x="389" y="346" type="curve" smooth="yes"/>
      <point x="389" y="144"/>
      <point x="351" y="78"/>
      <point x="278" y="78" type="curve" smooth="yes"/>
      <point x="204" y="78"/>
      <point x="167" y="146"/>
      <point x="167" y="346" type="curve" smooth="yes"/>
      <point x="167" y="545"/>
      <point x="204" y="613"/>
      <point x="278" y="613" type="curve" smooth="yes"/>
    </contour>
  </outline>
</glyph>
<glyph name="one" format="1">
  <advance width="556"/>
  <unicode hex="0031"/>
  <outline>
    <contour>
      <point x="274" y="691" type="line"/>
      <point x="58" y="559" type="line"/>
      <point x="110" y="477" type="line"/>
      <point x="262" y="569" type="line"/>
      <point x="262" y="45" type="line"/>
      <point x="380" y="45" type="line"/>
      <point x="380" y="691" type="line"/>
    </contour>
    <contour>
      <point x="97" y="94" type="line"/>
      <point x="97" y="0" type="line"/>
      <point x="517" y="0" type="line"/>
      <point x="517" y="94" type="line"/>
    </contour>
  </outline>
</glyph>
<glyph name="two" format="1">
  <advance width="556"/>
  <unicode hex="0032"/>
  <outline>
    <contour>
      <point x="156" y="705"/>
      <point x="87" y="667"/>
      <point x="32" y="598" type="curve"/>
      <point x="109" y="538" type="line"/>
      <point x="151" y="588"/>
      <point x="187" y="610"/>
      <point x="247" y="610" type="curve" smooth="yes"/>
      <point x="315" y="610"/>
      <point x="356" y="568"/>
      <point x="356" y="501" type="curve" smooth="yes"/>
      <point x="356" y="402"/>
      <point x="294" y="326"/>
      <point x="47" y="90" type="curve"/>
      <point x="47" y="0" type="line"/>
      <point x="483" y="0" type="line"/>
      <point x="496" y="96" type="line"/>
      <point x="184" y="96" type="line"/>
      <point x="407" y="295"/>
      <point x="480" y="393"/>
      <point x="480" y="509" type="curve" smooth="yes"/>
      <point x="480" y="618"/>
      <point x="401" y="705"/>
      <point x="257" y="705" type="curve" smooth="yes"/>
    </contour>
  </outline>
</glyph>
<glyph name="three" format="1">
  <advance width="556"/>
  <unicode hex="0033"/>
  <outline>
    <contour>
      <point x="169" y="705"/>
      <point x="97" y="677"/>
      <point x="36" y="619" type="curve"/>
      <point x="99" y="551" type="line"/>
      <point x="142" y="591"/>
      <point x="183" y="613"/>
      <point x="241" y="613" type="curve" smooth="yes"/>
      <point x="307" y="613"/>
      <point x="357" y="577"/>
      <point x="357" y="512" type="curve" smooth="yes"/>
      <point x="357" y="441"/>
      <point x="303" y="407"/>
      <point x="239" y="407" type="curve" smooth="yes"/>
      <point x="195" y="407" type="line"/>
      <point x="181" y="320" type="line"/>
      <point x="242" y="320" type="line" smooth="yes"/>
      <point x="320" y="320"/>
      <point x="373" y="289"/>
      <point x="373" y="202" type="curve" smooth="yes"/>
      <point x="373" y="126"/>
      <point x="320" y="80"/>
      <point x="238" y="80" type="curve" smooth="yes"/>
      <point x="182" y="80"/>
      <point x="128" y="102"/>
      <point x="89" y="148" type="curve"/>
      <point x="17" y="84" type="line"/>
      <point x="71" y="19"/>
      <point x="154" y="-14"/>
      <point x="244" y="-14" type="curve" smooth="yes"/>
      <point x="398" y="-14"/>
      <point x="497" y="79"/>
      <point x="497" y="197" type="curve" smooth="yes"/>
      <point x="497" y="304"/>
      <point x="425" y="360"/>
      <point x="336" y="368" type="curve"/>
      <point x="417" y="387"/>
      <point x="475" y="443"/>
      <point x="475" y="530" type="curve" smooth="yes"/>
      <point x="475" y="625"/>
      <point x="391" y="705"/>
      <point x="252" y="705" type="curve" smooth="yes"/>
    </contour>
  </outline>
</glyph>
<glyph name="four" format="1">
  <advance width="556"/>
  <unicode hex="0034"/>
  <outline>
    <contour>
      <point x="37" y="239" type="line"/>
      <point x="37" y="157" type="line"/>
      <point x="519" y="157" type="line"/>
      <point x="519" y="249" type="line"/>
      <point x="162" y="249" type="line"/>
      <point x="335" y="666" type="line"/>
      <point x="234" y="705" type="line"/>
    </contour>
    <contour>
      <point x="336" y="432" type="line"/>
      <point x="323" y="233" type="line"/>
      <point x="323" y="0" type="line"/>
      <point x="439" y="0" type="line"/>
      <point x="439" y="432" type="line"/>
    </contour>
  </outline>
</glyph>
<glyph name="five" format="1">
  <advance width="556"/>
  <unicode hex="0035"/>
  <outline>
    <contour>
      <point x="82" y="691" type="line"/>
      <point x="82" y="334" type="line"/>
      <point x="169" y="334" type="line"/>
      <point x="206" y="349"/>
      <point x="232" y="357"/>
      <point x="266" y="357" type="curve" smooth="yes"/>
      <point x="329" y="357"/>
      <point x="376" y="323"/>
      <point x="376" y="224" type="curve" smooth="yes"/>
      <point x="376" y="129"/>
      <point x="328" y="80"/>
      <point x="247" y="80" type="curve" smooth="yes"/>
      <point x="190" y="80"/>
      <point x="144" y="102"/>
      <point x="106" y="144" type="curve"/>
      <point x="36" y="78" type="line"/>
      <point x="89" y="22"/>
      <point x="158" y="-14"/>
      <point x="250" y="-14" type="curve" smooth="yes"/>
      <point x="403" y="-14"/>
      <point x="500" y="81"/>
      <point x="500" y="223" type="curve" smooth="yes"/>
      <point x="500" y="364"/>
      <point x="421" y="444"/>
      <point x="309" y="444" type="curve" smooth="yes"/>
      <point x="272" y="444"/>
      <point x="236" y="437"/>
      <point x="197" y="417" type="curve"/>
      <point x="197" y="601" type="line"/>
      <point x="459" y="601" type="line"/>
      <point x="474" y="691" type="line"/>
    </contour>
  </outline>
</glyph>
<glyph name="six" format="1">
  <advance width="556"/>
  <unicode hex="0036"/>
  <outline>
    <contour>
      <point x="151" y="705"/>
      <point x="49" y="555"/>
      <point x="49" y="322" type="curve" smooth="yes"/>
      <point x="49" y="119"/>
      <point x="118" y="-14"/>
      <point x="289" y="-14" type="curve" smooth="yes"/>
      <point x="422" y="-14"/>
      <point x="517" y="86"/>
      <point x="517" y="234" type="curve" smooth="yes"/>
      <point x="517" y="381"/>
      <point x="431" y="456"/>
      <point x="324" y="456" type="curve"/>
      <point x="260" y="456"/>
      <point x="206" y="429"/>
      <point x="161" y="363" type="curve"/>
      <point x="162" y="276" type="line"/>
      <point x="193" y="331"/>
      <point x="240" y="368"/>
      <point x="297" y="368" type="curve"/>
      <point x="356" y="368"/>
      <point x="396" y="334"/>
      <point x="396" y="231" type="curve" smooth="yes"/>
      <point x="396" y="136"/>
      <point x="360" y="76"/>
      <point x="290" y="76" type="curve" smooth="yes"/>
      <point x="205" y="76"/>
      <point x="172" y="146"/>
      <point x="173" y="316" type="curve"/>
      <point x="171" y="356" type="line"/>
      <point x="173" y="518"/>
      <point x="229" y="615"/>
      <point x="322" y="615" type="curve"/>
      <point x="359" y="615"/>
      <point x="392" y="605"/>
      <point x="421" y="587" type="curve"/>
      <point x="465" y="663" type="line"/>
      <point x="427" y="689"/>
      <point x="380" y="705"/>
      <point x="322" y="705" type="curve"/>
    </contour>
  </outline>
</glyph>
<glyph name="seven" format="1">
  <advance width="556"/>
  <unicode hex="0037"/>
  <outline>
    <contour>
      <point x="63" y="691" type="line"/>
      <point x="63" y="597" type="line"/>
      <point x="370" y="597" type="line"/>
      <point x="118" y="23" type="line"/>
      <point x="225" y="-16" type="line"/>
      <point x="494" y="606" type="line"/>
      <point x="494" y="691" type="line"/>
    </contour>
  </outline>
</glyph>
<glyph name="eight" format="1">
  <advance width="556"/>
  <unicode hex="0038"/>
  <outline>
    <contour>
      <point x="163" y="705"/>
      <point x="63" y="640"/>
      <point x="63" y="522" type="curve" smooth="yes"/>
      <point x="63" y="447"/>
      <point x="98" y="391"/>
      <point x="182" y="352" type="curve"/>
      <point x="222" y="335" type="line"/>
      <point x="268" y="318" type="line"/>
      <point x="366" y="287"/>
      <point x="398" y="255"/>
      <point x="398" y="184" type="curve" smooth="yes"/>
      <point x="398" y="122"/>
      <point x="354" y="76"/>
      <point x="278" y="76" type="curve" smooth="yes"/>
      <point x="205" y="76"/>
      <point x="157" y="116"/>
      <point x="157" y="186" type="curve" smooth="yes"/>
      <point x="157" y="259"/>
      <point x="189" y="305"/>
      <point x="255" y="334" type="curve"/>
      <point x="181" y="367" type="line"/>
      <point x="91" y="332"/>
      <point x="36" y="275"/>
      <point x="36" y="183" type="curve" smooth="yes"/>
      <point x="36" y="68"/>
      <point x="129" y="-14"/>
      <point x="275" y="-14" type="curve" smooth="yes"/>
      <point x="424" y="-14"/>
      <point x="520" y="71"/>
      <point x="520" y="186" type="curve" smooth="yes"/>
      <point x="520" y="279"/>
      <point x="465" y="339"/>
      <point x="364" y="378" type="curve"/>
      <point x="323" y="394" type="line"/>
      <point x="293" y="404" type="line"/>
      <point x="217" y="429"/>
      <point x="178" y="455"/>
      <point x="178" y="520" type="curve" smooth="yes"/>
      <point x="178" y="588"/>
      <point x="217" y="620"/>
      <point x="278" y="620" type="curve" smooth="yes"/>
      <point x="340" y="620"/>
      <point x="378" y="583"/>
      <point x="378" y="521" type="curve" smooth="yes"/>
      <point x="378" y="461"/>
      <point x="353" y="426"/>
      <point x="283" y="389" type="curve"/>
      <point x="363" y="361" type="line"/>
      <point x="452" y="402"/>
      <point x="493" y="455"/>
      <point x="493" y="526" type="curve" smooth="yes"/>
      <point x="493" y="646"/>
      <point x="392" y="705"/>
      <point x="278" y="705" type="curve" smooth="yes"/>
    </contour>
  </outline>
</glyph>
<glyph name="nine" format="1">
  <advance width="556"/>
  <unicode hex="0039"/>
  <outline>
    <contour>
      <point x="142" y="705"/>
      <point x="39" y="619"/>
      <point x="39" y="470" type="curve"/>
      <point x="39" y="331"/>
      <point x="123" y="247"/>
      <point x="228" y="247" type="curve" smooth="yes"/>
      <point x="299" y="247"/>
      <point x="349" y="282"/>
      <point x="379" y="326" type="curve"/>
      <point x="386" y="422" type="line"/>
      <point x="357" y="369"/>
      <point x="315" y="335"/>
      <point x="260" y="335" type="curve" smooth="yes"/>
      <point x="202" y="335"/>
      <point x="160" y="372"/>
      <point x="160" y="472" type="curve"/>
      <point x="160" y="568"/>
      <point x="200" y="615"/>
      <point x="269" y="615" type="curve" smooth="yes"/>
      <point x="351" y="615"/>
      <point x="383" y="558"/>
      <point x="378" y="386" type="curve"/>
      <point x="375" y="329" type="line"/>
      <point x="364" y="177"/>
      <point x="264" y="107"/>
      <point x="91" y="61" type="curve"/>
      <point x="116" y="-25" type="line"/>
      <point x="382" y="41"/>
      <point x="501" y="146"/>
      <point x="501" y="434" type="curve" smooth="yes"/>
      <point x="501" y="599"/>
      <point x="424" y="705"/>
      <point x="269" y="705" type="curve" smooth="yes"/>
    </contour>
  </outline>
</glyph>
<glyph name="question" format="1">
  <advance width="469"/>
  <unicode hex="003F"/>
  <outline>
    <contour>
      <point x="151" y="705"/>
      <point x="80" y="669"/>
      <point x="23" y="603" type="curve"/>
      <point x="102" y="541" type="line"/>
      <point x="141" y="587"/>
      <point x="186" y="608"/>
      <point x="232" y="608" type="curve" smooth="yes"/>
      <point x="286" y="608"/>
      <point x="320" y="582"/>
      <point x="320" y="535" type="curve" smooth="yes"/>
      <point x="320" y="438"/>
      <point x="151" y="452"/>
      <point x="151" y="282" type="curve" smooth="yes"/>
      <point x="151" y="241" type="line"/>
      <point x="265" y="241" type="line"/>
      <point x="265" y="277" type="line" smooth="yes"/>
      <point x="265" y="400"/>
      <point x="445" y="383"/>
      <point x="445" y="544" type="curve" smooth="yes"/>
      <point x="445" y="628"/>
      <point x="377" y="705"/>
      <point x="242" y="705" type="curve" smooth="yes"/>
    </contour>
    <contour>
      <point x="166" y="143"/>
      <point x="132" y="107"/>
      <point x="132" y="65" type="curve" smooth="yes"/>
      <point x="132" y="21"/>
      <point x="166" y="-14"/>
      <point x="210" y="-14" type="curve" smooth="yes"/>
      <point x="255" y="-14"/>
      <point x="289" y="21"/>
      <point x="289" y="65" type="curve" smooth="yes"/>
      <point x="289" y="107"/>
      <point x="255" y="143"/>
      <point x="210" y="143" type="curve" smooth="yes"/>
    </contour>
  </outline>
</glyph>
<glyph name="at" format="1">
  <advance width="1020"/>
  <unicode hex="0040"/>
  <outline>
    <contour>
      <point x="252" y="705"/>
      <point x="61" y="507"/>
      <point x="61" y="241" type="curve" smooth="yes"/>
      <point x="61" y="-39"/>
      <point x="248" y="-217"/>
      <point x="526" y="-217" type="curve" smooth="yes"/>
      <point x="614" y="-217"/>
      <point x="686" y="-200"/>
      <point x="751" y="-176" type="curve"/>
      <point x="720" y="-89" type="line"/>
      <point x="667" y="-108"/>
      <point x="599" y="-124"/>
      <point x="527" y="-124" type="curve" smooth="yes"/>
      <point x="299" y="-124"/>
      <point x="175" y="23"/>
      <point x="175" y="241" type="curve" smooth="yes"/>
      <point x="175" y="457"/>
      <point x="305" y="612"/>
      <point x="526" y="612" type="curve" smooth="yes"/>
      <point x="739" y="612"/>
      <point x="846" y="494"/>
      <point x="846" y="309" type="curve" smooth="yes"/>
      <point x="846" y="150"/>
      <point x="809" y="90"/>
      <point x="749" y="90" type="curve" smooth="yes"/>
      <point x="710" y="90"/>
      <point x="690" y="116"/>
      <point x="690" y="201" type="curve"/>
      <point x="620" y="132" type="line"/>
      <point x="622" y="84"/>
      <point x="658" y="7"/>
      <point x="753" y="7" type="curve" smooth="yes"/>
      <point x="887" y="7"/>
      <point x="959" y="140"/>
      <point x="959" y="311" type="curve" smooth="yes"/>
      <point x="959" y="518"/>
      <point x="807" y="705"/>
      <point x="526" y="705" type="curve" smooth="yes"/>
    </contour>
    <contour>
      <point x="391" y="496"/>
      <point x="302" y="401"/>
      <point x="302" y="232" type="curve" smooth="yes"/>
      <point x="302" y="101"/>
      <point x="364" y="10"/>
      <point x="479" y="10" type="curve" smooth="yes"/>
      <point x="562" y="10"/>
      <point x="607" y="64"/>
      <point x="628" y="122" type="curve"/>
      <point x="590" y="171" type="line"/>
      <point x="581" y="146"/>
      <point x="557" y="90"/>
      <point x="494" y="90" type="curve" smooth="yes"/>
      <point x="441" y="90"/>
      <point x="414" y="135"/>
      <point x="414" y="232" type="curve" smooth="yes"/>
      <point x="414" y="360"/>
      <point x="454" y="416"/>
      <point x="526" y="416" type="curve" smooth="yes"/>
      <point x="551" y="416"/>
      <point x="568" y="412"/>
      <point x="586" y="404" type="curve"/>
      <point x="586" y="148" type="line"/>
      <point x="632" y="109" type="line"/>
      <point x="690" y="155" type="line"/>
      <point x="690" y="454" type="line"/>
      <point x="635" y="484"/>
      <point x="581" y="496"/>
      <point x="527" y="496" type="curve" smooth="yes"/>
    </contour>
  </outline>
</glyph>
<glyph name="A" format="1">
  <advance width="580"/>
  <unicode hex="0041"/>
  <outline>
    <contour>
      <point x="214" y="691" type="line"/>
      <point x="-2" y="0" type="line"/>
      <point x="125" y="0" type="line"/>
      <point x="288" y="595" type="line"/>
      <point x="451" y="0" type="line"/>
      <point x="583" y="0" type="line"/>
      <point x="367" y="691" type="line"/>
    </contour>
    <contour>
      <point x="180" y="258" type="line"/>
      <point x="155" y="163" type="line"/>
      <point x="421" y="163" type="line"/>
      <point x="397" y="258" type="line"/>
    </contour>
    <contour>
      <point x="143" y="691" type="move" name="topleft"/>
    </contour>
    <contour>
      <point x="291" y="691" type="move" name="top"/>
    </contour>
    <contour>
      <point x="534" y="0" type="move" name="ogonek"/>
    </contour>
  </outline>
</glyph>
<glyph name="B" format="1">
  <advance width="612"/>
  <unicode hex="0042"/>
  <outline>
    <contour>
      <point x="85" y="691" type="line"/>
      <point x="85" y="0" type="line"/>
      <point x="289" y="0" type="line" smooth="yes"/>
      <point x="455" y="0"/>
      <point x="575" y="48"/>
      <point x="575" y="199" type="curve" smooth="yes"/>
      <point x="575" y="314"/>
      <point x="496" y="351"/>
      <point x="417" y="365" type="curve"/>
      <point x="482" y="380"/>
      <point x="545" y="429"/>
      <point x="545" y="515" type="curve" smooth="yes"/>
      <point x="545" y="639"/>
      <point x="439" y="691"/>
      <point x="262" y="691" type="curve" smooth="yes"/>
    </contour>
    <contour>
      <point x="367" y="598"/>
      <point x="418" y="578"/>
      <point x="418" y="505" type="curve" smooth="yes"/>
      <point x="418" y="438"/>
      <point x="368" y="405"/>
      <point x="295" y="405" type="curve" smooth="yes"/>
      <point x="193" y="405" type="line"/>
      <point x="193" y="317" type="line"/>
      <point x="305" y="317" type="line" smooth="yes"/>
      <point x="383" y="317"/>
      <point x="445" y="288"/>
      <point x="445" y="202" type="curve" smooth="yes"/>
      <point x="445" y="112"/>
      <point x="380" y="94"/>
      <point x="290" y="94" type="curve" smooth="yes"/>
      <point x="209" y="94" type="line"/>
      <point x="209" y="598" type="line"/>
      <point x="275" y="598" type="line" smooth="yes"/>
    </contour>
  </outline>
</glyph>
<glyph name="C" format="1">
  <advance width="566"/>
  <unicode hex="0043"/>
  <outline>
    <contour>
      <point x="177" y="705"/>
      <point x="46" y="579"/>
      <point x="46" y="346" type="curve" smooth="yes"/>
      <point x="46" y="112"/>
      <point x="169" y="-14"/>
      <point x="346" y="-14" type="curve" smooth="yes"/>
      <point x="440" y="-14"/>
      <point x="511" y="26"/>
      <point x="552" y="68" type="curve"/>
      <point x="493" y="144" type="line"/>
      <point x="453" y="114"/>
      <point x="412" y="86"/>
      <point x="351" y="86" type="curve" smooth="yes"/>
      <point x="251" y="86"/>
      <point x="177" y="161"/>
      <point x="177" y="346" type="curve" smooth="yes"/>
      <point x="177" y="538"/>
      <point x="253" y="608"/>
      <point x="350" y="608" type="curve" smooth="yes"/>
      <point x="398" y="608"/>
      <point x="439" y="592"/>
      <point x="479" y="558" type="curve"/>
      <point x="544" y="633" type="line"/>
      <point x="488" y="679"/>
      <point x="432" y="705"/>
      <point x="343" y="705" type="curve" smooth="yes"/>
    </contour>
    <contour>
      <point x="350" y="691" type="move" name="top"/>
    </contour>
    <contour>
      <point x="344" y="0" type="move" name="bottom"/>
    </contour>
  </outline>
</glyph>
<glyph name="D" format="1">
  <advance width="647"/>
  <unicode hex="0044"/>
  <outline>
    <contour>
      <point x="85" y="691" type="line"/>
      <point x="85" y="0" type="line"/>
      <point x="268" y="0" type="line" smooth="yes"/>
      <point x="429" y="0"/>
      <point x="601" y="69"/>
      <point x="601" y="349" type="curve" smooth="yes"/>
      <point x="601" y="635"/>
      <point x="430" y="691"/>
      <point x="250" y="691" type="curve" smooth="yes"/>
    </contour>
    <contour>
      <point x="376" y="597"/>
      <point x="471" y="562"/>
      <point x="471" y="349" type="curve" smooth="yes"/>
      <point x="471" y="140"/>
      <point x="381" y="93"/>
      <point x="277" y="93" type="curve" smooth="yes"/>
      <point x="209" y="93" type="line"/>
      <point x="209" y="597" type="line"/>
      <point x="272" y="597" type="line" smooth="yes"/>
    </contour>
    <contour>
      <point x="300" y="691" type="move" name="top"/>
    </contour>
    <contour>
      <point x="324" y="346" type="move" name="center"/>
    </contour>
  </outline>
</glyph>
<glyph name="E" format="1">
  <advance width="531"/>
  <unicode hex="0045"/>
  <outline>
    <contour>
      <point x="85" y="691" type="line"/>
      <point x="85" y="0" type="line"/>
      <point x="485" y="0" type="line"/>
      <point x="485" y="94" type="line"/>
      <point x="209" y="94" type="line"/>
      <point x="209" y="305" type="line"/>
      <point x="433" y="305" type="line"/>
      <point x="433" y="397" type="line"/>
      <point x="209" y="397" type="line"/>
      <point x="209" y="597" type="line"/>
      <point x="466" y="597" type="line"/>
      <point x="480" y="691" type="line"/>
    </contour>
    <contour>
      <point x="78" y="691" type="move" name="topleft"/>
    </contour>
    <contour>
      <point x="285" y="691" type="move" name="top"/>
    </contour>
    <contour>
      <point x="455" y="0" type="move" name="ogonek"/>
    </contour>
    <contour>
      <point x="285" y="0" type="move" name="bottom"/>
    </contour>
  </outline>
</glyph>
<glyph name="F" format="1">
  <advance width="489"/>
  <unicode hex="0046"/>
  <outline>
    <contour>
      <point x="85" y="691" type="line"/>
      <point x="85" y="0" type="line"/>
      <point x="209" y="0" type="line"/>
      <point x="209" y="291" type="line"/>
      <point x="425" y="291" type="line"/>
      <point x="425" y="384" type="line"/>
      <point x="209" y="384" type="line"/>
      <point x="209" y="597" type="line"/>
      <point x="457" y="597" type="line"/>
      <point x="471" y="691" type="line"/>
    </contour>
  </outline>
</glyph>
<glyph name="G" format="1">
  <advance width="637"/>
  <unicode hex="0047"/>
  <outline>
    <contour>
      <point x="190" y="705"/>
      <point x="46" y="579"/>
      <point x="46" y="346" type="curve" smooth="yes"/>
      <point x="46" y="108"/>
      <point x="154" y="-14"/>
      <point x="342" y="-14" type="curve" smooth="yes"/>
      <point x="436" y="-14"/>
      <point x="516" y="11"/>
      <point x="582" y="52" type="curve"/>
      <point x="582" y="389" type="line"/>
      <point x="339" y="389" type="line"/>
      <point x="352" y="296" type="line"/>
      <point x="460" y="296" type="line"/>
      <point x="460" y="110" type="line"/>
      <point x="426" y="90"/>
      <point x="386" y="82"/>
      <point x="345" y="82" type="curve" smooth="yes"/>
      <point x="235" y="82"/>
      <point x="176" y="155"/>
      <point x="176" y="346" type="curve" smooth="yes"/>
      <point x="176" y="536"/>
      <point x="263" y="610"/>
      <point x="362" y="610" type="curve" smooth="yes"/>
      <point x="421" y="610"/>
      <point x="461" y="592"/>
      <point x="507" y="554" type="curve"/>
      <point x="576" y="625" type="line"/>
      <point x="518" y="675"/>
      <point x="453" y="705"/>
      <point x="357" y="705" type="curve" smooth="yes"/>
    </contour>
    <contour>
      <point x="354" y="691" type="move" name="top"/>
    </contour>
    <contour>
      <point x="345" y="0" type="move" name="bottom"/>
    </contour>
  </outline>
</glyph>
<glyph name="H" format="1">
  <advance width="674"/>
  <unicode hex="0048"/>
  <outline>
    <contour>
      <point x="589" y="0" type="line"/>
      <point x="589" y="691" type="line"/>
      <point x="465" y="691" type="line"/>
      <point x="465" y="411" type="line"/>
      <point x="209" y="411" type="line"/>
      <point x="209" y="691" type="line"/>
      <point x="85" y="691" type="line"/>
      <point x="85" y="0" type="line"/>
      <point x="209" y="0" type="line"/>
      <point x="209" y="312" type="line"/>
      <point x="465" y="312" type="line"/>
      <point x="465" y="0" type="line"/>
    </contour>
    <contour>
      <point x="78" y="691" type="move" name="topleft"/>
    </contour>
    <contour>
      <point x="337" y="691" type="move" name="top"/>
    </contour>
    <contour>
      <point x="337" y="346" type="move" name="center"/>
    </contour>
    <contour>
      <point x="599" y="0" type="move" name="bottomright"/>
    </contour>
  </outline>
</glyph>
<glyph name="I" format="1">
  <advance width="295"/>
  <unicode hex="0049"/>
  <outline>
    <contour>
      <point x="85" y="691" type="line"/>
      <point x="85" y="0" type="line"/>
      <point x="210" y="0" type="line"/>
      <point x="210" y="691" type="line"/>
    </contour>
    <contour>
      <point x="78" y="691" type="move" name="topleft"/>
    </contour>
    <contour>
      <point x="147" y="691" type="move" name="top"/>
    </contour>
    <contour>
      <point x="208" y="0" type="move" name="ogonek"/>
    </contour>
  </outline>
</glyph>
<glyph name="J" format="1">
  <advance width="310"/>
  <unicode hex="004A"/>
  <outline>
    <contour>
      <point x="105" y="691" type="line"/>
      <point x="105" y="105" type="line" smooth="yes"/>
      <point x="105" y="17"/>
      <point x="89" y="-26"/>
      <point x="-2" y="-62" type="curve"/>
      <point x="31" y="-151" type="line"/>
      <point x="145" y="-114"/>
      <point x="230" y="-57"/>
      <point x="230" y="100" type="curve" smooth="yes"/>
      <point x="230" y="691" type="line"/>
    </contour>
    <contour>
      <point x="168" y="691" type="move" name="top"/>
    </contour>
  </outline>
</glyph>
<glyph name="K" format="1">
  <advance width="607"/>
  <unicode hex="004B"/>
  <outline>
    <contour>
      <point x="459" y="691" type="line"/>
      <point x="215" y="369" type="line"/>
      <point x="465" y="0" type="line"/>
      <point x="613" y="0" type="line"/>
      <point x="350" y="377" type="line"/>
      <point x="594" y="691" type="line"/>
    </contour>
    <contour>
      <point x="85" y="691" type="line"/>
      <point x="85" y="0" type="line"/>
      <point x="209" y="0" type="line"/>
      <point x="209" y="691" type="line"/>
    </contour>
    <contour>
      <point x="329" y="691" type="move" name="top"/>
    </contour>
    <contour>
      <point x="319" y="0" type="move" name="bottom"/>
    </contour>
  </outline>
</glyph>
<glyph name="L" format="1">
  <advance width="504"/>
  <unicode hex="004C"/>
  <outline>
    <contour>
      <point x="85" y="691" type="line"/>
      <point x="85" y="0" type="line"/>
      <point x="473" y="0" type="line"/>
      <point x="487" y="103" type="line"/>
      <point x="209" y="103" type="line"/>
      <point x="209" y="691" type="line"/>
    </contour>
    <contour>
      <point x="147" y="691" type="move" name="top"/>
    </contour>
    <contour>
      <point x="280" y="0" type="move" name="bottom"/>
    </contour>
    <contour>
      <point x="233" y="691" type="move" name="topright"/>
    </contour>
    <contour>
      <point x="393" y="394" type="move" name="center"/>
    </contour>
  </outline>
</glyph>
<glyph name="M" format="1">
  <advance width="795"/>
  <unicode hex="004D"/>
  <outline>
    <contour>
      <point x="514" y="691" type="line"/>
      <point x="394" y="203" type="line"/>
      <point x="266" y="691" type="line"/>
      <point x="105" y="691" type="line"/>
      <point x="50" y="0" type="line"/>
      <point x="169" y="0" type="line"/>
      <point x="188" y="289" type="line" smooth="yes"/>
      <point x="194" y="388"/>
      <point x="197" y="487"/>
      <point x="194" y="577" type="curve"/>
      <point x="333" y="76" type="line"/>
      <point x="450" y="76" type="line"/>
      <point x="581" y="576" type="line"/>
      <point x="579" y="506"/>
      <point x="584" y="397"/>
      <point x="592" y="294" type="curve" smooth="yes"/>
      <point x="611" y="0" type="line"/>
      <point x="732" y="0" type="line"/>
      <point x="677" y="691" type="line"/>
    </contour>
  </outline>
</glyph>
<glyph name="N" format="1">
  <advance width="675"/>
  <unicode hex="004E"/>
  <outline>
    <contour>
      <point x="476" y="691" type="line"/>
      <point x="476" y="355" type="line" smooth="yes"/>
      <point x="476" y="260"/>
      <point x="488" y="158"/>
      <point x="493" y="125" type="curve"/>
      <point x="243" y="691" type="line"/>
      <point x="85" y="691" type="line"/>
      <point x="85" y="0" type="line"/>
      <point x="199" y="0" type="line"/>
      <point x="199" y="290" type="line" smooth="yes"/>
      <point x="199" y="418"/>
      <point x="188" y="505"/>
      <point x="182" y="565" type="curve"/>
      <point x="428" y="0" type="line"/>
      <point x="590" y="0" type="line"/>
      <point x="590" y="691" type="line"/>
    </contour>
    <contour>
      <point x="346" y="691" type="move" name="top"/>
    </contour>
    <contour>
      <point x="339" y="0" type="move" name="bottom"/>
    </contour>
  </outline>
</glyph>
<glyph name="O" format="1">
  <advance width="691"/>
  <unicode hex="004F"/>
  <outline>
    <contour>
      <point x="164" y="705"/>
      <point x="46" y="571"/>
      <point x="46" y="345" type="curve" smooth="yes"/>
      <point x="46" y="114"/>
      <point x="164" y="-14"/>
      <point x="346" y="-14" type="curve" smooth="yes"/>
      <point x="528" y="-14"/>
      <point x="646" y="118"/>
      <point x="646" y="345" type="curve" smooth="yes"/>
      <point x="646" y="577"/>
      <point x="528" y="705"/>
      <point x="346" y="705" type="curve" smooth="yes"/>
    </contour>
    <contour>
      <point x="453" y="609"/>
      <point x="515" y="534"/>
      <point x="515" y="345" type="curve" smooth="yes"/>
      <point x="515" y="156"/>
      <point x="452" y="82"/>
      <point x="346" y="82" type="curve" smooth="yes"/>
      <point x="243" y="82"/>
      <point x="177" y="156"/>
      <point x="177" y="345" type="curve" smooth="yes"/>
      <point x="177" y="534"/>
      <point x="241" y="609"/>
      <point x="346" y="609" type="curve" smooth="yes"/>
    </contour>
    <contour>
      <point x="110" y="691" type="move" name="topleft"/>
    </contour>
    <contour>
      <point x="349" y="691" type="move" name="top"/>
    </contour>
  </outline>
</glyph>
<glyph name="P" format="1">
  <advance width="589"/>
  <unicode hex="0050"/>
  <outline>
    <contour>
      <point x="209" y="599" type="line"/>
      <point x="283" y="599" type="line" smooth="yes"/>
      <point x="376" y="599"/>
      <point x="432" y="562"/>
      <point x="432" y="472" type="curve" smooth="yes"/>
      <point x="432" y="368"/>
      <point x="373" y="337"/>
      <point x="283" y="337" type="curve" smooth="yes"/>
      <point x="193" y="337" type="line"/>
      <point x="193" y="243" type="line"/>
      <point x="291" y="243" type="line" smooth="yes"/>
      <point x="447" y="243"/>
      <point x="561" y="313"/>
      <point x="561" y="472" type="curve" smooth="yes"/>
      <point x="561" y="620"/>
      <point x="456" y="691"/>
      <point x="284" y="691" type="curve" smooth="yes"/>
      <point x="85" y="691" type="line"/>
      <point x="85" y="0" type="line"/>
      <point x="209" y="0" type="line"/>
    </contour>
  </outline>
</glyph>
<glyph name="Q" format="1">
  <advance width="689"/>
  <unicode hex="0051"/>
  <outline>
    <contour>
      <point x="164" y="705"/>
      <point x="46" y="571"/>
      <point x="46" y="345" type="curve" smooth="yes"/>
      <point x="46" y="114"/>
      <point x="164" y="-12"/>
      <point x="340" y="-12" type="curve" smooth="yes"/>
      <point x="363" y="-12"/>
      <point x="383" y="-10"/>
      <point x="403" y="-6" type="curve"/>
      <point x="486" y="41" type="line"/>
      <point x="578" y="91"/>
      <point x="646" y="177"/>
      <point x="646" y="345" type="curve" smooth="yes"/>
      <point x="646" y="577"/>
      <point x="528" y="705"/>
      <point x="346" y="705" type="curve" smooth="yes"/>
    </contour>
    <contour>
      <point x="340" y="-12" type="line"/>
      <point x="467" y="-12"/>
      <point x="530" y="-51"/>
      <point x="603" y="-121" type="curve"/>
      <point x="680" y="-21" type="line"/>
      <point x="629" y="16"/>
      <point x="569" y="41"/>
      <point x="486" y="41" type="curve"/>
    </contour>
    <contour>
      <point x="453" y="609"/>
      <point x="515" y="534"/>
      <point x="515" y="345" type="curve" smooth="yes"/>
      <point x="515" y="156"/>
      <point x="452" y="82"/>
      <point x="346" y="82" type="curve" smooth="yes"/>
      <point x="243" y="82"/>
      <point x="177" y="156"/>
      <point x="177" y="345" type="curve" smooth="yes"/>
      <point x="177" y="534"/>
      <point x="241" y="609"/>
      <point x="346" y="609" type="curve" smooth="yes"/>
    </contour>
  </outline>
</glyph>
<glyph name="R" format="1">
  <advance width="610"/>
  <unicode hex="0052"/>
  <outline>
    <contour>
      <point x="85" y="691" type="line"/>
      <point x="85" y="0" type="line"/>
      <point x="209" y="0" type="line"/>
      <point x="209" y="599" type="line"/>
      <point x="283" y="599" type="line" smooth="yes"/>
      <point x="383" y="599"/>
      <point x="427" y="567"/>
      <point x="427" y="489" type="curve" smooth="yes"/>
      <point x="427" y="404"/>
      <point x="380" y="371"/>
      <point x="294" y="371" type="curve" smooth="yes"/>
      <point x="193" y="371" type="line"/>
      <point x="193" y="280" type="line"/>
      <point x="333" y="280" type="line"/>
      <point x="483" y="312"/>
      <point x="557" y="370"/>
      <point x="557" y="489" type="curve" smooth="yes"/>
      <point x="557" y="624"/>
      <point x="465" y="691"/>
      <point x="285" y="691" type="curve" smooth="yes"/>
    </contour>
    <contour>
      <point x="290" y="294" type="line"/>
      <point x="454" y="0" type="line"/>
      <point x="597" y="0" type="line"/>
      <point x="409" y="313" type="line"/>
    </contour>
    <contour>
      <point x="302" y="691" type="move" name="top"/>
    </contour>
    <contour>
      <point x="310" y="0" type="move" name="bottom"/>
    </contour>
  </outline>
</glyph>
<glyph name="S" format="1">
  <advance width="556"/>
  <unicode hex="0053"/>
  <outline>
    <contour>
      <point x="144" y="705"/>
      <point x="47" y="629"/>
      <point x="47" y="516" type="curve" smooth="yes"/>
      <point x="47" y="411"/>
      <point x="111" y="355"/>
      <point x="254" y="310" type="curve" smooth="yes"/>
      <point x="364" y="276"/>
      <point x="394" y="250"/>
      <point x="394" y="190" type="curve" smooth="yes"/>
      <point x="394" y="119"/>
      <point x="337" y="82"/>
      <point x="262" y="82" type="curve" smooth="yes"/>
      <point x="189" y="82"/>
      <point x="133" y="109"/>
      <point x="86" y="153" type="curve"/>
      <point x="18" y="79" type="line"/>
      <point x="75" y="23"/>
      <point x="157" y="-14"/>
      <point x="265" y="-14" type="curve" smooth="yes"/>
      <point x="427" y="-14"/>
      <point x="523" y="73"/>
      <point x="523" y="196" type="curve" smooth="yes"/>
      <point x="523" y="326"/>
      <point x="437" y="374"/>
      <point x="318" y="412" type="curve" smooth="yes"/>
      <point x="201" y="448"/>
      <point x="174" y="471"/>
      <point x="174" y="524" type="curve" smooth="yes"/>
      <point x="174" y="580"/>
      <point x="221" y="609"/>
      <point x="285" y="609" type="curve" smooth="yes"/>
      <point x="342" y="609"/>
      <point x="390" y="591"/>
      <point x="439" y="549" type="curve"/>
      <point x="502" y="621" type="line"/>
      <point x="443" y="675"/>
      <point x="377" y="705"/>
      <point x="278" y="705" type="curve" smooth="yes"/>
    </contour>
    <contour>
      <point x="284" y="691" type="move" name="top"/>
    </contour>
    <contour>
      <point x="274" y="0" type="move" name="bottom"/>
    </contour>
  </outline>
</glyph>
<glyph name="T" format="1">
  <advance width="527"/>
  <unicode hex="0054"/>
  <outline>
    <contour>
      <point x="12" y="691" type="line"/>
      <point x="12" y="591" type="line"/>
      <point x="201" y="591" type="line"/>
      <point x="201" y="0" type="line"/>
      <point x="326" y="0" type="line"/>
      <point x="326" y="591" type="line"/>
      <point x="508" y="591" type="line"/>
      <point x="521" y="691" type="line"/>
    </contour>
    <contour>
      <point x="264" y="691" type="move" name="top"/>
    </contour>
    <contour>
      <point x="264" y="346" type="move" name="center"/>
    </contour>
    <contour>
      <point x="336" y="0" type="move" name="bottomright"/>
    </contour>
    <contour>
      <point x="264" y="0" type="move" name="bottom"/>
    </contour>
  </outline>
</glyph>
<glyph name="U" format="1">
  <advance width="657"/>
  <unicode hex="0055"/>
  <outline>
    <contour>
      <point x="457" y="691" type="line"/>
      <point x="457" y="232" type="line" smooth="yes"/>
      <point x="457" y="133"/>
      <point x="417" y="84"/>
      <point x="328" y="84" type="curve" smooth="yes"/>
      <point x="240" y="84"/>
      <point x="199" y="133"/>
      <point x="199" y="232" type="curve" smooth="yes"/>
      <point x="199" y="691" type="line"/>
      <point x="75" y="691" type="line"/>
      <point x="75" y="225" type="line" smooth="yes"/>
      <point x="75" y="84"/>
      <point x="161" y="-14"/>
      <point x="328" y="-14" type="curve" smooth="yes"/>
      <point x="494" y="-14"/>
      <point x="582" y="87"/>
      <point x="582" y="225" type="curve" smooth="yes"/>
      <point x="582" y="691" type="line"/>
    </contour>
    <contour>
      <point x="329" y="691" type="move" name="top"/>
    </contour>
    <contour>
      <point x="436" y="0" type="move" name="ogonek"/>
    </contour>
  </outline>
</glyph>
<glyph name="V" format="1">
  <advance width="562"/>
  <unicode hex="0056"/>
  <outline>
    <contour>
      <point x="438" y="691" type="line"/>
      <point x="285" y="114" type="line"/>
      <point x="130" y="691" type="line"/>
      <point x="-2" y="691" type="line"/>
      <point x="211" y="0" type="line"/>
      <point x="356" y="0" type="line"/>
      <point x="564" y="691" type="line"/>
    </contour>
  </outline>
</glyph>
<glyph name="W" format="1">
  <advance width="835"/>
  <unicode hex="0057"/>
  <outline>
    <contour>
      <point x="700" y="691" type="line"/>
      <point x="600" y="100" type="line"/>
      <point x="483" y="691" type="line"/>
      <point x="352" y="691" type="line"/>
      <point x="235" y="100" type="line"/>
      <point x="141" y="691" type="line"/>
      <point x="18" y="691" type="line"/>
      <point x="147" y="0" type="line"/>
      <point x="304" y="0" type="line"/>
      <point x="416" y="557" type="line"/>
      <point x="526" y="0" type="line"/>
      <point x="687" y="0" type="line"/>
      <point x="816" y="691" type="line"/>
    </contour>
    <contour>
      <point x="418" y="691" type="move" name="top"/>
    </contour>
  </outline>
</glyph>
<glyph name="X" format="1">
  <advance width="557"/>
  <unicode hex="0058"/>
  <outline>
    <contour>
      <point x="18" y="691" type="line"/>
      <point x="202" y="368" type="line"/>
      <point x="276" y="288" type="line"/>
      <point x="418" y="0" type="line"/>
      <point x="556" y="0" type="line"/>
      <point x="351" y="373" type="line"/>
      <point x="278" y="447" type="line"/>
      <point x="156" y="691" type="line"/>
    </contour>
    <contour>
      <point x="403" y="691" type="line"/>
      <point x="278" y="447" type="line"/>
      <point x="202" y="368" type="line"/>
      <point x="1" y="0" type="line"/>
      <point x="134" y="0" type="line"/>
      <point x="276" y="288" type="line"/>
      <point x="351" y="373" type="line"/>
      <point x="536" y="691" type="line"/>
    </contour>
    <contour>
      <point x="502" y="0" type="move" name="bottomright"/>
    </contour>
  </outline>
</glyph>
<glyph name="Y" format="1">
  <advance width="568"/>
  <unicode hex="0059"/>
  <outline>
    <contour>
      <point x="438" y="691" type="line"/>
      <point x="287" y="365" type="line"/>
      <point x="136" y="691" type="line"/>
      <point x="0" y="691" type="line"/>
      <point x="222" y="262" type="line"/>
      <point x="222" y="0" type="line"/>
      <point x="347" y="0" type="line"/>
      <point x="347" y="263" type="line"/>
      <point x="569" y="691" type="line"/>
    </contour>
    <contour>
      <point x="1" y="691" type="move" name="topleft"/>
    </contour>
    <contour>
      <point x="286" y="691" type="move" name="top"/>
    </contour>
  </outline>
</glyph>
<glyph name="Z" format="1">
  <advance width="531"/>
  <unicode hex="005A"/>
  <outline>
    <contour>
      <point x="59" y="691" type="line"/>
      <point x="59" y="591" type="line"/>
      <point x="353" y="591" type="line"/>
      <point x="25" y="96" type="line"/>
      <point x="25" y="0" type="line"/>
      <point x="481" y="0" type="line"/>
      <point x="494" y="102" type="line"/>
      <point x="168" y="102" type="line"/>
      <point x="492" y="594" type="line"/>
      <point x="492" y="691" type="line"/>
    </contour>
    <contour>
      <point x="274" y="691" type="move" name="top"/>
    </contour>
  </outline>
</glyph>
<glyph name="bracketleft" format="1">
  <advance width="323"/>
  <unicode hex="005B"/>
  <outline>
    <contour>
      <point x="52" y="819" type="line"/>
      <point x="52" y="-119" type="line"/>
      <point x="283" y="-119" type="line"/>
      <point x="283" y="-25" type="line"/>
      <point x="165" y="-25" type="line"/>
      <point x="165" y="724" type="line"/>
      <point x="283" y="724" type="line"/>
      <point x="283" y="819" type="line"/>
    </contour>
  </outline>
</glyph>
<glyph name="bracketright" format="1">
  <advance width="323"/>
  <unicode hex="005D"/>
  <outline>
    <contour>
      <point x="39" y="819" type="line"/>
      <point x="39" y="725" type="line"/>
      <point x="157" y="725" type="line"/>
      <point x="157" y="-25" type="line"/>
      <point x="39" y="-25" type="line"/>
      <point x="39" y="-119" type="line"/>
      <point x="271" y="-119" type="line"/>
      <point x="271" y="819" type="line"/>
    </contour>
  </outline>
</glyph>
<glyph name="asciicircum" format="1">
  <advance width="548"/>
  <unicode hex="005E"/>
  <outline>
    <contour>
      <point x="220" y="842" type="line"/>
      <point x="31" y="527" type="line"/>
      <point x="153" y="527" type="line"/>
      <point x="273" y="745" type="line"/>
      <point x="395" y="527" type="line"/>
      <point x="517" y="527" type="line"/>
      <point x="328" y="842" type="line"/>
    </contour>
  </outline>
</glyph>
<glyph name="underscore" format="1">
  <advance width="520"/>
  <unicode hex="005F"/>
  <outline>
    <contour>
      <point x="506" y="-154" type="line"/>
      <point x="506" y="-56" type="line"/>
      <point x="14" y="-56" type="line"/>
      <point x="14" y="-154" type="line"/>
    </contour>
  </outline>
</glyph>
<glyph name="a" format="1">
  <advance width="546"/>
  <unicode hex="0061"/>
  <outline>
    <contour>
      <point x="205" y="543"/>
      <point x="141" y="530"/>
      <point x="75" y="505" type="curve"/>
      <point x="103" y="423" type="line"/>
      <point x="157" y="441"/>
      <point x="207" y="451"/>
      <point x="244" y="451" type="curve" smooth="yes"/>
      <point x="314" y="451"/>
      <point x="346" y="426"/>
      <point x="346" y="356" type="curve"/>
      <point x="346" y="127" type="line"/>
      <point x="360" y="82" type="line"/>
      <point x="377" y="17"/>
      <point x="416" y="-7"/>
      <point x="479" y="-13" type="curve"/>
      <point x="505" y="68" type="line"/>
      <point x="479" y="77"/>
      <point x="464" y="92"/>
      <point x="464" y="136" type="curve" smooth="yes"/>
      <point x="464" y="362" type="line" smooth="yes"/>
      <point x="464" y="478"/>
      <point x="403" y="543"/>
      <point x="265" y="543" type="curve" smooth="yes"/>
    </contour>
    <contour>
      <point x="276" y="324" type="line"/>
      <point x="123" y="324"/>
      <point x="37" y="262"/>
      <point x="37" y="148" type="curve" smooth="yes"/>
      <point x="37" y="52"/>
      <point x="102" y="-14"/>
      <point x="207" y="-14" type="curve" smooth="yes"/>
      <point x="276" y="-14"/>
      <point x="338" y="13"/>
      <point x="375" y="80" type="curve"/>
      <point x="354" y="159" type="line"/>
      <point x="328" y="103"/>
      <point x="291" y="73"/>
      <point x="239" y="73" type="curve" smooth="yes"/>
      <point x="187" y="73"/>
      <point x="160" y="103"/>
      <point x="160" y="156" type="curve" smooth="yes"/>
      <point x="160" y="221"/>
      <point x="203" y="252"/>
      <point x="289" y="252" type="curve" smooth="yes"/>
      <point x="363" y="252" type="line"/>
      <point x="363" y="324" type="line"/>
    </contour>
    <contour>
      <point x="265" y="529" type="move" name="top"/>
    </contour>
    <contour>
      <point x="489" y="-13" type="move" name="ogonek"/>
    </contour>
  </outline>
</glyph>
<glyph name="b" format="1">
  <advance width="595"/>
  <unicode hex="0062"/>
  <outline>
    <contour>
      <point x="280" y="543"/>
      <point x="225" y="508"/>
      <point x="192" y="453" type="curve"/>
      <point x="192" y="363" type="line"/>
      <point x="218" y="410"/>
      <point x="255" y="452"/>
      <point x="310" y="452" type="curve" smooth="yes"/>
      <point x="374" y="452"/>
      <point x="417" y="408"/>
      <point x="417" y="265" type="curve" smooth="yes"/>
      <point x="417" y="129"/>
      <point x="371" y="77"/>
      <point x="304" y="77" type="curve" smooth="yes"/>
      <point x="256" y="77"/>
      <point x="216" y="108"/>
      <point x="192" y="155" type="curve"/>
      <point x="183" y="71" type="line"/>
      <point x="219" y="18"/>
      <point x="270" y="-14"/>
      <point x="335" y="-14" type="curve" smooth="yes"/>
      <point x="465" y="-14"/>
      <point x="544" y="100"/>
      <point x="544" y="265" type="curve" smooth="yes"/>
      <point x="544" y="441"/>
      <point x="470" y="543"/>
      <point x="346" y="543" type="curve" smooth="yes"/>
    </contour>
    <contour>
      <point x="81" y="740" type="line"/>
      <point x="81" y="0" type="line"/>
      <point x="187" y="0" type="line"/>
      <point x="201" y="92" type="line"/>
      <point x="201" y="754" type="line" smooth="yes"/>
    </contour>
  </outline>
</glyph>
<glyph name="d" format="1">
  <advance width="599"/>
  <unicode hex="0064"/>
  <outline>
    <contour>
      <point x="132" y="543"/>
      <point x="51" y="426"/>
      <point x="51" y="263" type="curve" smooth="yes"/>
      <point x="51" y="96"/>
      <point x="121" y="-14"/>
      <point x="251" y="-14" type="curve" smooth="yes"/>
      <point x="326" y="-14"/>
      <point x="380" y="26"/>
      <point x="412" y="82" type="curve"/>
      <point x="406" y="161" type="line"/>
      <point x="373" y="107"/>
      <point x="338" y="77"/>
      <point x="284" y="77" type="curve" smooth="yes"/>
      <point x="218" y="77"/>
      <point x="178" y="128"/>
      <point x="178" y="264" type="curve" smooth="yes"/>
      <point x="178" y="394"/>
      <point x="223" y="452"/>
      <point x="293" y="452" type="curve" smooth="yes"/>
      <point x="343" y="452"/>
      <point x="376" y="424"/>
      <point x="408" y="381" type="curve"/>
      <point x="408" y="473" type="line"/>
      <point x="374" y="513"/>
      <point x="326" y="543"/>
      <point x="264" y="543" type="curve" smooth="yes"/>
    </contour>
    <contour>
      <point x="398" y="132" type="line"/>
      <point x="401" y="83" type="line"/>
      <point x="412" y="0" type="line"/>
      <point x="518" y="0" type="line"/>
      <point x="518" y="740" type="line"/>
      <point x="398" y="754" type="line"/>
    </contour>
    <contour>
      <point x="302" y="265" type="move" name="center"/>
    </contour>
    <contour>
      <point x="536" y="740" type="move" name="topright"/>
    </contour>
  </outline>
</glyph>
<glyph name="e" format="1">
  <advance width="552"/>
  <unicode hex="0065"/>
  <outline>
    <contour>
      <point x="131" y="543"/>
      <point x="46" y="422"/>
      <point x="46" y="260" type="curve" smooth="yes"/>
      <point x="46" y="94"/>
      <point x="134" y="-14"/>
      <point x="294" y="-14" type="curve" smooth="yes"/>
      <point x="372" y="-14"/>
      <point x="435" y="14"/>
      <point x="487" y="55" type="curve"/>
      <point x="437" y="124" type="line"/>
      <point x="391" y="92"/>
      <point x="352" y="78"/>
      <point x="304" y="78" type="curve" smooth="yes"/>
      <point x="225" y="78"/>
      <point x="170" y="124"/>
      <point x="170" y="264" type="curve" smooth="yes"/>
      <point x="170" y="403"/>
      <point x="210" y="456"/>
      <point x="280" y="456" type="curve" smooth="yes"/>
      <point x="355" y="456"/>
      <point x="388" y="402"/>
      <point x="388" y="312" type="curve" smooth="yes"/>
      <point x="388" y="310"/>
      <point x="388" y="308"/>
      <point x="388" y="306" type="curve"/>
      <point x="155" y="306" type="line"/>
      <point x="155" y="226" type="line"/>
      <point x="504" y="226" type="line"/>
      <point x="505" y="240"/>
      <point x="507" y="260"/>
      <point x="507" y="278" type="curve" smooth="yes"/>
      <point x="507" y="443"/>
      <point x="424" y="543"/>
      <point x="278" y="543" type="curve" smooth="yes"/>
    </contour>
    <contour>
      <point x="281" y="529" type="move" name="top"/>
    </contour>
    <contour>
      <point x="414" y="7" type="move" name="ogonek"/>
    </contour>
    <contour>
      <point x="293" y="0" type="move" name="bottom"/>
    </contour>
  </outline>
</glyph>
<glyph name="f" format="1">
  <advance width="344"/>
  <unicode hex="0066"/>
  <outline>
    <contour>
      <point x="157" y="754"/>
      <point x="95" y="684"/>
      <point x="95" y="590" type="curve" smooth="yes"/>
      <point x="95" y="0" type="line"/>
      <point x="215" y="0" type="line"/>
      <point x="215" y="588" type="line" smooth="yes"/>
      <point x="215" y="639"/>
      <point x="234" y="662"/>
      <point x="287" y="662" type="curve" smooth="yes"/>
      <point x="313" y="662"/>
      <point x="343" y="657"/>
      <point x="375" y="642" type="curve"/>
      <point x="410" y="724" type="line"/>
      <point x="370" y="743"/>
      <point x="328" y="754"/>
      <point x="276" y="754" type="curve" smooth="yes"/>
    </contour>
    <contour>
      <point x="7" y="529" type="line"/>
      <point x="7" y="441" type="line"/>
      <point x="329" y="441" type="line"/>
      <point x="342" y="529" type="line"/>
    </contour>
  </outline>
</glyph>
<glyph name="g" format="1">
  <advance width="533"/>
  <unicode hex="0067"/>
  <outline>
    <contour>
      <point x="439" y="567"/>
      <point x="383" y="540"/>
      <point x="257" y="543" type="curve" smooth="yes"/>
      <point x="132" y="543"/>
      <point x="41" y="468"/>
      <point x="41" y="354" type="curve" smooth="yes"/>
      <point x="41" y="286"/>
      <point x="69" y="240"/>
      <point x="133" y="206" type="curve"/>
      <point x="95" y="181"/>
      <point x="73" y="145"/>
      <point x="73" y="109" type="curve" smooth="yes"/>
      <point x="73" y="55"/>
      <point x="117" y="7"/>
      <point x="220" y="7" type="curve" smooth="yes"/>
      <point x="301" y="7" type="line" smooth="yes"/>
      <point x="361" y="7"/>
      <point x="394" y="-16"/>
      <point x="394" y="-58" type="curve" smooth="yes"/>
      <point x="394" y="-103"/>
      <point x="362" y="-131"/>
      <point x="257" y="-131" type="curve" smooth="yes"/>
      <point x="149" y="-131"/>
      <point x="125" y="-106"/>
      <point x="125" y="-52" type="curve"/>
      <point x="17" y="-52" type="line"/>
      <point x="17" y="-158"/>
      <point x="71" y="-217"/>
      <point x="255" y="-217" type="curve" smooth="yes"/>
      <point x="426" y="-217"/>
      <point x="515" y="-155"/>
      <point x="515" y="-50" type="curve" smooth="yes"/>
      <point x="515" y="36"/>
      <point x="440" y="99"/>
      <point x="325" y="99" type="curve" smooth="yes"/>
      <point x="243" y="99" type="line" smooth="yes"/>
      <point x="190" y="99"/>
      <point x="178" y="117"/>
      <point x="178" y="138" type="curve" smooth="yes"/>
      <point x="178" y="154"/>
      <point x="188" y="170"/>
      <point x="201" y="179" type="curve"/>
      <point x="222" y="173"/>
      <point x="242" y="171"/>
      <point x="265" y="171" type="curve" smooth="yes"/>
      <point x="396" y="171"/>
      <point x="476" y="246"/>
      <point x="476" y="349" type="curve" smooth="yes"/>
      <point x="476" y="413"/>
      <point x="444" y="455"/>
      <point x="380" y="484" type="curve"/>
      <point x="442" y="484"/>
      <point x="492" y="487"/>
      <point x="533" y="502" type="curve"/>
      <point x="502" y="599" type="line"/>
    </contour>
    <contour>
      <point x="325" y="461"/>
      <point x="358" y="426"/>
      <point x="358" y="357" type="curve" smooth="yes"/>
      <point x="358" y="287"/>
      <point x="324" y="249"/>
      <point x="260" y="249" type="curve" smooth="yes"/>
      <point x="198" y="249"/>
      <point x="162" y="291"/>
      <point x="162" y="356" type="curve" smooth="yes"/>
      <point x="162" y="418"/>
      <point x="197" y="461"/>
      <point x="259" y="461" type="curve" smooth="yes"/>
    </contour>
    <contour>
      <point x="265" y="529" type="move" name="top"/>
    </contour>
  </outline>
</glyph>
<glyph name="h" format="1">
  <advance width="582"/>
  <unicode hex="0068"/>
  <outline>
    <contour>
      <point x="281" y="543"/>
      <point x="225" y="503"/>
      <point x="183" y="438" type="curve"/>
      <point x="201" y="370" type="line"/>
      <point x="233" y="420"/>
      <point x="269" y="452"/>
      <point x="317" y="452" type="curve" smooth="yes"/>
      <point x="358" y="452"/>
      <point x="386" y="432"/>
      <point x="386" y="363" type="curve" smooth="yes"/>
      <point x="386" y="0" type="line"/>
      <point x="506" y="0" type="line"/>
      <point x="506" y="382" type="line" smooth="yes"/>
      <point x="506" y="482"/>
      <point x="450" y="543"/>
      <point x="356" y="543" type="curve" smooth="yes"/>
    </contour>
    <contour>
      <point x="81" y="740" type="line"/>
      <point x="81" y="0" type="line"/>
      <point x="201" y="0" type="line"/>
      <point x="201" y="752" type="line"/>
    </contour>
    <contour>
      <point x="290" y="740" type="move" name="top"/>
    </contour>
    <contour>
      <point x="290" y="265" type="move" name="center"/>
    </contour>
  </outline>
</glyph>
<glyph name="k" format="1">
  <advance width="529"/>
  <unicode hex="006B"/>
  <outline>
    <contour>
      <point x="387" y="529" type="line"/>
      <point x="206" y="289" type="line"/>
      <point x="394" y="0" type="line"/>
      <point x="533" y="0" type="line"/>
      <point x="335" y="296" type="line"/>
      <point x="515" y="529" type="line"/>
    </contour>
    <contour>
      <point x="81" y="740" type="line"/>
      <point x="81" y="0" type="line"/>
      <point x="201" y="0" type="line"/>
      <point x="201" y="754" type="line"/>
    </contour>
    <contour>
      <point x="264" y="0" type="move" name="bottom"/>
    </contour>
  </outline>
</glyph>
<glyph name="l" format="1">
  <advance width="295"/>
  <unicode hex="006C"/>
  <outline>
    <contour>
      <point x="76" y="740" type="line"/>
      <point x="76" y="116" type="line" smooth="yes"/>
      <point x="76" y="31"/>
      <point x="120" y="-14"/>
      <point x="196" y="-14" type="curve" smooth="yes"/>
      <point x="227" y="-14"/>
      <point x="258" y="-8"/>
      <point x="284" y="4" type="curve"/>
      <point x="257" y="88" type="line"/>
      <point x="248" y="85"/>
      <point x="238" y="83"/>
      <point x="226" y="83" type="curve" smooth="yes"/>
      <point x="205" y="83"/>
      <point x="196" y="95"/>
      <point x="196" y="124" type="curve" smooth="yes"/>
      <point x="196" y="754" type="line"/>
    </contour>
    <contour>
      <point x="136" y="740" type="move" name="top"/>
    </contour>
    <contour>
      <point x="157" y="0" type="move" name="bottom"/>
    </contour>
    <contour>
      <point x="220" y="740" type="move" name="topright"/>
    </contour>
    <contour>
      <point x="322" y="378" type="move" name="center"/>
    </contour>
  </outline>
</glyph>
<glyph name="m" format="1">
  <advance width="852"/>
  <unicode hex="006D"/>
  <outline>
    <contour>
      <point x="273" y="543"/>
      <point x="222" y="503"/>
      <point x="183" y="440" type="curve"/>
      <point x="201" y="370" type="line"/>
      <point x="231" y="420"/>
      <point x="260" y="452"/>
      <point x="307" y="452" type="curve" smooth="yes"/>
      <point x="340" y="452"/>
      <point x="368" y="432"/>
      <point x="368" y="363" type="curve" smooth="yes"/>
      <point x="368" y="0" type="line"/>
      <point x="488" y="0" type="line"/>
      <point x="488" y="382" type="line"/>
      <point x="485" y="418" type="line"/>
      <point x="474" y="496"/>
      <point x="421" y="543"/>
      <point x="347" y="543" type="curve" smooth="yes"/>
    </contour>
    <contour>
      <point x="81" y="529" type="line"/>
      <point x="81" y="0" type="line"/>
      <point x="201" y="0" type="line"/>
      <point x="201" y="408" type="line"/>
      <point x="185" y="529" type="line"/>
    </contour>
    <contour>
      <point x="560" y="543"/>
      <point x="510" y="504"/>
      <point x="469" y="441" type="curve"/>
      <point x="488" y="370" type="line"/>
      <point x="519" y="420"/>
      <point x="547" y="452"/>
      <point x="594" y="452" type="curve" smooth="yes"/>
      <point x="628" y="452"/>
      <point x="656" y="432"/>
      <point x="656" y="363" type="curve" smooth="yes"/>
      <point x="656" y="0" type="line"/>
      <point x="776" y="0" type="line"/>
      <point x="776" y="382" type="line" smooth="yes"/>
      <point x="776" y="482"/>
      <point x="719" y="543"/>
      <point x="635" y="543" type="curve" smooth="yes"/>
    </contour>
  </outline>
</glyph>
<glyph name="n" format="1">
  <advance width="582"/>
  <unicode hex="006E"/>
  <outline>
    <contour>
      <point x="281" y="543"/>
      <point x="224" y="503"/>
      <point x="183" y="440" type="curve"/>
      <point x="201" y="370" type="line"/>
      <point x="233" y="420"/>
      <point x="268" y="452"/>
      <point x="317" y="452" type="curve" smooth="yes"/>
      <point x="360" y="452"/>
      <point x="386" y="432"/>
      <point x="386" y="363" type="curve" smooth="yes"/>
      <point x="386" y="0" type="line"/>
      <point x="506" y="0" type="line"/>
      <point x="506" y="382" type="line" smooth="yes"/>
      <point x="506" y="483"/>
      <point x="451" y="543"/>
      <point x="356" y="543" type="curve" smooth="yes"/>
    </contour>
    <contour>
      <point x="81" y="529" type="line"/>
      <point x="81" y="0" type="line"/>
      <point x="201" y="0" type="line"/>
      <point x="201" y="408" type="line"/>
      <point x="185" y="529" type="line"/>
    </contour>
    <contour>
      <point x="296" y="529" type="move" name="top"/>
    </contour>
    <contour>
      <point x="291" y="0" type="move" name="bottom"/>
    </contour>
  </outline>
</glyph>
<glyph name="o" format="1">
  <advance width="584"/>
  <unicode hex="006F"/>
  <outline>
    <contour>
      <point x="137" y="543"/>
      <point x="46" y="430"/>
      <point x="46" y="264" type="curve" smooth="yes"/>
      <point x="46" y="92"/>
      <point x="137" y="-14"/>
      <point x="292" y="-14" type="curve" smooth="yes"/>
      <point x="447" y="-14"/>
      <point x="538" y="99"/>
      <point x="538" y="265" type="curve" smooth="yes"/>
      <point x="538" y="437"/>
      <point x="447" y="543"/>
      <point x="293" y="543" type="curve" smooth="yes"/>
    </contour>
    <contour>
      <point x="370" y="451"/>
      <point x="411" y="393"/>
      <point x="411" y="265" type="curve" smooth="yes"/>
      <point x="411" y="136"/>
      <point x="370" y="78"/>
      <point x="292" y="78" type="curve" smooth="yes"/>
      <point x="214" y="78"/>
      <point x="173" y="136"/>
      <point x="173" y="264" type="curve" smooth="yes"/>
      <point x="173" y="393"/>
      <point x="215" y="451"/>
      <point x="293" y="451" type="curve" smooth="yes"/>
    </contour>
    <contour>
      <point x="292" y="529" type="move" name="top"/>
    </contour>
  </outline>
</glyph>
<glyph name="q" format="1">
  <advance width="594"/>
  <unicode hex="0071"/>
  <outline>
    <contour>
      <point x="393" y="-203" type="line"/>
      <point x="513" y="-217" type="line"/>
      <point x="513" y="529" type="line"/>
      <point x="409" y="529" type="line"/>
      <point x="401" y="470" type="line"/>
      <point x="393" y="451" type="line"/>
    </contour>
    <contour>
      <point x="127" y="543"/>
      <point x="46" y="426"/>
      <point x="46" y="263" type="curve" smooth="yes"/>
      <point x="46" y="96"/>
      <point x="116" y="-14"/>
      <point x="246" y="-14" type="curve" smooth="yes"/>
      <point x="321" y="-14"/>
      <point x="375" y="26"/>
      <point x="407" y="84" type="curve"/>
      <point x="401" y="161" type="line"/>
      <point x="368" y="107"/>
      <point x="333" y="77"/>
      <point x="279" y="77" type="curve" smooth="yes"/>
      <point x="213" y="77"/>
      <point x="173" y="128"/>
      <point x="173" y="264" type="curve" smooth="yes"/>
      <point x="173" y="394"/>
      <point x="218" y="452"/>
      <point x="288" y="452" type="curve" smooth="yes"/>
      <point x="338" y="452"/>
      <point x="371" y="424"/>
      <point x="403" y="381" type="curve"/>
      <point x="407" y="469" type="line"/>
      <point x="369" y="513"/>
      <point x="321" y="543"/>
      <point x="259" y="543" type="curve" smooth="yes"/>
    </contour>
  </outline>
</glyph>
<glyph name="r" format="1">
  <advance width="392"/>
  <unicode hex="0072"/>
  <outline>
    <contour>
      <point x="269" y="542"/>
      <point x="216" y="495"/>
      <point x="192" y="410" type="curve"/>
      <point x="196" y="261" type="line"/>
      <point x="216" y="369"/>
      <point x="249" y="425"/>
      <point x="320" y="425" type="curve" smooth="yes"/>
      <point x="339" y="425"/>
      <point x="351" y="423"/>
      <point x="367" y="419" type="curve"/>
      <point x="388" y="535" type="line"/>
      <point x="371" y="540"/>
      <point x="353" y="542"/>
      <point x="335" y="542" type="curve" smooth="yes"/>
    </contour>
    <contour>
      <point x="81" y="529" type="line"/>
      <point x="81" y="0" type="line"/>
      <point x="201" y="0" type="line"/>
      <point x="201" y="300" type="line"/>
      <point x="197" y="412" type="line"/>
      <point x="185" y="529" type="line"/>
    </contour>
    <contour>
      <point x="236" y="529" type="move" name="top"/>
    </contour>
    <contour>
      <point x="141" y="0" type="move" name="bottom"/>
    </contour>
  </outline>
</glyph>
<glyph name="s" format="1">
  <advance width="474"/>
  <unicode hex="0073"/>
  <outline>
    <contour>
      <point x="123" y="543"/>
      <point x="41" y="478"/>
      <point x="41" y="391" type="curve" smooth="yes"/>
      <point x="41" y="313"/>
      <point x="89" y="262"/>
      <point x="199" y="232" type="curve" smooth="yes"/>
      <point x="299" y="205"/>
      <point x="321" y="189"/>
      <point x="321" y="142" type="curve" smooth="yes"/>
      <point x="321" y="102"/>
      <point x="283" y="76"/>
      <point x="222" y="76" type="curve" smooth="yes"/>
      <point x="168" y="76"/>
      <point x="119" y="96"/>
      <point x="79" y="129" type="curve"/>
      <point x="17" y="59" type="line"/>
      <point x="65" y="16"/>
      <point x="135" y="-14"/>
      <point x="226" y="-14" type="curve" smooth="yes"/>
      <point x="343" y="-14"/>
      <point x="445" y="42"/>
      <point x="445" y="152" type="curve" smooth="yes"/>
      <point x="445" y="246"/>
      <point x="384" y="290"/>
      <point x="275" y="318" type="curve" smooth="yes"/>
      <point x="186" y="343"/>
      <point x="164" y="360"/>
      <point x="164" y="396" type="curve" smooth="yes"/>
      <point x="164" y="431"/>
      <point x="194" y="453"/>
      <point x="249" y="453" type="curve" smooth="yes"/>
      <point x="294" y="453"/>
      <point x="337" y="438"/>
      <point x="381" y="407" type="curve"/>
      <point x="429" y="481" type="line"/>
      <point x="379" y="520"/>
      <point x="318" y="543"/>
      <point x="243" y="543" type="curve" smooth="yes"/>
    </contour>
    <contour>
      <point x="247" y="529" type="move" name="top"/>
    </contour>
    <contour>
      <point x="238" y="0" type="move" name="bottom"/>
    </contour>
  </outline>
</glyph>
<glyph name="t" format="1">
  <advance width="372"/>
  <unicode hex="0074"/>
  <outline>
    <contour>
      <point x="91" y="646" type="line"/>
      <point x="91" y="154" type="line" smooth="yes"/>
      <point x="91" y="44"/>
      <point x="146" y="-14"/>
      <point x="246" y="-14" type="curve" smooth="yes"/>
      <point x="293" y="-14"/>
      <point x="338" y="-1"/>
      <point x="376" y="25" type="curve"/>
      <point x="333" y="103" type="line"/>
      <point x="309" y="89"/>
      <point x="289" y="83"/>
      <point x="268" y="83" type="curve" smooth="yes"/>
      <point x="228" y="83"/>
      <point x="211" y="105"/>
      <point x="211" y="157" type="curve" smooth="yes"/>
      <point x="211" y="660" type="line"/>
    </contour>
    <contour>
      <point x="6" y="529" type="line"/>
      <point x="6" y="441" type="line"/>
      <point x="322" y="441" type="line"/>
      <point x="334" y="529" type="line"/>
    </contour>
    <contour>
      <point x="234" y="0" type="move" name="bottom"/>
    </contour>
    <contour>
      <point x="185" y="265" type="move" name="center"/>
    </contour>
    <contour>
      <point x="219" y="762" type="move" name="topright"/>
    </contour>
  </outline>
</glyph>
<glyph name="u" format="1">
  <advance width="578"/>
  <unicode hex="0075"/>
  <outline>
    <contour>
      <point x="377" y="529" type="line"/>
      <point x="377" y="155" type="line"/>
      <point x="348" y="108"/>
      <point x="311" y="77"/>
      <point x="264" y="77" type="curve" smooth="yes"/>
      <point x="217" y="77"/>
      <point x="196" y="99"/>
      <point x="196" y="163" type="curve" smooth="yes"/>
      <point x="196" y="529" type="line"/>
      <point x="76" y="529" type="line"/>
      <point x="76" y="149" type="line" smooth="yes"/>
      <point x="76" y="47"/>
      <point x="128" y="-14"/>
      <point x="224" y="-14" type="curve" smooth="yes"/>
      <point x="296" y="-14"/>
      <point x="347" y="15"/>
      <point x="386" y="76" type="curve"/>
      <point x="393" y="0" type="line"/>
      <point x="497" y="0" type="line"/>
      <point x="497" y="529" type="line"/>
    </contour>
    <contour>
      <point x="287" y="529" type="move" name="top"/>
    </contour>
    <contour>
      <point x="507" y="0" type="move" name="ogonek"/>
    </contour>
  </outline>
</glyph>
<glyph name="v" format="1">
  <advance width="501"/>
  <unicode hex="0076"/>
  <outline>
    <contour>
      <point x="373" y="529" type="line"/>
      <point x="253" y="98" type="line"/>
      <point x="134" y="529" type="line"/>
      <point x="3" y="529" type="line"/>
      <point x="180" y="0" type="line"/>
      <point x="324" y="0" type="line"/>
      <point x="498" y="529" type="line"/>
    </contour>
  </outline>
</glyph>
<glyph name="w" format="1">
  <advance width="730"/>
  <unicode hex="0077"/>
  <outline>
    <contour>
      <point x="602" y="529" type="line"/>
      <point x="520" y="87" type="line"/>
      <point x="432" y="529" type="line"/>
      <point x="307" y="529" type="line"/>
      <point x="212" y="87" type="line"/>
      <point x="134" y="529" type="line"/>
      <point x="13" y="529" type="line"/>
      <point x="132" y="0" type="line"/>
      <point x="282" y="0" type="line"/>
      <point x="366" y="421" type="line"/>
      <point x="449" y="0" type="line"/>
      <point x="601" y="0" type="line"/>
      <point x="717" y="529" type="line"/>
    </contour>
    <contour>
      <point x="366" y="529" type="move" name="top"/>
    </contour>
  </outline>
</glyph>
<glyph name="x" format="1">
  <advance width="496"/>
  <unicode hex="0078"/>
  <outline>
    <contour>
      <point x="18" y="529" type="line"/>
      <point x="177" y="279" type="line"/>
      <point x="244" y="213" type="line"/>
      <point x="358" y="0" type="line"/>
      <point x="498" y="0" type="line"/>
      <point x="320" y="283" type="line"/>
      <point x="250" y="345" type="line"/>
      <point x="155" y="529" type="line"/>
    </contour>
    <contour>
      <point x="344" y="529" type="line"/>
      <point x="250" y="345" type="line"/>
      <point x="177" y="279" type="line"/>
      <point x="-2" y="0" type="line"/>
      <point x="131" y="0" type="line"/>
      <point x="244" y="213" type="line"/>
      <point x="320" y="283" type="line"/>
      <point x="475" y="529" type="line"/>
    </contour>
    <contour>
      <point x="447" y="0" type="move" name="bottomright"/>
    </contour>
  </outline>
</glyph>
<glyph name="y" format="1">
  <advance width="503"/>
  <unicode hex="0079"/>
  <outline>
    <contour>
      <point x="376" y="529" type="line"/>
      <point x="252" y="81" type="line"/>
      <point x="131" y="529" type="line"/>
      <point x="3" y="529" type="line"/>
      <point x="174" y="0" type="line"/>
      <point x="215" y="0" type="line"/>
      <point x="185" y="-76"/>
      <point x="152" y="-112"/>
      <point x="46" y="-128" type="curve"/>
      <point x="59" y="-217" type="line"/>
      <point x="214" y="-204"/>
      <point x="288" y="-123"/>
      <point x="327" y="-2" type="curve" smooth="yes"/>
      <point x="500" y="529" type="line"/>
    </contour>
    <contour>
      <point x="252" y="529" type="move" name="top"/>
    </contour>
  </outline>
</glyph>
<glyph name="z" format="1">
  <advance width="446"/>
  <unicode hex="007A"/>
  <outline>
    <contour>
      <point x="42" y="529" type="line"/>
      <point x="42" y="433" type="line"/>
      <point x="280" y="433" type="line"/>
      <point x="20" y="87" type="line"/>
      <point x="20" y="0" type="line"/>
      <point x="409" y="0" type="line"/>
      <point x="422" y="95" type="line"/>
      <point x="157" y="95" type="line"/>
      <point x="417" y="441" type="line"/>
      <point x="417" y="529" type="line"/>
    </contour>
    <contour>
      <point x="225" y="529" type="move" name="top"/>
    </contour>
  </outline>
</glyph>
<glyph name="braceleft" format="1">
  <advance width="323"/>
  <unicode hex="007B"/>
  <outline>
    <contour>
      <point x="132" y="838"/>
      <point x="86" y="789"/>
      <point x="86" y="682" type="curve" smooth="yes"/>
      <point x="86" y="478" type="line" smooth="yes"/>
      <point x="86" y="422"/>
      <point x="71" y="399"/>
      <point x="18" y="399" type="curve"/>
      <point x="18" y="300" type="line"/>
      <point x="71" y="300"/>
      <point x="86" y="278"/>
      <point x="86" y="222" type="curve" smooth="yes"/>
      <point x="86" y="18" type="line" smooth="yes"/>
      <point x="86" y="-88"/>
      <point x="132" y="-138"/>
      <point x="286" y="-138" type="curve"/>
      <point x="286" y="-50" type="line"/>
      <point x="222" y="-50"/>
      <point x="199" y="-33"/>
      <point x="199" y="14" type="curve" smooth="yes"/>
      <point x="199" y="231" type="line" smooth="yes"/>
      <point x="199" y="310"/>
      <point x="166" y="334"/>
      <point x="112" y="349" type="curve"/>
      <point x="167" y="365"/>
      <point x="199" y="389"/>
      <point x="199" y="469" type="curve" smooth="yes"/>
      <point x="199" y="686" type="line" smooth="yes"/>
      <point x="199" y="733"/>
      <point x="222" y="750"/>
      <point x="286" y="750" type="curve"/>
      <point x="286" y="838" type="line"/>
    </contour>
  </outline>
</glyph>
<glyph name="bar" format="1">
  <advance width="392"/>
  <unicode hex="007C"/>
  <outline>
    <contour>
      <point x="141" y="808" type="line"/>
      <point x="141" y="-103" type="line"/>
      <point x="251" y="-103" type="line"/>
      <point x="251" y="808" type="line"/>
    </contour>
  </outline>
</glyph>
<glyph name="braceright" format="1">
  <advance width="323"/>
  <unicode hex="007D"/>
  <outline>
    <contour>
      <point x="37" y="750" type="line"/>
      <point x="101" y="750"/>
      <point x="124" y="733"/>
      <point x="124" y="686" type="curve" smooth="yes"/>
      <point x="124" y="469" type="line" smooth="yes"/>
      <point x="124" y="389"/>
      <point x="156" y="365"/>
      <point x="211" y="349" type="curve"/>
      <point x="157" y="334"/>
      <point x="124" y="310"/>
      <point x="124" y="231" type="curve" smooth="yes"/>
      <point x="124" y="14" type="line" smooth="yes"/>
      <point x="124" y="-33"/>
      <point x="101" y="-50"/>
      <point x="37" y="-50" type="curve"/>
      <point x="37" y="-138" type="line"/>
      <point x="191" y="-138"/>
      <point x="237" y="-88"/>
      <point x="237" y="18" type="curve" smooth="yes"/>
      <point x="237" y="222" type="line" smooth="yes"/>
      <point x="237" y="278"/>
      <point x="252" y="300"/>
      <point x="304" y="300" type="curve"/>
      <point x="304" y="399" type="line"/>
      <point x="252" y="399"/>
      <point x="237" y="422"/>
      <point x="237" y="478" type="curve" smooth="yes"/>
      <point x="237" y="682" type="line" smooth="yes"/>
      <point x="237" y="789"/>
      <point x="191" y="838"/>
      <point x="37" y="838" type="curve"/>
    </contour>
  </outline>
</glyph>
<glyph name="exclamdown" format="1">
  <advance width="241"/>
  <unicode hex="00A1"/>
  <outline>
    <contour>
      <point x="71" y="242" type="line"/>
      <point x="56" y="-203" type="line"/>
      <point x="186" y="-203" type="line"/>
      <point x="172" y="242" type="line"/>
    </contour>
    <contour>
      <point x="76" y="501"/>
      <point x="42" y="466"/>
      <point x="42" y="422" type="curve" smooth="yes"/>
      <point x="42" y="380"/>
      <point x="76" y="344"/>
      <point x="121" y="344" type="curve" smooth="yes"/>
      <point x="164" y="344"/>
      <point x="199" y="380"/>
      <point x="199" y="422" type="curve" smooth="yes"/>
      <point x="199" y="466"/>
      <point x="164" y="501"/>
      <point x="121" y="501" type="curve" smooth="yes"/>
    </contour>
  </outline>
</glyph>
<glyph name="sterling" format="1">
  <advance width="556"/>
  <unicode hex="00A3"/>
  <outline>
    <contour>
      <point x="199" y="705"/>
      <point x="130" y="622"/>
      <point x="130" y="510" type="curve"/>
      <point x="130" y="217" type="line"/>
      <point x="130" y="143"/>
      <point x="119" y="114"/>
      <point x="47" y="90" type="curve"/>
      <point x="47" y="0" type="line"/>
      <point x="494" y="0" type="line"/>
      <point x="508" y="95" type="line"/>
      <point x="186" y="95" type="line"/>
      <point x="236" y="123"/>
      <point x="248" y="159"/>
      <point x="248" y="220" type="curve"/>
      <point x="248" y="510" type="line"/>
      <point x="248" y="576"/>
      <point x="280" y="612"/>
      <point x="342" y="612" type="curve" smooth="yes"/>
      <point x="390" y="612"/>
      <point x="421" y="596"/>
      <point x="450" y="559" type="curve"/>
      <point x="526" y="615" type="line"/>
      <point x="478" y="676"/>
      <point x="417" y="705"/>
      <point x="333" y="705" type="curve" smooth="yes"/>
    </contour>
    <contour>
      <point x="63" y="396" type="line"/>
      <point x="63" y="327" type="line"/>
      <point x="454" y="327" type="line"/>
      <point x="454" y="396" type="line"/>
    </contour>
  </outline>
</glyph>
<glyph name="yen" format="1">
  <advance width="556"/>
  <unicode hex="00A5"/>
  <outline>
    <contour>
      <point x="438" y="691" type="line"/>
      <point x="281" y="383" type="line"/>
      <point x="123" y="691" type="line"/>
      <point x="-7" y="691" type="line"/>
      <point x="218" y="296" type="line"/>
      <point x="218" y="0" type="line"/>
      <point x="339" y="0" type="line"/>
      <point x="339" y="297" type="line"/>
      <point x="563" y="691" type="line"/>
    </contour>
    <contour>
      <point x="82" y="196" type="line"/>
      <point x="82" y="126" type="line"/>
      <point x="475" y="126" type="line"/>
      <point x="475" y="196" type="line"/>
    </contour>
    <contour>
      <point x="82" y="349" type="line"/>
      <point x="82" y="278" type="line"/>
      <point x="475" y="278" type="line"/>
      <point x="475" y="349" type="line"/>
    </contour>
  </outline>
</glyph>
<glyph name="brokenbar" format="1">
  <advance width="392"/>
  <unicode hex="00A6"/>
  <outline>
    <contour>
      <point x="141" y="808" type="line"/>
      <point x="141" y="443" type="line"/>
      <point x="251" y="443" type="line"/>
      <point x="251" y="808" type="line"/>
    </contour>
    <contour>
      <point x="141" y="262" type="line"/>
      <point x="141" y="-103" type="line"/>
      <point x="251" y="-103" type="line"/>
      <point x="251" y="262" type="line"/>
    </contour>
  </outline>
</glyph>
<glyph name="section" format="1">
  <advance width="556"/>
  <unicode hex="00A7"/>
  <outline>
    <contour>
      <point x="174" y="706"/>
      <point x="90" y="647"/>
      <point x="90" y="550" type="curve" smooth="yes"/>
      <point x="90" y="460"/>
      <point x="145" y="422"/>
      <point x="272" y="381" type="curve" smooth="yes"/>
      <point x="360" y="353"/>
      <point x="381" y="335"/>
      <point x="381" y="294" type="curve" smooth="yes"/>
      <point x="381" y="268"/>
      <point x="363" y="237"/>
      <point x="335" y="213" type="curve"/>
      <point x="401" y="181" type="line"/>
      <point x="450" y="209"/>
      <point x="490" y="252"/>
      <point x="490" y="308" type="curve" smooth="yes"/>
      <point x="490" y="390"/>
      <point x="437" y="427"/>
      <point x="330" y="459" type="curve" smooth="yes"/>
      <point x="224" y="491"/>
      <point x="206" y="510"/>
      <point x="206" y="557" type="curve" smooth="yes"/>
      <point x="206" y="597"/>
      <point x="239" y="619"/>
      <point x="297" y="619" type="curve" smooth="yes"/>
      <point x="352" y="619"/>
      <point x="394" y="606"/>
      <point x="436" y="579" type="curve"/>
      <point x="479" y="651" type="line"/>
      <point x="432" y="684"/>
      <point x="372" y="706"/>
      <point x="294" y="706" type="curve" smooth="yes"/>
    </contour>
    <contour>
      <point x="107" y="423"/>
      <point x="65" y="376"/>
      <point x="65" y="317" type="curve" smooth="yes"/>
      <point x="65" y="235"/>
      <point x="118" y="198"/>
      <point x="223" y="167" type="curve" smooth="yes"/>
      <point x="332" y="135"/>
      <point x="351" y="120"/>
      <point x="351" y="73" type="curve" smooth="yes"/>
      <point x="351" y="32"/>
      <point x="313" y="12"/>
      <point x="254" y="12" type="curve" smooth="yes"/>
      <point x="199" y="12"/>
      <point x="156" y="25"/>
      <point x="114" y="52" type="curve"/>
      <point x="73" y="-24" type="line"/>
      <point x="117" y="-55"/>
      <point x="177" y="-76"/>
      <point x="256" y="-76" type="curve" smooth="yes"/>
      <point x="384" y="-76"/>
      <point x="468" y="-17"/>
      <point x="468" y="81" type="curve" smooth="yes"/>
      <point x="468" y="170"/>
      <point x="408" y="204"/>
      <point x="268" y="249" type="curve" smooth="yes"/>
      <point x="194" y="273"/>
      <point x="175" y="291"/>
      <point x="175" y="333" type="curve" smooth="yes"/>
      <point x="175" y="359"/>
      <point x="190" y="391"/>
      <point x="219" y="416" type="curve"/>
      <point x="156" y="449" type="line"/>
    </contour>
  </outline>
</glyph>
<glyph name="dieresis" format="1">
  <advance width="415"/>
  <unicode hex="00A8"/>
  <outline>
    <contour>
      <point x="280" y="781"/>
      <point x="250" y="752"/>
      <point x="250" y="715" type="curve" smooth="yes"/>
      <point x="250" y="678"/>
      <point x="280" y="648"/>
      <point x="317" y="648" type="curve" smooth="yes"/>
      <point x="355" y="648"/>
      <point x="385" y="678"/>
      <point x="385" y="715" type="curve" smooth="yes"/>
      <point x="385" y="752"/>
      <point x="355" y="781"/>
      <point x="317" y="781" type="curve" smooth="yes"/>
    </contour>
    <contour>
      <point x="60" y="781"/>
      <point x="31" y="752"/>
      <point x="31" y="715" type="curve" smooth="yes"/>
      <point x="31" y="678"/>
      <point x="60" y="648"/>
      <point x="98" y="648" type="curve" smooth="yes"/>
      <point x="136" y="648"/>
      <point x="165" y="678"/>
      <point x="165" y="715" type="curve" smooth="yes"/>
      <point x="165" y="752"/>
      <point x="136" y="781"/>
      <point x="98" y="781" type="curve" smooth="yes"/>
    </contour>
    <contour>
      <point x="208" y="529" type="move" name="_top"/>
    </contour>
    <contour>
      <point x="207" y="694" type="move" name="top"/>
    </contour>
  </outline>
</glyph>
<glyph name="copyright" format="1">
  <advance width="810"/>
  <unicode hex="00A9"/>
  <outline>
    <contour>
      <point x="226" y="756"/>
      <point x="81" y="612"/>
      <point x="81" y="433" type="curve" smooth="yes"/>
      <point x="81" y="255"/>
      <point x="226" y="112"/>
      <point x="406" y="112" type="curve" smooth="yes"/>
      <point x="585" y="112"/>
      <point x="729" y="255"/>
      <point x="729" y="433" type="curve" smooth="yes"/>
      <point x="729" y="612"/>
      <point x="585" y="756"/>
      <point x="406" y="756" type="curve" smooth="yes"/>
    </contour>
    <contour>
      <point x="314" y="627"/>
      <point x="239" y="558"/>
      <point x="239" y="434" type="curve" smooth="yes"/>
      <point x="239" y="309"/>
      <point x="308" y="241"/>
      <point x="409" y="241" type="curve" smooth="yes"/>
      <point x="463" y="241"/>
      <point x="503" y="262"/>
      <point x="534" y="290" type="curve"/>
      <point x="497" y="345" type="line"/>
      <point x="472" y="326"/>
      <point x="448" y="315"/>
      <point x="414" y="315" type="curve" smooth="yes"/>
      <point x="365" y="315"/>
      <point x="331" y="351"/>
      <point x="331" y="434" type="curve" smooth="yes"/>
      <point x="331" y="522"/>
      <point x="368" y="556"/>
      <point x="415" y="556" type="curve" smooth="yes"/>
      <point x="442" y="556"/>
      <point x="465" y="548"/>
      <point x="489" y="528" type="curve"/>
      <point x="531" y="583" type="line"/>
      <point x="497" y="611"/>
      <point x="459" y="627"/>
      <point x="408" y="627" type="curve" smooth="yes"/>
    </contour>
    <contour>
      <point x="549" y="692"/>
      <point x="655" y="577"/>
      <point x="655" y="433" type="curve" smooth="yes"/>
      <point x="655" y="290"/>
      <point x="549" y="176"/>
      <point x="406" y="176" type="curve" smooth="yes"/>
      <point x="262" y="176"/>
      <point x="156" y="290"/>
      <point x="156" y="433" type="curve" smooth="yes"/>
      <point x="156" y="577"/>
      <point x="262" y="692"/>
      <point x="406" y="692" type="curve" smooth="yes"/>
    </contour>
  </outline>
</glyph>
<glyph name="ordfeminine" format="1">
  <advance width="500"/>
  <unicode hex="00AA"/>
  <outline>
    <contour>
      <point x="196" y="691"/>
      <point x="141" y="681"/>
      <point x="87" y="662" type="curve"/>
      <point x="114" y="587" type="line"/>
      <point x="156" y="601"/>
      <point x="197" y="608"/>
      <point x="226" y="608" type="curve" smooth="yes"/>
      <point x="279" y="608"/>
      <point x="302" y="593"/>
      <point x="302" y="545" type="curve"/>
      <point x="302" y="379" type="line"/>
      <point x="316" y="341" type="line"/>
      <point x="333" y="293"/>
      <point x="366" y="274"/>
      <point x="419" y="270" type="curve"/>
      <point x="442" y="344" type="line"/>
      <point x="422" y="351"/>
      <point x="412" y="362"/>
      <point x="412" y="393" type="curve" smooth="yes"/>
      <point x="412" y="551" type="line" smooth="yes"/>
      <point x="412" y="642"/>
      <point x="361" y="691"/>
      <point x="243" y="691" type="curve" smooth="yes"/>
    </contour>
    <contour>
      <point x="253" y="526" type="line"/>
      <point x="127" y="526"/>
      <point x="57" y="479"/>
      <point x="57" y="392" type="curve" smooth="yes"/>
      <point x="57" y="319"/>
      <point x="110" y="268"/>
      <point x="195" y="268" type="curve" smooth="yes"/>
      <point x="249" y="268"/>
      <point x="300" y="288"/>
      <point x="329" y="338" type="curve"/>
      <point x="309" y="402" type="line"/>
      <point x="292" y="369"/>
      <point x="265" y="349"/>
      <point x="227" y="349" type="curve" smooth="yes"/>
      <point x="192" y="349"/>
      <point x="172" y="367"/>
      <point x="172" y="400" type="curve" smooth="yes"/>
      <point x="172" y="443"/>
      <point x="203" y="463"/>
      <point x="264" y="463" type="curve" smooth="yes"/>
      <point x="317" y="463" type="line"/>
      <point x="317" y="526" type="line"/>
    </contour>
    <contour>
      <point x="453" y="0" type="line"/>
      <point x="453" y="96" type="line"/>
      <point x="63" y="96" type="line"/>
      <point x="63" y="0" type="line"/>
    </contour>
  </outline>
</glyph>
<glyph name="registered" format="1">
  <advance width="639"/>
  <unicode hex="00AE"/>
  <outline>
    <contour>
      <point x="171" y="754"/>
      <point x="57" y="637"/>
      <point x="57" y="489" type="curve" smooth="yes"/>
      <point x="57" y="342"/>
      <point x="171" y="227"/>
      <point x="319" y="227" type="curve" smooth="yes"/>
      <point x="469" y="227"/>
      <point x="582" y="342"/>
      <point x="582" y="489" type="curve" smooth="yes"/>
      <point x="582" y="637"/>
      <point x="469" y="754"/>
      <point x="319" y="754" type="curve" smooth="yes"/>
    </contour>
    <contour>
      <point x="302" y="472" type="line"/>
      <point x="368" y="356" type="line"/>
      <point x="441" y="356" type="line"/>
      <point x="360" y="484" type="line"/>
    </contour>
    <contour>
      <point x="436" y="697"/>
      <point x="517" y="605"/>
      <point x="517" y="489" type="curve" smooth="yes"/>
      <point x="517" y="373"/>
      <point x="436" y="284"/>
      <point x="319" y="284" type="curve" smooth="yes"/>
      <point x="205" y="284"/>
      <point x="122" y="373"/>
      <point x="122" y="489" type="curve" smooth="yes"/>
      <point x="122" y="605"/>
      <point x="205" y="697"/>
      <point x="319" y="697" type="curve" smooth="yes"/>
    </contour>
    <contour>
      <point x="222" y="634" type="line"/>
      <point x="222" y="356" type="line"/>
      <point x="286" y="356" type="line"/>
      <point x="286" y="587" type="line"/>
      <point x="314" y="587" type="line" smooth="yes"/>
      <point x="348" y="587"/>
      <point x="365" y="575"/>
      <point x="365" y="550" type="curve" smooth="yes"/>
      <point x="365" y="522"/>
      <point x="345" y="510"/>
      <point x="315" y="510" type="curve" smooth="yes"/>
      <point x="273" y="510" type="line"/>
      <point x="273" y="461" type="line"/>
      <point x="322" y="461" type="line"/>
      <point x="353" y="468" type="line"/>
      <point x="396" y="477"/>
      <point x="430" y="505"/>
      <point x="430" y="549" type="curve" smooth="yes"/>
      <point x="430" y="606"/>
      <point x="388" y="634"/>
      <point x="303" y="634" type="curve" smooth="yes"/>
    </contour>
  </outline>
</glyph>
<glyph name="macron" format="1">
  <advance width="347"/>
  <unicode hex="00AF"/>
  <outline>
    <contour>
      <point x="317" y="748" type="line"/>
      <point x="30" y="748" type="line"/>
      <point x="30" y="662" type="line"/>
      <point x="317" y="662" type="line"/>
    </contour>
    <contour>
      <point x="174" y="529" type="move" name="_top"/>
    </contour>
  </outline>
</glyph>
<glyph name="acute" format="1">
  <advance width="317"/>
  <unicode hex="00B4"/>
  <outline>
    <contour>
      <point x="30" y="694" type="line"/>
      <point x="65" y="631" type="line"/>
      <point x="287" y="721" type="line"/>
      <point x="237" y="816" type="line"/>
    </contour>
    <contour>
      <point x="168" y="529" type="move" name="_top"/>
    </contour>
  </outline>
</glyph>
<glyph name="paragraph" format="1">
  <advance width="757"/>
  <unicode hex="00B6"/>
  <outline>
    <contour>
      <point x="335" y="690" type="line"/>
      <point x="310" y="647" type="line"/>
      <point x="310" y="-218" type="line"/>
      <point x="416" y="-203" type="line"/>
      <point x="416" y="601" type="line"/>
      <point x="521" y="601" type="line"/>
      <point x="521" y="-218" type="line"/>
      <point x="627" y="-203" type="line"/>
      <point x="627" y="691" type="line"/>
    </contour>
    <contour>
      <point x="175" y="692"/>
      <point x="79" y="614"/>
      <point x="79" y="482" type="curve" smooth="yes"/>
      <point x="79" y="361"/>
      <point x="158" y="272"/>
      <point x="332" y="274" type="curve"/>
      <point x="335" y="690" type="line"/>
    </contour>
  </outline>
</glyph>
<glyph name="cedilla" format="1">
  <advance width="295"/>
  <unicode hex="00B8"/>
  <outline>
    <contour>
      <point x="96" y="16" type="line"/>
      <point x="81" y="-105" type="line"/>
      <point x="146" y="-105"/>
      <point x="172" y="-117"/>
      <point x="172" y="-143" type="curve" smooth="yes"/>
      <point x="172" y="-169"/>
      <point x="151" y="-179"/>
      <point x="123" y="-179" type="curve" smooth="yes"/>
      <point x="98" y="-179"/>
      <point x="79" y="-173"/>
      <point x="60" y="-162" type="curve"/>
      <point x="30" y="-223" type="line"/>
      <point x="52" y="-239"/>
      <point x="88" y="-250"/>
      <point x="130" y="-250" type="curve" smooth="yes"/>
      <point x="208" y="-250"/>
      <point x="265" y="-210"/>
      <point x="265" y="-144" type="curve" smooth="yes"/>
      <point x="265" y="-97"/>
      <point x="236" y="-59"/>
      <point x="167" y="-53" type="curve"/>
      <point x="167" y="16" type="line"/>
    </contour>
    <contour>
      <point x="135" y="0" type="move" name="_bottom"/>
    </contour>
  </outline>
</glyph>
<glyph name="ordmasculine" format="1">
  <advance width="500"/>
  <unicode hex="00BA"/>
  <outline>
    <contour>
      <point x="124" y="691"/>
      <point x="48" y="607"/>
      <point x="48" y="480" type="curve" smooth="yes"/>
      <point x="48" y="347"/>
      <point x="124" y="268"/>
      <point x="250" y="268" type="curve" smooth="yes"/>
      <point x="377" y="268"/>
      <point x="452" y="353"/>
      <point x="452" y="479" type="curve" smooth="yes"/>
      <point x="452" y="612"/>
      <point x="377" y="691"/>
      <point x="251" y="691" type="curve" smooth="yes"/>
    </contour>
    <contour>
      <point x="307" y="608"/>
      <point x="336" y="570"/>
      <point x="336" y="479" type="curve" smooth="yes"/>
      <point x="336" y="391"/>
      <point x="307" y="351"/>
      <point x="250" y="351" type="curve" smooth="yes"/>
      <point x="194" y="351"/>
      <point x="164" y="390"/>
      <point x="164" y="480" type="curve" smooth="yes"/>
      <point x="164" y="568"/>
      <point x="194" y="608"/>
      <point x="251" y="608" type="curve" smooth="yes"/>
    </contour>
    <contour>
      <point x="448" y="0" type="line"/>
      <point x="448" y="96" type="line"/>
      <point x="52" y="96" type="line"/>
      <point x="52" y="0" type="line"/>
    </contour>
  </outline>
</glyph>
<glyph name="questiondown" format="1">
  <advance width="469"/>
  <unicode hex="00BF"/>
  <outline>
    <contour>
      <point x="318" y="-218"/>
      <point x="388" y="-182"/>
      <point x="445" y="-116" type="curve"/>
      <point x="366" y="-54" type="line"/>
      <point x="327" y="-100"/>
      <point x="283" y="-122"/>
      <point x="237" y="-122" type="curve" smooth="yes"/>
      <point x="182" y="-122"/>
      <point x="149" y="-95"/>
      <point x="149" y="-48" type="curve" smooth="yes"/>
      <point x="149" y="49"/>
      <point x="317" y="34"/>
      <point x="317" y="201" type="curve" smooth="yes"/>
      <point x="317" y="242" type="line"/>
      <point x="204" y="242" type="line"/>
      <point x="204" y="206" type="line" smooth="yes"/>
      <point x="204" y="87"/>
      <point x="23" y="104"/>
      <point x="23" y="-57" type="curve" smooth="yes"/>
      <point x="23" y="-141"/>
      <point x="92" y="-218"/>
      <point x="226" y="-218" type="curve" smooth="yes"/>
    </contour>
    <contour>
      <point x="302" y="344"/>
      <point x="336" y="380"/>
      <point x="336" y="422" type="curve" smooth="yes"/>
      <point x="336" y="466"/>
      <point x="302" y="501"/>
      <point x="258" y="501" type="curve" smooth="yes"/>
      <point x="214" y="501"/>
      <point x="180" y="466"/>
      <point x="180" y="422" type="curve" smooth="yes"/>
      <point x="180" y="380"/>
      <point x="214" y="344"/>
      <point x="258" y="344" type="curve" smooth="yes"/>
    </contour>
  </outline>
</glyph>
<glyph name="AE" format="1">
  <advance width="828"/>
  <unicode hex="00C6"/>
  <outline>
    <contour>
      <point x="256" y="691" type="line"/>
      <point x="-17" y="0" type="line"/>
      <point x="114" y="0" type="line"/>
      <point x="328" y="596" type="line"/>
      <point x="452" y="0" type="line"/>
      <point x="783" y="0" type="line"/>
      <point x="783" y="94" type="line"/>
      <point x="555" y="94" type="line"/>
      <point x="438" y="597" type="line"/>
      <point x="730" y="597" type="line"/>
      <point x="744" y="691" type="line"/>
    </contour>
    <contour>
      <point x="189" y="258" type="line"/>
      <point x="156" y="163" type="line"/>
      <point x="433" y="163" type="line"/>
      <point x="415" y="258" type="line"/>
    </contour>
    <contour>
      <point x="469" y="396" type="line"/>
      <point x="490" y="303" type="line"/>
      <point x="735" y="303" type="line"/>
      <point x="735" y="396" type="line"/>
    </contour>
    <contour>
      <point x="478" y="691" type="move" name="top"/>
    </contour>
  </outline>
</glyph>
<glyph name="Eth" format="1">
  <advance width="660"/>
  <unicode hex="00D0"/>
  <outline>
    <contour>
      <point x="98" y="394" type="line"/>
      <point x="17" y="394" type="line"/>
      <point x="17" y="312" type="line"/>
      <point x="370" y="312" type="line"/>
      <point x="370" y="394" type="line"/>
    </contour>
    <contour>
      <point x="98" y="691" type="line"/>
      <point x="98" y="0" type="line"/>
      <point x="281" y="0" type="line" smooth="yes"/>
      <point x="442" y="0"/>
      <point x="614" y="69"/>
      <point x="614" y="349" type="curve" smooth="yes"/>
      <point x="614" y="635"/>
      <point x="443" y="691"/>
      <point x="263" y="691" type="curve" smooth="yes"/>
    </contour>
    <contour>
      <point x="389" y="597"/>
      <point x="484" y="562"/>
      <point x="484" y="349" type="curve" smooth="yes"/>
      <point x="484" y="140"/>
      <point x="394" y="93"/>
      <point x="290" y="93" type="curve" smooth="yes"/>
      <point x="222" y="93" type="line"/>
      <point x="222" y="597" type="line"/>
      <point x="285" y="597" type="line" smooth="yes"/>
    </contour>
  </outline>
</glyph>
<glyph name="Oslash" format="1">
  <advance width="691"/>
  <unicode hex="00D8"/>
  <outline>
    <contour>
      <point x="164" y="705"/>
      <point x="46" y="571"/>
      <point x="46" y="345" type="curve" smooth="yes"/>
      <point x="46" y="114"/>
      <point x="164" y="-14"/>
      <point x="346" y="-14" type="curve" smooth="yes"/>
      <point x="528" y="-14"/>
      <point x="646" y="118"/>
      <point x="646" y="345" type="curve" smooth="yes"/>
      <point x="646" y="577"/>
      <point x="528" y="705"/>
      <point x="346" y="705" type="curve" smooth="yes"/>
    </contour>
    <contour>
      <point x="453" y="609"/>
      <point x="515" y="549"/>
      <point x="515" y="345" type="curve" smooth="yes"/>
      <point x="515" y="156"/>
      <point x="452" y="82"/>
      <point x="346" y="82" type="curve" smooth="yes"/>
      <point x="243" y="82"/>
      <point x="177" y="140"/>
      <point x="177" y="345" type="curve" smooth="yes"/>
      <point x="177" y="534"/>
      <point x="241" y="609"/>
      <point x="346" y="609" type="curve" smooth="yes"/>
    </contour>
    <contour>
      <point x="403" y="694" type="line"/>
      <point x="389" y="611" type="line"/>
      <point x="238" y="111" type="line"/>
      <point x="195" y="32" type="line"/>
      <point x="153" y="-104" type="line"/>
      <point x="251" y="-130" type="line"/>
      <point x="288" y="-3" type="line"/>
      <point x="302" y="79" type="line"/>
      <point x="453" y="582" type="line"/>
      <point x="495" y="659" type="line"/>
      <point x="539" y="797" type="line"/>
      <point x="442" y="823" type="line"/>
    </contour>
    <contour>
      <point x="342" y="714" type="move" name="top"/>
    </contour>
  </outline>
</glyph>
<glyph name="Thorn" format="1">
  <advance width="589"/>
  <unicode hex="00DE"/>
  <outline>
    <contour>
      <point x="197" y="577" type="line"/>
      <point x="209" y="485" type="line"/>
      <point x="283" y="485" type="line" smooth="yes"/>
      <point x="376" y="485"/>
      <point x="432" y="448"/>
      <point x="432" y="354" type="curve" smooth="yes"/>
      <point x="432" y="245"/>
      <point x="373" y="215"/>
      <point x="283" y="215" type="curve" smooth="yes"/>
      <point x="193" y="215" type="line"/>
      <point x="193" y="121" type="line"/>
      <point x="291" y="121" type="line" smooth="yes"/>
      <point x="447" y="121"/>
      <point x="561" y="191"/>
      <point x="561" y="355" type="curve" smooth="yes"/>
      <point x="561" y="506"/>
      <point x="456" y="577"/>
      <point x="284" y="577" type="curve" smooth="yes"/>
    </contour>
    <contour>
      <point x="85" y="691" type="line"/>
      <point x="85" y="0" type="line"/>
      <point x="209" y="0" type="line"/>
      <point x="209" y="691" type="line"/>
    </contour>
  </outline>
</glyph>
<glyph name="germandbls" format="1">
  <advance width="599"/>
  <unicode hex="00DF"/>
  <outline>
    <contour>
      <point x="158" y="754"/>
      <point x="81" y="673"/>
      <point x="81" y="537" type="curve" smooth="yes"/>
      <point x="81" y="0" type="line"/>
      <point x="201" y="0" type="line"/>
      <point x="201" y="538" type="line" smooth="yes"/>
      <point x="201" y="624"/>
      <point x="234" y="665"/>
      <point x="295" y="665" type="curve" smooth="yes"/>
      <point x="340" y="665"/>
      <point x="374" y="641"/>
      <point x="374" y="597" type="curve" smooth="yes"/>
      <point x="374" y="510"/>
      <point x="274" y="514"/>
      <point x="274" y="414" type="curve" smooth="yes"/>
      <point x="274" y="288"/>
      <point x="444" y="288"/>
      <point x="444" y="165" type="curve" smooth="yes"/>
      <point x="444" y="108"/>
      <point x="412" y="80"/>
      <point x="366" y="80" type="curve" smooth="yes"/>
      <point x="338" y="80"/>
      <point x="320" y="85"/>
      <point x="306" y="93" type="curve"/>
      <point x="271" y="10" type="line"/>
      <point x="299" y="-4"/>
      <point x="333" y="-14"/>
      <point x="380" y="-14" type="curve" smooth="yes"/>
      <point x="481" y="-14"/>
      <point x="568" y="53"/>
      <point x="568" y="164" type="curve" smooth="yes"/>
      <point x="568" y="338"/>
      <point x="382" y="349"/>
      <point x="382" y="429" type="curve" smooth="yes"/>
      <point x="382" y="492"/>
      <point x="488" y="503"/>
      <point x="488" y="606" type="curve" smooth="yes"/>
      <point x="488" y="688"/>
      <point x="418" y="754"/>
      <point x="297" y="754" type="curve" smooth="yes"/>
    </contour>
  </outline>
</glyph>
<glyph name="ae" format="1">
  <advance width="855"/>
  <unicode hex="00E6"/>
  <outline>
    <contour>
      <point x="440" y="543"/>
      <point x="379" y="420"/>
      <point x="350" y="262" type="curve"/>
      <point x="351" y="247" type="line" smooth="yes"/>
      <point x="353" y="90"/>
      <point x="442" y="-14"/>
      <point x="597" y="-14" type="curve" smooth="yes"/>
      <point x="676" y="-14"/>
      <point x="739" y="14"/>
      <point x="791" y="55" type="curve"/>
      <point x="740" y="124" type="line"/>
      <point x="694" y="92"/>
      <point x="656" y="78"/>
      <point x="608" y="78" type="curve" smooth="yes"/>
      <point x="528" y="78"/>
      <point x="473" y="124"/>
      <point x="473" y="264" type="curve" smooth="yes"/>
      <point x="473" y="403"/>
      <point x="514" y="456"/>
      <point x="584" y="456" type="curve" smooth="yes"/>
      <point x="658" y="456"/>
      <point x="691" y="402"/>
      <point x="692" y="312" type="curve" smooth="yes"/>
      <point x="692" y="310"/>
      <point x="692" y="308"/>
      <point x="692" y="306" type="curve"/>
      <point x="458" y="306" type="line"/>
      <point x="459" y="226" type="line"/>
      <point x="808" y="226" type="line"/>
      <point x="809" y="240"/>
      <point x="810" y="260"/>
      <point x="810" y="278" type="curve" smooth="yes"/>
      <point x="810" y="443"/>
      <point x="727" y="543"/>
      <point x="586" y="543" type="curve" smooth="yes"/>
    </contour>
    <contour>
      <point x="280" y="324" type="line"/>
      <point x="126" y="324"/>
      <point x="37" y="262"/>
      <point x="37" y="148" type="curve" smooth="yes"/>
      <point x="37" y="52"/>
      <point x="103" y="-14"/>
      <point x="210" y="-14" type="curve" smooth="yes"/>
      <point x="293" y="-14"/>
      <point x="356" y="13"/>
      <point x="406" y="91" type="curve"/>
      <point x="370" y="163" type="line"/>
      <point x="334" y="103"/>
      <point x="296" y="73"/>
      <point x="244" y="73" type="curve" smooth="yes"/>
      <point x="193" y="73"/>
      <point x="166" y="103"/>
      <point x="166" y="155" type="curve" smooth="yes"/>
      <point x="166" y="220"/>
      <point x="209" y="251"/>
      <point x="294" y="251" type="curve" smooth="yes"/>
      <point x="368" y="251" type="line"/>
      <point x="368" y="324" type="line"/>
    </contour>
    <contour>
      <point x="210" y="543"/>
      <point x="145" y="530"/>
      <point x="79" y="505" type="curve"/>
      <point x="108" y="422" type="line"/>
      <point x="161" y="440"/>
      <point x="212" y="450"/>
      <point x="249" y="450" type="curve" smooth="yes"/>
      <point x="318" y="450"/>
      <point x="350" y="426"/>
      <point x="350" y="356" type="curve"/>
      <point x="350" y="262" type="line"/>
      <point x="470" y="262" type="line"/>
      <point x="465" y="362" type="line"/>
      <point x="447" y="465"/>
      <point x="403" y="543"/>
      <point x="269" y="543" type="curve" smooth="yes"/>
    </contour>
    <contour>
      <point x="424" y="529" type="move" name="top"/>
    </contour>
  </outline>
</glyph>
<glyph name="eth" format="1">
  <advance width="574"/>
  <unicode hex="00F0"/>
  <outline>
    <contour>
      <point x="99" y="669" type="line"/>
      <point x="146" y="660"/>
      <point x="189" y="648"/>
      <point x="243" y="622" type="curve"/>
      <point x="334" y="563"/>
      <point x="375" y="498"/>
      <point x="394" y="407" type="curve"/>
      <point x="398" y="346" type="line"/>
      <point x="399" y="318"/>
      <point x="400" y="292"/>
      <point x="400" y="262" type="curve" smooth="yes"/>
      <point x="400" y="139"/>
      <point x="355" y="77"/>
      <point x="280" y="77" type="curve" smooth="yes"/>
      <point x="213" y="77"/>
      <point x="169" y="129"/>
      <point x="169" y="238" type="curve" smooth="yes"/>
      <point x="169" y="323"/>
      <point x="195" y="388"/>
      <point x="276" y="388" type="curve" smooth="yes"/>
      <point x="335" y="388"/>
      <point x="377" y="362"/>
      <point x="408" y="312" type="curve"/>
      <point x="401" y="408" type="line"/>
      <point x="364" y="451"/>
      <point x="318" y="477"/>
      <point x="250" y="477" type="curve" smooth="yes"/>
      <point x="120" y="477"/>
      <point x="46" y="360"/>
      <point x="46" y="234" type="curve" smooth="yes"/>
      <point x="46" y="76"/>
      <point x="149" y="-14"/>
      <point x="280" y="-14" type="curve" smooth="yes"/>
      <point x="429" y="-14"/>
      <point x="522" y="104"/>
      <point x="522" y="270" type="curve" smooth="yes"/>
      <point x="522" y="462"/>
      <point x="469" y="595"/>
      <point x="307" y="694" type="curve"/>
      <point x="240" y="726"/>
      <point x="187" y="742"/>
      <point x="124" y="753" type="curve"/>
    </contour>
    <contour>
      <point x="260" y="698" type="line"/>
      <point x="214" y="651" type="line"/>
      <point x="136" y="572" type="line"/>
      <point x="215" y="534" type="line"/>
      <point x="292" y="609" type="line"/>
      <point x="340" y="658" type="line"/>
      <point x="408" y="728" type="line"/>
      <point x="343" y="785" type="line"/>
    </contour>
  </outline>
</glyph>
<glyph name="oslash" format="1">
  <advance width="584"/>
  <unicode hex="00F8"/>
  <outline>
    <contour>
      <point x="137" y="543"/>
      <point x="46" y="430"/>
      <point x="46" y="264" type="curve" smooth="yes"/>
      <point x="46" y="92"/>
      <point x="137" y="-14"/>
      <point x="292" y="-14" type="curve" smooth="yes"/>
      <point x="447" y="-14"/>
      <point x="538" y="99"/>
      <point x="538" y="265" type="curve" smooth="yes"/>
      <point x="538" y="437"/>
      <point x="447" y="543"/>
      <point x="293" y="543" type="curve" smooth="yes"/>
    </contour>
    <contour>
      <point x="370" y="451"/>
      <point x="414" y="416"/>
      <point x="414" y="265" type="curve" smooth="yes"/>
      <point x="414" y="136"/>
      <point x="370" y="78"/>
      <point x="292" y="78" type="curve" smooth="yes"/>
      <point x="214" y="78"/>
      <point x="170" y="113"/>
      <point x="170" y="264" type="curve" smooth="yes"/>
      <point x="170" y="393"/>
      <point x="215" y="451"/>
      <point x="293" y="451" type="curve" smooth="yes"/>
    </contour>
    <contour>
      <point x="336" y="539" type="line"/>
      <point x="322" y="456" type="line"/>
      <point x="205" y="103" type="line"/>
      <point x="162" y="28" type="line"/>
      <point x="118" y="-105" type="line"/>
      <point x="210" y="-132" type="line"/>
      <point x="249" y="-8" type="line"/>
      <point x="262" y="69" type="line"/>
      <point x="379" y="421" type="line"/>
      <point x="426" y="508" type="line"/>
      <point x="467" y="633" type="line"/>
      <point x="375" y="660" type="line"/>
    </contour>
    <contour>
      <point x="292" y="529" type="move" name="top"/>
    </contour>
  </outline>
</glyph>
<glyph name="thorn" format="1">
  <advance width="595"/>
  <unicode hex="00FE"/>
  <outline>
    <contour>
      <point x="285" y="543"/>
      <point x="223" y="513"/>
      <point x="182" y="443" type="curve"/>
      <point x="192" y="363" type="line"/>
      <point x="218" y="410"/>
      <point x="259" y="452"/>
      <point x="312" y="452" type="curve" smooth="yes"/>
      <point x="381" y="452"/>
      <point x="417" y="399"/>
      <point x="417" y="265" type="curve" smooth="yes"/>
      <point x="417" y="134"/>
      <point x="375" y="78"/>
      <point x="302" y="78" type="curve" smooth="yes"/>
      <point x="255" y="78"/>
      <point x="217" y="104"/>
      <point x="191" y="152" type="curve"/>
      <point x="191" y="57" type="line"/>
      <point x="224" y="9"/>
      <point x="274" y="-14"/>
      <point x="335" y="-14" type="curve" smooth="yes"/>
      <point x="469" y="-14"/>
      <point x="544" y="104"/>
      <point x="544" y="265" type="curve" smooth="yes"/>
      <point x="544" y="434"/>
      <point x="487" y="543"/>
      <point x="347" y="543" type="curve" smooth="yes"/>
    </contour>
    <contour>
      <point x="81" y="740" type="line"/>
      <point x="81" y="-217" type="line"/>
      <point x="201" y="-200" type="line"/>
      <point x="201" y="754" type="line"/>
    </contour>
  </outline>
</glyph>
<glyph name="Hbar" format="1">
  <advance width="684"/>
  <unicode hex="0126"/>
  <outline>
    <contour>
      <point x="594" y="583" type="line"/>
      <point x="26" y="583" type="line"/>
      <point x="26" y="505" type="line"/>
      <point x="89" y="505" type="line"/>
      <point x="658" y="505" type="line"/>
      <point x="658" y="583" type="line"/>
    </contour>
    <contour>
      <point x="594" y="0" type="line"/>
      <point x="594" y="691" type="line"/>
      <point x="469" y="691" type="line"/>
      <point x="469" y="411" type="line"/>
      <point x="214" y="411" type="line"/>
      <point x="214" y="691" type="line"/>
      <point x="90" y="691" type="line"/>
      <point x="90" y="0" type="line"/>
      <point x="214" y="0" type="line"/>
      <point x="214" y="312" type="line"/>
      <point x="469" y="312" type="line"/>
      <point x="469" y="0" type="line"/>
    </contour>
  </outline>
</glyph>
<glyph name="hbar" format="1">
  <advance width="587"/>
  <unicode hex="0127"/>
  <outline>
    <contour>
      <point x="16" y="681" type="line"/>
      <point x="16" y="602" type="line"/>
      <point x="88" y="602" type="line"/>
      <point x="343" y="602" type="line"/>
      <point x="355" y="681" type="line"/>
    </contour>
    <contour>
      <point x="286" y="543"/>
      <point x="230" y="503"/>
      <point x="187" y="438" type="curve"/>
      <point x="205" y="370" type="line"/>
      <point x="237" y="420"/>
      <point x="273" y="452"/>
      <point x="321" y="452" type="curve" smooth="yes"/>
      <point x="363" y="452"/>
      <point x="391" y="432"/>
      <point x="391" y="363" type="curve" smooth="yes"/>
      <point x="391" y="0" type="line"/>
      <point x="511" y="0" type="line"/>
      <point x="511" y="382" type="line" smooth="yes"/>
      <point x="511" y="482"/>
      <point x="454" y="543"/>
      <point x="360" y="543" type="curve" smooth="yes"/>
    </contour>
    <contour>
      <point x="85" y="740" type="line"/>
      <point x="85" y="0" type="line"/>
      <point x="205" y="0" type="line"/>
      <point x="205" y="752" type="line"/>
    </contour>
  </outline>
</glyph>
<glyph name="dotlessi" format="1">
  <advance width="282"/>
  <unicode hex="0131"/>
  <outline>
    <contour>
      <point x="81" y="529" type="line"/>
      <point x="81" y="0" type="line"/>
      <point x="201" y="0" type="line"/>
      <point x="201" y="529" type="line"/>
    </contour>
    <contour>
      <point x="141" y="529" type="move" name="top"/>
    </contour>
    <contour>
      <point x="200" y="0" type="move" name="ogonek"/>
    </contour>
  </outline>
</glyph>
<glyph name="kgreenlandic" format="1">
  <advance width="527"/>
  <unicode hex="0138"/>
  <outline>
    <contour>
      <point x="385" y="529" type="line"/>
      <point x="204" y="279" type="line"/>
      <point x="392" y="0" type="line"/>
      <point x="531" y="0" type="line"/>
      <point x="332" y="286" type="line"/>
      <point x="512" y="529" type="line"/>
    </contour>
    <contour>
      <point x="81" y="529" type="line"/>
      <point x="81" y="0" type="line"/>
      <point x="201" y="0" type="line"/>
      <point x="201" y="529" type="line"/>
    </contour>
  </outline>
</glyph>
<glyph name="Lslash" format="1">
  <advance width="530"/>
  <unicode hex="0141"/>
  <outline>
    <contour>
      <point x="111" y="342" type="line"/>
      <point x="16" y="283" type="line"/>
      <point x="61" y="212" type="line"/>
      <point x="426" y="438" type="line"/>
      <point x="382" y="509" type="line"/>
    </contour>
    <contour>
      <point x="111" y="691" type="line"/>
      <point x="111" y="0" type="line"/>
      <point x="499" y="0" type="line"/>
      <point x="513" y="103" type="line"/>
      <point x="235" y="103" type="line"/>
      <point x="235" y="691" type="line"/>
    </contour>
  </outline>
</glyph>
<glyph name="lslash" format="1">
  <advance width="320"/>
  <unicode hex="0142"/>
  <outline>
    <contour>
      <point x="7" y="342" type="line"/>
      <point x="42" y="262" type="line"/>
      <point x="311" y="428" type="line"/>
      <point x="277" y="508" type="line"/>
    </contour>
    <contour>
      <point x="91" y="740" type="line"/>
      <point x="91" y="116" type="line" smooth="yes"/>
      <point x="91" y="31"/>
      <point x="135" y="-14"/>
      <point x="211" y="-14" type="curve" smooth="yes"/>
      <point x="242" y="-14"/>
      <point x="273" y="-8"/>
      <point x="299" y="4" type="curve"/>
      <point x="272" y="88" type="line"/>
      <point x="263" y="85"/>
      <point x="252" y="83"/>
      <point x="241" y="83" type="curve" smooth="yes"/>
      <point x="220" y="83"/>
      <point x="211" y="95"/>
      <point x="211" y="124" type="curve" smooth="yes"/>
      <point x="211" y="754" type="line"/>
    </contour>
  </outline>
</glyph>
<glyph name="Eng" format="1">
  <advance width="675"/>
  <unicode hex="014A"/>
  <outline>
    <contour>
      <point x="476" y="691" type="line"/>
      <point x="476" y="355" type="line" smooth="yes"/>
      <point x="476" y="260"/>
      <point x="488" y="158"/>
      <point x="494" y="128" type="curve"/>
      <point x="490" y="128" type="line"/>
      <point x="244" y="691" type="line"/>
      <point x="85" y="691" type="line"/>
      <point x="85" y="0" type="line"/>
      <point x="199" y="0" type="line"/>
      <point x="199" y="290" type="line" smooth="yes"/>
      <point x="199" y="418"/>
      <point x="188" y="504"/>
      <point x="180" y="561" type="curve"/>
      <point x="184" y="561" type="line"/>
      <point x="427" y="0" type="line"/>
      <point x="488" y="0" type="line"/>
      <point x="590" y="44" type="line"/>
      <point x="590" y="691" type="line"/>
    </contour>
    <contour>
      <point x="482" y="36" type="line"/>
      <point x="482" y="-75"/>
      <point x="445" y="-100"/>
      <point x="368" y="-135" type="curve"/>
      <point x="403" y="-216" type="line"/>
      <point x="520" y="-168"/>
      <point x="590" y="-115"/>
      <point x="590" y="44" type="curve"/>
    </contour>
  </outline>
</glyph>
<glyph name="eng" format="1">
  <advance width="582"/>
  <unicode hex="014B"/>
  <outline>
    <contour>
      <point x="281" y="543"/>
      <point x="224" y="503"/>
      <point x="183" y="440" type="curve"/>
      <point x="201" y="370" type="line"/>
      <point x="233" y="420"/>
      <point x="268" y="452"/>
      <point x="317" y="452" type="curve" smooth="yes"/>
      <point x="358" y="452"/>
      <point x="386" y="432"/>
      <point x="386" y="363" type="curve" smooth="yes"/>
      <point x="386" y="98" type="line"/>
      <point x="506" y="98" type="line"/>
      <point x="506" y="382" type="line" smooth="yes"/>
      <point x="506" y="482"/>
      <point x="450" y="543"/>
      <point x="356" y="543" type="curve" smooth="yes"/>
    </contour>
    <contour>
      <point x="81" y="529" type="line"/>
      <point x="81" y="0" type="line"/>
      <point x="201" y="0" type="line"/>
      <point x="201" y="408" type="line"/>
      <point x="185" y="529" type="line"/>
    </contour>
    <contour>
      <point x="386" y="107" type="line"/>
      <point x="386" y="36" type="line" smooth="yes"/>
      <point x="386" y="-70"/>
      <point x="350" y="-97"/>
      <point x="282" y="-129" type="curve"/>
      <point x="319" y="-216" type="line"/>
      <point x="437" y="-168"/>
      <point x="506" y="-115"/>
      <point x="506" y="44" type="curve" smooth="yes"/>
      <point x="506" y="107" type="line"/>
    </contour>
  </outline>
</glyph>
<glyph name="OE" format="1">
  <advance width="909"/>
  <unicode hex="0152"/>
  <outline>
    <contour>
      <point x="164" y="705"/>
      <point x="46" y="571"/>
      <point x="46" y="345" type="curve" smooth="yes"/>
      <point x="46" y="114"/>
      <point x="164" y="-14"/>
      <point x="331" y="-14" type="curve" smooth="yes"/>
      <point x="390" y="-14"/>
      <point x="446" y="5"/>
      <point x="482" y="45" type="curve"/>
      <point x="576" y="101"/>
      <point x="626" y="213"/>
      <point x="626" y="345" type="curve" smooth="yes"/>
      <point x="626" y="478"/>
      <point x="581" y="588"/>
      <point x="494" y="643" type="curve"/>
      <point x="453" y="685"/>
      <point x="395" y="705"/>
      <point x="331" y="705" type="curve" smooth="yes"/>
    </contour>
    <contour>
      <point x="520" y="94" type="line"/>
      <point x="411" y="0" type="line"/>
      <point x="854" y="0" type="line"/>
      <point x="854" y="94" type="line"/>
    </contour>
    <contour>
      <point x="573" y="397" type="line"/>
      <point x="573" y="305" type="line"/>
      <point x="803" y="305" type="line"/>
      <point x="803" y="397" type="line"/>
    </contour>
    <contour>
      <point x="412" y="691" type="line"/>
      <point x="530" y="597" type="line"/>
      <point x="836" y="597" type="line"/>
      <point x="850" y="691" type="line"/>
    </contour>
    <contour>
      <point x="433" y="609"/>
      <point x="495" y="534"/>
      <point x="495" y="345" type="curve" smooth="yes"/>
      <point x="495" y="156"/>
      <point x="432" y="82"/>
      <point x="336" y="82" type="curve" smooth="yes"/>
      <point x="243" y="82"/>
      <point x="177" y="156"/>
      <point x="177" y="345" type="curve" smooth="yes"/>
      <point x="177" y="534"/>
      <point x="241" y="609"/>
      <point x="336" y="609" type="curve" smooth="yes"/>
    </contour>
  </outline>
</glyph>
<glyph name="oe" format="1">
  <advance width="916"/>
  <unicode hex="0153"/>
  <outline>
    <contour>
      <point x="137" y="543"/>
      <point x="46" y="430"/>
      <point x="46" y="264" type="curve" smooth="yes"/>
      <point x="46" y="92"/>
      <point x="137" y="-14"/>
      <point x="292" y="-14" type="curve" smooth="yes"/>
      <point x="439" y="-14"/>
      <point x="510" y="100"/>
      <point x="537" y="265" type="curve"/>
      <point x="514" y="433"/>
      <point x="441" y="543"/>
      <point x="292" y="543" type="curve" smooth="yes"/>
    </contour>
    <contour>
      <point x="369" y="451"/>
      <point x="411" y="393"/>
      <point x="411" y="265" type="curve" smooth="yes"/>
      <point x="411" y="136"/>
      <point x="369" y="78"/>
      <point x="292" y="78" type="curve" smooth="yes"/>
      <point x="214" y="78"/>
      <point x="173" y="136"/>
      <point x="173" y="264" type="curve" smooth="yes"/>
      <point x="173" y="393"/>
      <point x="215" y="451"/>
      <point x="292" y="451" type="curve" smooth="yes"/>
    </contour>
    <contour>
      <point x="502" y="543"/>
      <point x="433" y="422"/>
      <point x="411" y="260" type="curve"/>
      <point x="437" y="97"/>
      <point x="506" y="-14"/>
      <point x="658" y="-14" type="curve" smooth="yes"/>
      <point x="736" y="-14"/>
      <point x="799" y="14"/>
      <point x="852" y="55" type="curve"/>
      <point x="801" y="124" type="line"/>
      <point x="755" y="92"/>
      <point x="717" y="78"/>
      <point x="668" y="78" type="curve" smooth="yes"/>
      <point x="589" y="78"/>
      <point x="534" y="124"/>
      <point x="534" y="264" type="curve" smooth="yes"/>
      <point x="534" y="403"/>
      <point x="574" y="456"/>
      <point x="645" y="456" type="curve" smooth="yes"/>
      <point x="719" y="456"/>
      <point x="752" y="402"/>
      <point x="752" y="312" type="curve" smooth="yes"/>
      <point x="752" y="310"/>
      <point x="752" y="308"/>
      <point x="752" y="306" type="curve"/>
      <point x="519" y="306" type="line"/>
      <point x="520" y="226" type="line"/>
      <point x="868" y="226" type="line"/>
      <point x="870" y="240"/>
      <point x="871" y="260"/>
      <point x="871" y="278" type="curve" smooth="yes"/>
      <point x="871" y="443"/>
      <point x="788" y="543"/>
      <point x="642" y="543" type="curve" smooth="yes"/>
    </contour>
    <contour>
      <point x="469" y="529" type="move" name="top"/>
    </contour>
  </outline>
</glyph>
<glyph name="Tbar" format="1">
  <advance width="528"/>
  <unicode hex="0166"/>
  <outline>
    <contour>
      <point x="82" y="388" type="line"/>
      <point x="82" y="309" type="line"/>
      <point x="202" y="309" type="line"/>
      <point x="446" y="309" type="line"/>
      <point x="446" y="388" type="line"/>
    </contour>
    <contour>
      <point x="12" y="689" type="line"/>
      <point x="12" y="589" type="line"/>
      <point x="201" y="589" type="line"/>
      <point x="201" y="-1" type="line"/>
      <point x="326" y="-1" type="line"/>
      <point x="326" y="589" type="line"/>
      <point x="508" y="589" type="line"/>
      <point x="521" y="689" type="line"/>
    </contour>
  </outline>
</glyph>
<glyph name="tbar" format="1">
  <advance width="373"/>
  <unicode hex="0167"/>
  <outline>
    <contour>
      <point x="91" y="359" type="line"/>
      <point x="16" y="359" type="line"/>
      <point x="16" y="274" type="line"/>
      <point x="312" y="274" type="line"/>
      <point x="324" y="359" type="line"/>
    </contour>
    <contour>
      <point x="91" y="646" type="line"/>
      <point x="91" y="154" type="line" smooth="yes"/>
      <point x="91" y="44"/>
      <point x="146" y="-14"/>
      <point x="246" y="-14" type="curve" smooth="yes"/>
      <point x="293" y="-14"/>
      <point x="338" y="-1"/>
      <point x="376" y="25" type="curve"/>
      <point x="333" y="103" type="line"/>
      <point x="309" y="89"/>
      <point x="289" y="83"/>
      <point x="268" y="83" type="curve" smooth="yes"/>
      <point x="228" y="83"/>
      <point x="211" y="105"/>
      <point x="211" y="157" type="curve" smooth="yes"/>
      <point x="211" y="660" type="line"/>
    </contour>
    <contour>
      <point x="6" y="529" type="line"/>
      <point x="6" y="441" type="line"/>
      <point x="322" y="441" type="line"/>
      <point x="334" y="529" type="line"/>
    </contour>
  </outline>
</glyph>
<glyph name="florin" format="1">
  <advance width="328"/>
  <unicode hex="0192"/>
  <outline>
    <contour>
      <point x="141" y="754"/>
      <point x="80" y="684"/>
      <point x="80" y="590" type="curve" smooth="yes"/>
      <point x="80" y="36" type="line"/>
      <point x="200" y="115" type="line"/>
      <point x="200" y="588" type="line" smooth="yes"/>
      <point x="200" y="639"/>
      <point x="218" y="662"/>
      <point x="274" y="662" type="curve" smooth="yes"/>
      <point x="301" y="662"/>
      <point x="330" y="657"/>
      <point x="364" y="642" type="curve"/>
      <point x="399" y="724" type="line"/>
      <point x="357" y="743"/>
      <point x="315" y="754"/>
      <point x="261" y="754" type="curve" smooth="yes"/>
    </contour>
    <contour>
      <point x="-3" y="529" type="line"/>
      <point x="-3" y="441" type="line"/>
      <point x="313" y="441" type="line"/>
      <point x="326" y="529" type="line"/>
    </contour>
    <contour>
      <point x="80" y="444" type="line"/>
      <point x="80" y="36" type="line" smooth="yes"/>
      <point x="80" y="-70"/>
      <point x="43" y="-97"/>
      <point x="-25" y="-129" type="curve"/>
      <point x="13" y="-216" type="line"/>
      <point x="130" y="-168"/>
      <point x="200" y="-115"/>
      <point x="200" y="44" type="curve" smooth="yes"/>
      <point x="200" y="444" type="line"/>
    </contour>
  </outline>
</glyph>
<glyph name="jdotless" format="1">
  <advance width="281"/>
  <unicode hex="0237"/>
  <outline>
    <contour>
      <point x="80" y="529" type="line"/>
      <point x="80" y="36" type="line" smooth="yes"/>
      <point x="80" y="-70"/>
      <point x="43" y="-97"/>
      <point x="-25" y="-129" type="curve"/>
      <point x="13" y="-216" type="line"/>
      <point x="130" y="-168"/>
      <point x="200" y="-115"/>
      <point x="200" y="44" type="curve" smooth="yes"/>
      <point x="200" y="529" type="line"/>
    </contour>
    <contour>
      <point x="140" y="529" type="move" name="top"/>
    </contour>
  </outline>
</glyph>
<glyph name="uni02BC" format="1">
  <advance width="189"/>
  <unicode hex="02BC"/>
  <outline>
    <contour>
      <point x="62" y="753"/>
      <point x="34" y="727"/>
      <point x="34" y="692" type="curve" smooth="yes"/>
      <point x="34" y="671"/>
      <point x="45" y="654"/>
      <point x="60" y="641" type="curve"/>
      <point x="33" y="532" type="line"/>
      <point x="93" y="532" type="line"/>
      <point x="134" y="616" type="line" smooth="yes"/>
      <point x="153" y="656"/>
      <point x="159" y="673"/>
      <point x="159" y="692" type="curve" smooth="yes"/>
      <point x="159" y="727"/>
      <point x="132" y="753"/>
      <point x="97" y="753" type="curve" smooth="yes"/>
    </contour>
    <contour>
      <point x="98" y="529" type="move" name="_topleft"/>
    </contour>
  </outline>
</glyph>
<glyph name="circumflex" format="1">
  <advance width="412"/>
  <unicode hex="02C6"/>
  <outline>
    <contour>
      <point x="206" y="715" type="line"/>
      <point x="335" y="628" type="line"/>
      <point x="382" y="682" type="line"/>
      <point x="244" y="805" type="line"/>
      <point x="168" y="805" type="line"/>
      <point x="30" y="682" type="line"/>
      <point x="76" y="628" type="line"/>
    </contour>
    <contour>
      <point x="206" y="529" type="move" name="_top"/>
    </contour>
  </outline>
</glyph>
<glyph name="caron" format="1">
  <advance width="412"/>
  <unicode hex="02C7"/>
  <outline>
    <contour>
      <point x="206" y="710" type="line"/>
      <point x="77" y="797" type="line"/>
      <point x="30" y="743" type="line"/>
      <point x="168" y="620" type="line"/>
      <point x="244" y="620" type="line"/>
      <point x="382" y="743" type="line"/>
      <point x="336" y="797" type="line"/>
    </contour>
    <contour>
      <point x="206" y="529" type="move" name="_top"/>
    </contour>
  </outline>
</glyph>
<glyph name="dotaccent" format="1">
  <advance width="214"/>
  <unicode hex="02D9"/>
  <outline>
    <contour>
      <point x="61" y="793"/>
      <point x="30" y="761"/>
      <point x="30" y="719" type="curve" smooth="yes"/>
      <point x="30" y="677"/>
      <point x="61" y="645"/>
      <point x="106" y="645" type="curve" smooth="yes"/>
      <point x="152" y="645"/>
      <point x="184" y="677"/>
      <point x="184" y="719" type="curve" smooth="yes"/>
      <point x="184" y="761"/>
      <point x="152" y="793"/>
      <point x="106" y="793" type="curve" smooth="yes"/>
    </contour>
    <contour>
      <point x="107" y="529" type="move" name="_top"/>
    </contour>
    <contour>
      <point x="106" y="721" type="move" name="_center"/>
    </contour>
  </outline>
</glyph>
<glyph name="ring" format="1">
  <advance width="309"/>
  <unicode hex="02DA"/>
  <outline>
    <contour>
      <point x="80" y="849"/>
      <point x="30" y="797"/>
      <point x="30" y="733" type="curve" smooth="yes"/>
      <point x="30" y="669"/>
      <point x="80" y="616"/>
      <point x="155" y="616" type="curve" smooth="yes"/>
      <point x="229" y="616"/>
      <point x="279" y="669"/>
      <point x="279" y="733" type="curve" smooth="yes"/>
      <point x="279" y="797"/>
      <point x="229" y="849"/>
      <point x="155" y="849" type="curve" smooth="yes"/>
    </contour>
    <contour>
      <point x="185" y="786"/>
      <point x="204" y="767"/>
      <point x="204" y="733" type="curve" smooth="yes"/>
      <point x="204" y="698"/>
      <point x="184" y="679"/>
      <point x="155" y="679" type="curve" smooth="yes"/>
      <point x="124" y="679"/>
      <point x="105" y="698"/>
      <point x="105" y="733" type="curve" smooth="yes"/>
      <point x="105" y="767"/>
      <point x="124" y="786"/>
      <point x="155" y="786" type="curve" smooth="yes"/>
    </contour>
    <contour>
      <point x="155" y="529" type="move" name="_top"/>
    </contour>
  </outline>
</glyph>
<glyph name="ogonek" format="1">
  <advance width="298"/>
  <unicode hex="02DB"/>
  <outline>
    <contour>
      <point x="67" y="4"/>
      <point x="-3" y="-48"/>
      <point x="-3" y="-130" type="curve" smooth="yes"/>
      <point x="-3" y="-194"/>
      <point x="51" y="-238"/>
      <point x="131" y="-238" type="curve" smooth="yes"/>
      <point x="157" y="-238"/>
      <point x="176" y="-235"/>
      <point x="197" y="-231" type="curve"/>
      <point x="207" y="-149" type="line"/>
      <point x="183" y="-154"/>
      <point x="166" y="-156"/>
      <point x="146" y="-156" type="curve" smooth="yes"/>
      <point x="107" y="-156"/>
      <point x="91" y="-139"/>
      <point x="91" y="-109" type="curve" smooth="yes"/>
      <point x="91" y="-76"/>
      <point x="112" y="-41"/>
      <point x="212" y="0" type="curve"/>
      <point x="194" y="40" type="line"/>
    </contour>
    <contour>
      <point x="222" y="0" type="move" name="_ogonek"/>
    </contour>
  </outline>
</glyph>
<glyph name="tilde" format="1">
  <advance width="412"/>
  <unicode hex="02DC"/>
  <outline>
    <contour>
      <point x="315" y="647"/>
      <point x="356" y="685"/>
      <point x="382" y="746" type="curve"/>
      <point x="316" y="779" type="line"/>
      <point x="299" y="749"/>
      <point x="285" y="735"/>
      <point x="263" y="735" type="curve" smooth="yes"/>
      <point x="228" y="735"/>
      <point x="206" y="782"/>
      <point x="148" y="782" type="curve" smooth="yes"/>
      <point x="93" y="782"/>
      <point x="54" y="736"/>
      <point x="30" y="681" type="curve"/>
      <point x="96" y="648" type="line"/>
      <point x="112" y="678"/>
      <point x="125" y="694"/>
      <point x="149" y="694" type="curve" smooth="yes"/>
      <point x="183" y="694"/>
      <point x="206" y="647"/>
      <point x="267" y="647" type="curve" smooth="yes"/>
    </contour>
    <contour>
      <point x="206" y="529" type="move" name="_top"/>
    </contour>
  </outline>
</glyph>
<glyph name="hungarumlaut" format="1">
  <advance width="393"/>
  <unicode hex="02DD"/>
  <outline>
    <contour>
      <point x="183" y="661" type="line"/>
      <point x="251" y="630" type="line"/>
      <point x="363" y="798" type="line"/>
      <point x="273" y="844" type="line"/>
    </contour>
    <contour>
      <point x="30" y="664" type="line"/>
      <point x="99" y="635" type="line"/>
      <point x="202" y="799" type="line"/>
      <point x="111" y="844" type="line"/>
    </contour>
    <contour>
      <point x="149" y="529" type="move" name="_top"/>
    </contour>
  </outline>
</glyph>
<glyph name="gravecomb" format="1">
  <advance width="317"/>
  <unicode hex="0300"/>
  <outline>
    <contour>
      <point x="39" y="710" type="line"/>
      <point x="265" y="627" type="line"/>
      <point x="296" y="690" type="line"/>
      <point x="87" y="804" type="line"/>
    </contour>
    <contour>
      <point x="167" y="529" type="move" name="_top"/>
    </contour>
  </outline>
</glyph>
<glyph name="acutecomb" format="1">
  <advance width="317"/>
  <unicode hex="0301"/>
  <outline>
    <contour>
      <point x="39" y="690" type="line"/>
      <point x="70" y="627" type="line"/>
      <point x="296" y="710" type="line"/>
      <point x="247" y="804" type="line"/>
    </contour>
    <contour>
      <point x="167" y="529" type="move" name="_top"/>
    </contour>
  </outline>
</glyph>
<glyph name="uni0302" format="1">
  <advance width="412"/>
  <unicode hex="0302"/>
  <outline>
    <contour>
      <point x="391" y="685" type="line"/>
      <point x="253" y="803" type="line"/>
      <point x="177" y="803" type="line"/>
      <point x="39" y="685" type="line"/>
      <point x="86" y="631" type="line"/>
      <point x="215" y="713" type="line"/>
      <point x="345" y="631" type="line"/>
    </contour>
    <contour>
      <point x="215" y="529" type="move" name="_top"/>
    </contour>
  </outline>
</glyph>
<glyph name="uni0306" format="1">
  <advance width="380"/>
  <unicode hex="0306"/>
  <outline>
    <contour>
      <point x="290" y="629"/>
      <point x="352" y="690"/>
      <point x="360" y="768" type="curve"/>
      <point x="288" y="783" type="line"/>
      <point x="274" y="743"/>
      <point x="245" y="716"/>
      <point x="198" y="716" type="curve" smooth="yes"/>
      <point x="152" y="716"/>
      <point x="124" y="743"/>
      <point x="111" y="783" type="curve"/>
      <point x="39" y="768" type="line"/>
      <point x="47" y="690"/>
      <point x="108" y="629"/>
      <point x="198" y="629" type="curve" smooth="yes"/>
    </contour>
    <contour>
      <point x="200" y="529" type="move" name="_top"/>
    </contour>
  </outline>
</glyph>
<glyph name="uni030C" format="1">
  <advance width="412"/>
  <unicode hex="030C"/>
  <outline>
    <contour>
      <point x="215" y="715" type="line"/>
      <point x="86" y="798" type="line"/>
      <point x="39" y="744" type="line"/>
      <point x="177" y="626" type="line"/>
      <point x="253" y="626" type="line"/>
      <point x="391" y="744" type="line"/>
      <point x="345" y="798" type="line"/>
    </contour>
    <contour>
      <point x="215" y="529" type="move" name="_top"/>
    </contour>
  </outline>
</glyph>
<glyph name="uni0326" format="1">
  <advance width="197"/>
  <unicode hex="0326"/>
  <outline>
    <contour>
      <point x="63" y="-73"/>
      <point x="34" y="-102"/>
      <point x="34" y="-138" type="curve" smooth="yes"/>
      <point x="34" y="-161"/>
      <point x="45" y="-179"/>
      <point x="61" y="-193" type="curve"/>
      <point x="33" y="-308" type="line"/>
      <point x="97" y="-308" type="line"/>
      <point x="141" y="-218" type="line" smooth="yes"/>
      <point x="161" y="-177"/>
      <point x="167" y="-159"/>
      <point x="167" y="-138" type="curve" smooth="yes"/>
      <point x="167" y="-101"/>
      <point x="138" y="-73"/>
      <point x="101" y="-73" type="curve" smooth="yes"/>
    </contour>
    <contour>
      <point x="98" y="0" type="move" name="_bottom"/>
    </contour>
  </outline>
</glyph>
<glyph name="tonos" format="1">
  <advance width="225"/>
  <unicode hex="0384"/>
  <outline>
    <contour>
      <point x="33" y="605" type="line"/>
      <point x="117" y="592" type="line"/>
      <point x="193" y="803" type="line"/>
      <point x="70" y="827" type="line"/>
    </contour>
    <contour>
      <point x="74" y="529" type="move" name="_top"/>
    </contour>
  </outline>
</glyph>
<glyph name="dieresistonos" format="1">
  <advance width="439"/>
  <unicode hex="0385"/>
  <outline>
    <contour>
      <point x="180" y="744" type="line"/>
      <point x="257" y="732" type="line"/>
      <point x="323" y="912" type="line"/>
      <point x="209" y="932" type="line"/>
    </contour>
    <contour>
      <point x="59" y="748"/>
      <point x="30" y="720"/>
      <point x="30" y="683" type="curve" smooth="yes"/>
      <point x="30" y="646"/>
      <point x="59" y="618"/>
      <point x="97" y="618" type="curve" smooth="yes"/>
      <point x="135" y="618"/>
      <point x="163" y="646"/>
      <point x="163" y="683" type="curve" smooth="yes"/>
      <point x="163" y="720"/>
      <point x="135" y="748"/>
      <point x="97" y="748" type="curve" smooth="yes"/>
    </contour>
    <contour>
      <point x="305" y="748"/>
      <point x="276" y="720"/>
      <point x="276" y="683" type="curve" smooth="yes"/>
      <point x="276" y="646"/>
      <point x="305" y="618"/>
      <point x="342" y="618" type="curve" smooth="yes"/>
      <point x="380" y="618"/>
      <point x="409" y="646"/>
      <point x="409" y="683" type="curve" smooth="yes"/>
      <point x="409" y="720"/>
      <point x="380" y="748"/>
      <point x="342" y="748" type="curve" smooth="yes"/>
    </contour>
    <contour>
      <point x="220" y="529" type="move" name="_top"/>
    </contour>
  </outline>
</glyph>
<glyph name="Delta" format="1">
  <advance width="590"/>
  <unicode hex="0394"/>
  <outline>
    <contour>
      <point x="436" y="96" type="line"/>
      <point x="150" y="96" type="line"/>
      <point x="293" y="593" type="line"/>
    </contour>
    <contour>
      <point x="219" y="691" type="line"/>
      <point x="-2" y="0" type="line"/>
      <point x="592" y="0" type="line"/>
      <point x="372" y="691" type="line"/>
    </contour>
  </outline>
</glyph>
<glyph name="Theta" format="1">
  <advance width="691"/>
  <unicode hex="0398"/>
  <outline>
    <contour>
      <point x="234" y="393" type="line"/>
      <point x="234" y="311" type="line"/>
      <point x="457" y="311" type="line"/>
      <point x="457" y="393" type="line"/>
    </contour>
    <contour>
      <point x="164" y="705"/>
      <point x="46" y="571"/>
      <point x="46" y="345" type="curve" smooth="yes"/>
      <point x="46" y="114"/>
      <point x="164" y="-14"/>
      <point x="346" y="-14" type="curve" smooth="yes"/>
      <point x="528" y="-14"/>
      <point x="646" y="118"/>
      <point x="646" y="345" type="curve" smooth="yes"/>
      <point x="646" y="577"/>
      <point x="528" y="705"/>
      <point x="346" y="705" type="curve" smooth="yes"/>
    </contour>
    <contour>
      <point x="456" y="609"/>
      <point x="519" y="534"/>
      <point x="519" y="345" type="curve" smooth="yes"/>
      <point x="519" y="156"/>
      <point x="455" y="82"/>
      <point x="346" y="82" type="curve" smooth="yes"/>
      <point x="240" y="82"/>
      <point x="173" y="156"/>
      <point x="173" y="345" type="curve" smooth="yes"/>
      <point x="173" y="534"/>
      <point x="238" y="609"/>
      <point x="346" y="609" type="curve" smooth="yes"/>
    </contour>
  </outline>
</glyph>
<glyph name="Xi" format="1">
  <advance width="517"/>
  <unicode hex="039E"/>
  <outline>
    <contour>
      <point x="38" y="111" type="line"/>
      <point x="38" y="0" type="line"/>
      <point x="478" y="0" type="line"/>
      <point x="478" y="111" type="line"/>
    </contour>
    <contour>
      <point x="101" y="402" type="line"/>
      <point x="101" y="299" type="line"/>
      <point x="410" y="299" type="line"/>
      <point x="410" y="402" type="line"/>
    </contour>
    <contour>
      <point x="38" y="691" type="line"/>
      <point x="38" y="583" type="line"/>
      <point x="458" y="583" type="line"/>
      <point x="474" y="691" type="line"/>
    </contour>
  </outline>
</glyph>
<glyph name="Sigma" format="1">
  <advance width="503"/>
  <unicode hex="03A3"/>
  <outline>
    <contour>
      <point x="32" y="691" type="line"/>
      <point x="32" y="595" type="line"/>
      <point x="241" y="339" type="line"/>
      <point x="32" y="95" type="line"/>
      <point x="32" y="0" type="line"/>
      <point x="471" y="0" type="line"/>
      <point x="471" y="96" type="line"/>
      <point x="170" y="96" type="line"/>
      <point x="357" y="309" type="line"/>
      <point x="357" y="373" type="line"/>
      <point x="171" y="595" type="line"/>
      <point x="471" y="595" type="line"/>
      <point x="471" y="691" type="line"/>
    </contour>
  </outline>
</glyph>
<glyph name="Phi" format="1">
  <advance width="824.0"/>
  <unicode hex="03A6"/>
  <outline>
    <contour>
      <point x="454" y="536" type="line"/>
      <point x="599" y="533"/>
      <point x="670" y="466"/>
      <point x="670" y="348" type="curve" smooth="yes"/>
      <point x="670" y="224"/>
      <point x="601" y="157"/>
      <point x="453" y="152" type="curve"/>
      <point x="456" y="71" type="line"/>
      <point x="662" y="72"/>
      <point x="797" y="167"/>
      <point x="797" y="348" type="curve" smooth="yes"/>
      <point x="797" y="513"/>
      <point x="672" y="614"/>
      <point x="456" y="618" type="curve"/>
    </contour>
    <contour>
      <point x="162" y="617"/>
      <point x="27" y="522"/>
      <point x="27" y="345" type="curve" smooth="yes"/>
      <point x="27" y="176"/>
      <point x="152" y="75"/>
      <point x="368" y="71" type="curve"/>
      <point x="370" y="153" type="line"/>
      <point x="225" y="156"/>
      <point x="154" y="223"/>
      <point x="154" y="345" type="curve" smooth="yes"/>
      <point x="154" y="467"/>
      <point x="223" y="532"/>
      <point x="371" y="537" type="curve"/>
      <point x="368" y="618" type="line"/>
    </contour>
    <contour>
      <point x="352" y="691" type="line"/>
      <point x="352" y="599" type="line"/>
      <point x="356" y="548" type="line"/>
      <point x="356" y="136" type="line"/>
      <point x="352" y="85" type="line"/>
      <point x="352" y="0" type="line"/>
      <point x="472" y="0" type="line"/>
      <point x="472" y="85" type="line"/>
      <point x="468" y="136" type="line"/>
      <point x="468" y="548" type="line"/>
      <point x="472" y="599" type="line"/>
      <point x="472" y="691" type="line"/>
    </contour>
  </outline>
</glyph>
<glyph name="Psi" format="1">
  <advance width="708"/>
  <unicode hex="03A8"/>
  <outline>
    <contour>
      <point x="320" y="278" type="line"/>
      <point x="198" y="283"/>
      <point x="149" y="330"/>
      <point x="149" y="430" type="curve" smooth="yes"/>
      <point x="149" y="691" type="line"/>
      <point x="28" y="691" type="line"/>
      <point x="28" y="427" type="line" smooth="yes"/>
      <point x="28" y="281"/>
      <point x="123" y="198"/>
      <point x="315" y="186" type="curve"/>
    </contour>
    <contour>
      <point x="393" y="187" type="line"/>
      <point x="577" y="198"/>
      <point x="680" y="279"/>
      <point x="680" y="430" type="curve" smooth="yes"/>
      <point x="680" y="691" type="line"/>
      <point x="559" y="691" type="line"/>
      <point x="559" y="430" type="line" smooth="yes"/>
      <point x="559" y="330"/>
      <point x="505" y="284"/>
      <point x="387" y="279" type="curve"/>
    </contour>
    <contour>
      <point x="412" y="265" type="line"/>
      <point x="412" y="691" type="line"/>
      <point x="296" y="691" type="line"/>
      <point x="296" y="264" type="line"/>
      <point x="292" y="204" type="line"/>
      <point x="292" y="0" type="line"/>
      <point x="416" y="0" type="line"/>
      <point x="416" y="204" type="line"/>
    </contour>
  </outline>
</glyph>
<glyph name="Omega" format="1">
  <advance width="691"/>
  <unicode hex="03A9"/>
  <outline>
    <contour>
      <point x="164" y="705"/>
      <point x="46" y="569"/>
      <point x="46" y="363" type="curve" smooth="yes"/>
      <point x="46" y="226"/>
      <point x="85" y="145"/>
      <point x="174" y="96" type="curve"/>
      <point x="67" y="96" type="line"/>
      <point x="67" y="0" type="line"/>
      <point x="298" y="0" type="line"/>
      <point x="298" y="94" type="line"/>
      <point x="213" y="128"/>
      <point x="177" y="199"/>
      <point x="177" y="363" type="curve" smooth="yes"/>
      <point x="177" y="532"/>
      <point x="241" y="609"/>
      <point x="346" y="609" type="curve" smooth="yes"/>
      <point x="453" y="609"/>
      <point x="515" y="532"/>
      <point x="515" y="364" type="curve" smooth="yes"/>
      <point x="515" y="209"/>
      <point x="483" y="128"/>
      <point x="393" y="94" type="curve"/>
      <point x="393" y="0" type="line"/>
      <point x="624" y="0" type="line"/>
      <point x="624" y="96" type="line"/>
      <point x="513" y="96" type="line"/>
      <point x="609" y="151"/>
      <point x="646" y="231"/>
      <point x="646" y="364" type="curve"/>
      <point x="646" y="573"/>
      <point x="531" y="705"/>
      <point x="346" y="705" type="curve" smooth="yes"/>
    </contour>
    <contour>
      <point x="344" y="691" type="move" name="top"/>
    </contour>
  </outline>
</glyph>
<glyph name="alpha" format="1">
  <advance width="597"/>
  <unicode hex="03B1"/>
  <outline>
    <contour>
      <point x="121" y="543"/>
      <point x="48" y="425"/>
      <point x="48" y="260" type="curve" smooth="yes"/>
      <point x="48" y="78"/>
      <point x="123" y="-14"/>
      <point x="244" y="-14" type="curve" smooth="yes"/>
      <point x="330" y="-14"/>
      <point x="379" y="44"/>
      <point x="408" y="127" type="curve"/>
      <point x="417" y="80" type="line" smooth="yes"/>
      <point x="427" y="23"/>
      <point x="469" y="-7"/>
      <point x="520" y="-15" type="curve"/>
      <point x="560" y="79" type="line"/>
      <point x="530" y="88"/>
      <point x="516" y="103"/>
      <point x="510" y="132" type="curve" smooth="yes"/>
      <point x="484" y="254" type="line"/>
      <point x="545" y="529" type="line"/>
      <point x="439" y="529" type="line"/>
      <point x="416" y="390" type="line"/>
      <point x="396" y="498"/>
      <point x="344" y="543"/>
      <point x="254" y="543" type="curve" smooth="yes"/>
    </contour>
    <contour>
      <point x="326" y="452"/>
      <point x="361" y="412"/>
      <point x="386" y="269" type="curve"/>
      <point x="357" y="110"/>
      <point x="310" y="77"/>
      <point x="264" y="77" type="curve" smooth="yes"/>
      <point x="207" y="77"/>
      <point x="172" y="130"/>
      <point x="172" y="260" type="curve" smooth="yes"/>
      <point x="172" y="388"/>
      <point x="208" y="452"/>
      <point x="267" y="452" type="curve" smooth="yes"/>
    </contour>
    <contour>
      <point x="279" y="529" type="move" name="top"/>
    </contour>
  </outline>
</glyph>
<glyph name="beta" format="1">
  <advance width="605"/>
  <unicode hex="03B2"/>
  <outline>
    <contour>
      <point x="167" y="754"/>
      <point x="81" y="676"/>
      <point x="81" y="543" type="curve" smooth="yes"/>
      <point x="81" y="-217" type="line"/>
      <point x="199" y="-201" type="line"/>
      <point x="199" y="544" type="line" smooth="yes"/>
      <point x="199" y="626"/>
      <point x="233" y="665"/>
      <point x="297" y="665" type="curve" smooth="yes"/>
      <point x="356" y="665"/>
      <point x="398" y="632"/>
      <point x="398" y="559" type="curve" smooth="yes"/>
      <point x="398" y="478"/>
      <point x="353" y="441"/>
      <point x="294" y="441" type="curve" smooth="yes"/>
      <point x="255" y="441" type="line"/>
      <point x="245" y="355" type="line"/>
      <point x="292" y="355" type="line" smooth="yes"/>
      <point x="387" y="355"/>
      <point x="446" y="311"/>
      <point x="446" y="211" type="curve" smooth="yes"/>
      <point x="446" y="122"/>
      <point x="387" y="80"/>
      <point x="319" y="80" type="curve" smooth="yes"/>
      <point x="254" y="80"/>
      <point x="214" y="98"/>
      <point x="176" y="136" type="curve"/>
      <point x="155" y="73" type="line"/>
      <point x="207" y="19"/>
      <point x="269" y="-14"/>
      <point x="341" y="-14" type="curve" smooth="yes"/>
      <point x="468" y="-14"/>
      <point x="567" y="72"/>
      <point x="567" y="205" type="curve" smooth="yes"/>
      <point x="567" y="356"/>
      <point x="458" y="395"/>
      <point x="368" y="405" type="curve"/>
      <point x="453" y="420"/>
      <point x="512" y="474"/>
      <point x="512" y="573" type="curve" smooth="yes"/>
      <point x="512" y="682"/>
      <point x="422" y="754"/>
      <point x="298" y="754" type="curve" smooth="yes"/>
    </contour>
  </outline>
</glyph>
<glyph name="gamma" format="1">
  <advance width="493"/>
  <unicode hex="03B3"/>
  <outline>
    <contour>
      <point x="-10" y="502" type="line"/>
      <point x="57" y="424"/>
      <point x="118" y="262"/>
      <point x="185" y="11" type="curve"/>
      <point x="149" y="-79"/>
      <point x="150" y="-139"/>
      <point x="190" y="-219" type="curve"/>
      <point x="285" y="-204" type="line"/>
      <point x="269" y="-110"/>
      <point x="272" y="-53"/>
      <point x="302" y="24" type="curve" smooth="yes"/>
      <point x="489" y="517" type="line"/>
      <point x="369" y="542" type="line"/>
      <point x="245" y="136" type="line"/>
      <point x="209" y="350"/>
      <point x="147" y="483"/>
      <point x="100" y="542" type="curve"/>
    </contour>
  </outline>
</glyph>
<glyph name="delta" format="1">
  <advance width="578"/>
  <unicode hex="03B4"/>
  <outline>
    <contour>
      <point x="101" y="543"/>
      <point x="129" y="494"/>
      <point x="242" y="447" type="curve" smooth="yes"/>
      <point x="371" y="395"/>
      <point x="405" y="354"/>
      <point x="405" y="245" type="curve" smooth="yes"/>
      <point x="405" y="134"/>
      <point x="364" y="78"/>
      <point x="288" y="78" type="curve" smooth="yes"/>
      <point x="210" y="78"/>
      <point x="172" y="135"/>
      <point x="172" y="243" type="curve" smooth="yes"/>
      <point x="172" y="343"/>
      <point x="207" y="400"/>
      <point x="279" y="446" type="curve"/>
      <point x="217" y="476" type="line"/>
      <point x="114" y="432"/>
      <point x="46" y="357"/>
      <point x="46" y="241" type="curve" smooth="yes"/>
      <point x="46" y="81"/>
      <point x="142" y="-14"/>
      <point x="289" y="-14" type="curve" smooth="yes"/>
      <point x="441" y="-14"/>
      <point x="532" y="99"/>
      <point x="532" y="245" type="curve" smooth="yes"/>
      <point x="532" y="386"/>
      <point x="465" y="453"/>
      <point x="332" y="508" type="curve" smooth="yes"/>
      <point x="238" y="548"/>
      <point x="220" y="565"/>
      <point x="220" y="605" type="curve" smooth="yes"/>
      <point x="220" y="638"/>
      <point x="243" y="666"/>
      <point x="304" y="666" type="curve" smooth="yes"/>
      <point x="348" y="666"/>
      <point x="381" y="654"/>
      <point x="419" y="628" type="curve"/>
      <point x="477" y="697" type="line"/>
      <point x="430" y="730"/>
      <point x="374" y="754"/>
      <point x="293" y="754" type="curve" smooth="yes"/>
      <point x="164" y="754"/>
      <point x="101" y="685"/>
      <point x="101" y="609" type="curve" smooth="yes"/>
    </contour>
  </outline>
</glyph>
<glyph name="epsilon" format="1">
  <advance width="473"/>
  <unicode hex="03B5"/>
  <outline>
    <contour>
      <point x="145" y="543"/>
      <point x="67" y="490"/>
      <point x="67" y="401" type="curve" smooth="yes"/>
      <point x="67" y="343"/>
      <point x="107" y="295"/>
      <point x="183" y="282" type="curve"/>
      <point x="97" y="272"/>
      <point x="46" y="231"/>
      <point x="46" y="145" type="curve" smooth="yes"/>
      <point x="46" y="43"/>
      <point x="136" y="-14"/>
      <point x="264" y="-14" type="curve" smooth="yes"/>
      <point x="343" y="-14"/>
      <point x="413" y="9"/>
      <point x="464" y="49" type="curve"/>
      <point x="410" y="121" type="line"/>
      <point x="364" y="92"/>
      <point x="326" y="76"/>
      <point x="275" y="76" type="curve" smooth="yes"/>
      <point x="209" y="76"/>
      <point x="174" y="108"/>
      <point x="174" y="155" type="curve" smooth="yes"/>
      <point x="174" y="207"/>
      <point x="202" y="232"/>
      <point x="275" y="232" type="curve" smooth="yes"/>
      <point x="332" y="232" type="line"/>
      <point x="345" y="317" type="line"/>
      <point x="281" y="317" type="line" smooth="yes"/>
      <point x="224" y="317"/>
      <point x="190" y="344"/>
      <point x="190" y="386" type="curve" smooth="yes"/>
      <point x="190" y="431"/>
      <point x="222" y="455"/>
      <point x="277" y="455" type="curve" smooth="yes"/>
      <point x="324" y="455"/>
      <point x="357" y="444"/>
      <point x="392" y="422" type="curve"/>
      <point x="446" y="489" type="line"/>
      <point x="397" y="525"/>
      <point x="340" y="543"/>
      <point x="265" y="543" type="curve" smooth="yes"/>
    </contour>
    <contour>
      <point x="260" y="529" type="move" name="top"/>
    </contour>
  </outline>
</glyph>
<glyph name="zeta" format="1">
  <advance width="401"/>
  <unicode hex="03B6"/>
  <outline>
    <contour>
      <point x="49" y="740" type="line"/>
      <point x="35" y="649" type="line"/>
      <point x="178" y="649" type="line" smooth="yes"/>
      <point x="223" y="649"/>
      <point x="294" y="654"/>
      <point x="322" y="665" type="curve"/>
      <point x="132" y="553"/>
      <point x="32" y="370"/>
      <point x="32" y="255" type="curve" smooth="yes"/>
      <point x="32" y="127"/>
      <point x="88" y="74"/>
      <point x="198" y="28" type="curve" smooth="yes"/>
      <point x="273" y="-3"/>
      <point x="293" y="-15"/>
      <point x="293" y="-51" type="curve" smooth="yes"/>
      <point x="293" y="-94"/>
      <point x="256" y="-117"/>
      <point x="203" y="-141" type="curve"/>
      <point x="251" y="-218" type="line"/>
      <point x="365" y="-169"/>
      <point x="419" y="-117"/>
      <point x="419" y="-39" type="curve" smooth="yes"/>
      <point x="419" y="42"/>
      <point x="361" y="74"/>
      <point x="280" y="106" type="curve" smooth="yes"/>
      <point x="193" y="140"/>
      <point x="158" y="170"/>
      <point x="158" y="255" type="curve" smooth="yes"/>
      <point x="158" y="371"/>
      <point x="223" y="496"/>
      <point x="432" y="670" type="curve"/>
      <point x="416" y="740" type="line"/>
    </contour>
  </outline>
</glyph>
<glyph name="eta" format="1">
  <advance width="587"/>
  <unicode hex="03B7"/>
  <outline>
    <contour>
      <point x="199" y="449" type="line"/>
      <point x="192" y="493"/>
      <point x="183" y="521"/>
      <point x="172" y="541" type="curve"/>
      <point x="62" y="526" type="line"/>
      <point x="76" y="484"/>
      <point x="86" y="436"/>
      <point x="86" y="368" type="curve" smooth="yes"/>
      <point x="86" y="0" type="line"/>
      <point x="206" y="0" type="line"/>
      <point x="206" y="376" type="line"/>
    </contour>
    <contour>
      <point x="286" y="543"/>
      <point x="228" y="503"/>
      <point x="187" y="440" type="curve"/>
      <point x="205" y="370" type="line"/>
      <point x="237" y="420"/>
      <point x="273" y="452"/>
      <point x="322" y="452" type="curve" smooth="yes"/>
      <point x="364" y="452"/>
      <point x="391" y="432"/>
      <point x="391" y="363" type="curve" smooth="yes"/>
      <point x="391" y="-203" type="line"/>
      <point x="511" y="-217" type="line"/>
      <point x="511" y="382" type="line" smooth="yes"/>
      <point x="511" y="483"/>
      <point x="455" y="543"/>
      <point x="360" y="543" type="curve" smooth="yes"/>
    </contour>
    <contour>
      <point x="292" y="529" type="move" name="top"/>
    </contour>
  </outline>
</glyph>
<glyph name="theta" format="1">
  <advance width="569"/>
  <unicode hex="03B8"/>
  <outline>
    <contour>
      <point x="131" y="754"/>
      <point x="46" y="613"/>
      <point x="46" y="372" type="curve" smooth="yes"/>
      <point x="46" y="126"/>
      <point x="130" y="-14"/>
      <point x="285" y="-14" type="curve" smooth="yes"/>
      <point x="439" y="-14"/>
      <point x="523" y="130"/>
      <point x="523" y="372" type="curve" smooth="yes"/>
      <point x="523" y="617"/>
      <point x="440" y="754"/>
      <point x="285" y="754" type="curve" smooth="yes"/>
    </contour>
    <contour>
      <point x="368" y="662"/>
      <point x="405" y="589"/>
      <point x="405" y="371" type="curve" smooth="yes"/>
      <point x="403" y="149"/>
      <point x="368" y="77"/>
      <point x="285" y="77" type="curve" smooth="yes"/>
      <point x="204" y="77"/>
      <point x="165" y="147"/>
      <point x="164" y="372" type="curve" smooth="yes"/>
      <point x="164" y="589"/>
      <point x="202" y="662"/>
      <point x="285" y="662" type="curve" smooth="yes"/>
    </contour>
    <contour>
      <point x="421" y="412" type="line"/>
      <point x="148" y="412" type="line"/>
      <point x="148" y="333" type="line"/>
      <point x="420" y="333" type="line"/>
    </contour>
  </outline>
</glyph>
<glyph name="iota" format="1">
  <advance width="276"/>
  <unicode hex="03B9"/>
  <outline>
    <contour>
      <point x="76" y="529" type="line"/>
      <point x="76" y="142" type="line" smooth="yes"/>
      <point x="76" y="48"/>
      <point x="114" y="3"/>
      <point x="205" y="-14" type="curve"/>
      <point x="241" y="74" type="line"/>
      <point x="208" y="89"/>
      <point x="196" y="107"/>
      <point x="196" y="157" type="curve" smooth="yes"/>
      <point x="196" y="529" type="line"/>
    </contour>
    <contour>
      <point x="136" y="529" type="move" name="top"/>
    </contour>
  </outline>
</glyph>
<glyph name="kappa" format="1">
  <advance width="540"/>
  <unicode hex="03BA"/>
  <outline>
    <contour>
      <point x="210" y="282" type="line"/>
      <point x="369" y="74" type="line" smooth="yes"/>
      <point x="402" y="28"/>
      <point x="438" y="-1"/>
      <point x="501" y="-14" type="curve"/>
      <point x="540" y="75" type="line"/>
      <point x="503" y="90"/>
      <point x="491" y="107"/>
      <point x="465" y="139" type="curve" smooth="yes"/>
      <point x="344" y="285" type="line"/>
      <point x="516" y="495" type="line"/>
      <point x="413" y="542" type="line"/>
    </contour>
    <contour>
      <point x="62" y="526" type="line"/>
      <point x="75" y="486"/>
      <point x="86" y="436"/>
      <point x="86" y="368" type="curve" smooth="yes"/>
      <point x="86" y="0" type="line"/>
      <point x="206" y="0" type="line"/>
      <point x="206" y="342" type="line"/>
      <point x="206" y="453"/>
      <point x="191" y="505"/>
      <point x="172" y="541" type="curve"/>
    </contour>
  </outline>
</glyph>
<glyph name="lambda" format="1">
  <advance width="507"/>
  <unicode hex="03BB"/>
  <outline>
    <contour>
      <point x="65" y="668" type="line"/>
      <point x="169" y="650"/>
      <point x="203" y="614"/>
      <point x="227" y="529" type="curve"/>
      <point x="180" y="529" type="line"/>
      <point x="15" y="14" type="line"/>
      <point x="132" y="-14" type="line"/>
      <point x="254" y="437" type="line"/>
      <point x="301" y="178"/>
      <point x="341" y="82"/>
      <point x="403" y="-14" type="curve"/>
      <point x="523" y="27" type="line"/>
      <point x="451" y="117"/>
      <point x="415" y="206"/>
      <point x="346" y="498" type="curve" smooth="yes"/>
      <point x="306" y="670"/>
      <point x="241" y="728"/>
      <point x="81" y="755" type="curve"/>
    </contour>
  </outline>
</glyph>
<glyph name="mu" format="1">
  <advance width="586"/>
  <unicode hex="03BC"/>
  <outline>
    <contour>
      <point x="387" y="184" type="line"/>
      <point x="354" y="110"/>
      <point x="311" y="84"/>
      <point x="268" y="84" type="curve" smooth="yes"/>
      <point x="230" y="84"/>
      <point x="201" y="102"/>
      <point x="201" y="160" type="curve" smooth="yes"/>
      <point x="201" y="529" type="line"/>
      <point x="81" y="529" type="line"/>
      <point x="81" y="-216" type="line"/>
      <point x="197" y="-203" type="line"/>
      <point x="197" y="-103" type="line" smooth="yes"/>
      <point x="197" y="-37"/>
      <point x="187" y="-3"/>
      <point x="170" y="36" type="curve"/>
      <point x="191" y="0"/>
      <point x="229" y="-10"/>
      <point x="263" y="-10" type="curve" smooth="yes"/>
      <point x="325" y="-10"/>
      <point x="372" y="42"/>
      <point x="398" y="97" type="curve"/>
    </contour>
    <contour>
      <point x="388" y="84" type="line"/>
      <point x="393" y="45"/>
      <point x="396" y="22"/>
      <point x="412" y="-14" type="curve"/>
      <point x="523" y="0" type="line"/>
      <point x="510" y="42"/>
      <point x="498" y="101"/>
      <point x="498" y="181" type="curve" smooth="yes"/>
      <point x="498" y="529" type="line"/>
      <point x="378" y="529" type="line"/>
      <point x="378" y="134" type="line"/>
    </contour>
  </outline>
</glyph>
<glyph name="nu" format="1">
  <advance width="493"/>
  <unicode hex="03BD"/>
  <outline>
    <contour>
      <point x="-10" y="502" type="line"/>
      <point x="60" y="426"/>
      <point x="108" y="259"/>
      <point x="170" y="0" type="curve"/>
      <point x="314" y="0" type="line"/>
      <point x="489" y="517" type="line"/>
      <point x="372" y="542" type="line"/>
      <point x="244" y="99" type="line"/>
      <point x="200" y="340"/>
      <point x="147" y="483"/>
      <point x="100" y="542" type="curve"/>
    </contour>
  </outline>
</glyph>
<glyph name="xi" format="1">
  <advance width="443"/>
  <unicode hex="03BE"/>
  <outline>
    <contour>
      <point x="159" y="754"/>
      <point x="79" y="684"/>
      <point x="79" y="588" type="curve" smooth="yes"/>
      <point x="79" y="510"/>
      <point x="127" y="464"/>
      <point x="202" y="444" type="curve"/>
      <point x="116" y="430"/>
      <point x="41" y="374"/>
      <point x="41" y="261" type="curve" smooth="yes"/>
      <point x="41" y="123"/>
      <point x="118" y="81"/>
      <point x="229" y="33" type="curve" smooth="yes"/>
      <point x="311" y="-2"/>
      <point x="331" y="-15"/>
      <point x="331" y="-51" type="curve" smooth="yes"/>
      <point x="331" y="-94"/>
      <point x="294" y="-117"/>
      <point x="241" y="-141" type="curve"/>
      <point x="288" y="-218" type="line"/>
      <point x="403" y="-169"/>
      <point x="457" y="-117"/>
      <point x="457" y="-39" type="curve" smooth="yes"/>
      <point x="457" y="40"/>
      <point x="406" y="71"/>
      <point x="307" y="112" type="curve" smooth="yes"/>
      <point x="200" y="157"/>
      <point x="167" y="184"/>
      <point x="167" y="267" type="curve" smooth="yes"/>
      <point x="167" y="341"/>
      <point x="215" y="394"/>
      <point x="291" y="394" type="curve" smooth="yes"/>
      <point x="350" y="394" type="line"/>
      <point x="363" y="482" type="line"/>
      <point x="297" y="482" type="line" smooth="yes"/>
      <point x="238" y="482"/>
      <point x="202" y="517"/>
      <point x="202" y="577" type="curve" smooth="yes"/>
      <point x="202" y="630"/>
      <point x="229" y="665"/>
      <point x="293" y="665" type="curve" smooth="yes"/>
      <point x="336" y="665"/>
      <point x="366" y="652"/>
      <point x="401" y="628" type="curve"/>
      <point x="457" y="697" type="line"/>
      <point x="408" y="735"/>
      <point x="353" y="754"/>
      <point x="276" y="754" type="curve" smooth="yes"/>
    </contour>
  </outline>
</glyph>
<glyph name="pi" format="1">
  <advance width="602"/>
  <unicode hex="03C0"/>
  <outline>
    <contour>
      <point x="384" y="452" type="line"/>
      <point x="384" y="142" type="line"/>
      <point x="384" y="48"/>
      <point x="422" y="3"/>
      <point x="513" y="-14" type="curve"/>
      <point x="551" y="78" type="line"/>
      <point x="516" y="88"/>
      <point x="504" y="107"/>
      <point x="504" y="157" type="curve"/>
      <point x="504" y="452" type="line"/>
    </contour>
    <contour>
      <point x="110" y="456" type="line"/>
      <point x="110" y="0" type="line"/>
      <point x="229" y="0" type="line"/>
      <point x="229" y="456" type="line"/>
    </contour>
    <contour>
      <point x="61" y="433"/>
      <point x="74" y="435"/>
      <point x="126" y="436" type="curve"/>
      <point x="576" y="436" type="line"/>
      <point x="576" y="529" type="line"/>
      <point x="133" y="529" type="line"/>
      <point x="72" y="529"/>
      <point x="45" y="525"/>
      <point x="8" y="510" type="curve"/>
      <point x="29" y="424" type="line"/>
    </contour>
  </outline>
</glyph>
<glyph name="rho" format="1">
  <advance width="590"/>
  <unicode hex="03C1"/>
  <outline>
    <contour>
      <point x="153" y="543"/>
      <point x="76" y="448"/>
      <point x="76" y="273" type="curve" smooth="yes"/>
      <point x="76" y="-217" type="line"/>
      <point x="196" y="-203" type="line"/>
      <point x="196" y="70" type="line"/>
      <point x="196" y="129" type="line"/>
      <point x="196" y="253" type="line" smooth="yes"/>
      <point x="196" y="387"/>
      <point x="224" y="453"/>
      <point x="302" y="453" type="curve" smooth="yes"/>
      <point x="373" y="453"/>
      <point x="412" y="399"/>
      <point x="412" y="265" type="curve" smooth="yes"/>
      <point x="412" y="140"/>
      <point x="370" y="78"/>
      <point x="297" y="78" type="curve"/>
      <point x="250" y="78"/>
      <point x="211" y="104"/>
      <point x="186" y="162" type="curve"/>
      <point x="182" y="72" type="line"/>
      <point x="217" y="9"/>
      <point x="269" y="-14"/>
      <point x="330" y="-14" type="curve"/>
      <point x="464" y="-14"/>
      <point x="539" y="112"/>
      <point x="539" y="265" type="curve" smooth="yes"/>
      <point x="539" y="448"/>
      <point x="462" y="543"/>
      <point x="304" y="543" type="curve" smooth="yes"/>
    </contour>
  </outline>
</glyph>
<glyph name="sigmafinal" format="1">
  <advance width="472"/>
  <unicode hex="03C2"/>
  <outline>
    <contour>
      <point x="141" y="543"/>
      <point x="46" y="439"/>
      <point x="46" y="274" type="curve"/>
      <point x="46" y="130"/>
      <point x="114" y="69"/>
      <point x="219" y="27" type="curve" smooth="yes"/>
      <point x="292" y="-3"/>
      <point x="312" y="-15"/>
      <point x="312" y="-51" type="curve" smooth="yes"/>
      <point x="312" y="-94"/>
      <point x="275" y="-117"/>
      <point x="222" y="-141" type="curve"/>
      <point x="270" y="-218" type="line"/>
      <point x="384" y="-169"/>
      <point x="438" y="-117"/>
      <point x="438" y="-39" type="curve" smooth="yes"/>
      <point x="438" y="42"/>
      <point x="381" y="74"/>
      <point x="301" y="106" type="curve" smooth="yes"/>
      <point x="201" y="147"/>
      <point x="173" y="176"/>
      <point x="173" y="274" type="curve"/>
      <point x="173" y="392"/>
      <point x="222" y="448"/>
      <point x="297" y="448" type="curve" smooth="yes"/>
      <point x="338" y="448"/>
      <point x="370" y="435"/>
      <point x="404" y="408" type="curve"/>
      <point x="459" y="482" type="line"/>
      <point x="409" y="524"/>
      <point x="356" y="543"/>
      <point x="289" y="543" type="curve" smooth="yes"/>
    </contour>
  </outline>
</glyph>
<glyph name="sigma" format="1">
  <advance width="594"/>
  <unicode hex="03C3"/>
  <outline>
    <contour>
      <point x="495" y="532"/>
      <point x="402" y="536"/>
      <point x="316" y="536" type="curve" smooth="yes"/>
      <point x="132" y="536"/>
      <point x="46" y="426"/>
      <point x="46" y="264" type="curve"/>
      <point x="46" y="92"/>
      <point x="137" y="-14"/>
      <point x="292" y="-14" type="curve" smooth="yes"/>
      <point x="447" y="-14"/>
      <point x="538" y="99"/>
      <point x="538" y="262" type="curve"/>
      <point x="538" y="367"/>
      <point x="492" y="433"/>
      <point x="432" y="460" type="curve"/>
      <point x="333" y="464" type="line"/>
      <point x="372" y="442"/>
      <point x="411" y="382"/>
      <point x="411" y="262" type="curve"/>
      <point x="411" y="136"/>
      <point x="370" y="78"/>
      <point x="292" y="78" type="curve" smooth="yes"/>
      <point x="214" y="78"/>
      <point x="173" y="136"/>
      <point x="173" y="264" type="curve"/>
      <point x="173" y="405"/>
      <point x="215" y="448"/>
      <point x="357" y="448" type="curve"/>
      <point x="427" y="447" type="line"/>
      <point x="574" y="437" type="line"/>
      <point x="574" y="529" type="line"/>
    </contour>
  </outline>
</glyph>
<glyph name="tau" format="1">
  <advance width="473"/>
  <unicode hex="03C4"/>
  <outline>
    <contour>
      <point x="176" y="452" type="line"/>
      <point x="176" y="142" type="line"/>
      <point x="176" y="48"/>
      <point x="214" y="3"/>
      <point x="305" y="-14" type="curve"/>
      <point x="343" y="78" type="line"/>
      <point x="308" y="88"/>
      <point x="296" y="107"/>
      <point x="296" y="157" type="curve"/>
      <point x="296" y="452" type="line"/>
    </contour>
    <contour>
      <point x="51" y="433"/>
      <point x="64" y="435"/>
      <point x="116" y="436" type="curve"/>
      <point x="470" y="436" type="line"/>
      <point x="470" y="529" type="line"/>
      <point x="122" y="529" type="line"/>
      <point x="61" y="529"/>
      <point x="35" y="525"/>
      <point x="-2" y="510" type="curve"/>
      <point x="19" y="424" type="line"/>
    </contour>
  </outline>
</glyph>
<glyph name="upsilon" format="1">
  <advance width="568"/>
  <unicode hex="03C5"/>
  <outline>
    <contour>
      <point x="363" y="529" type="line"/>
      <point x="381" y="432"/>
      <point x="390" y="340"/>
      <point x="390" y="262" type="curve" smooth="yes"/>
      <point x="390" y="120"/>
      <point x="325" y="78"/>
      <point x="274" y="78" type="curve" smooth="yes"/>
      <point x="227" y="78"/>
      <point x="196" y="108"/>
      <point x="196" y="176" type="curve" smooth="yes"/>
      <point x="196" y="529" type="line"/>
      <point x="76" y="529" type="line"/>
      <point x="76" y="168" type="line" smooth="yes"/>
      <point x="76" y="44"/>
      <point x="162" y="-14"/>
      <point x="267" y="-14" type="curve" smooth="yes"/>
      <point x="385" y="-14"/>
      <point x="510" y="63"/>
      <point x="510" y="252" type="curve" smooth="yes"/>
      <point x="510" y="358"/>
      <point x="499" y="444"/>
      <point x="483" y="529" type="curve"/>
    </contour>
    <contour>
      <point x="285" y="529" type="move" name="top"/>
    </contour>
  </outline>
</glyph>
<glyph name="phi" format="1">
  <advance width="743"/>
  <unicode hex="03C6"/>
  <outline>
    <contour>
      <point x="378" y="543"/>
      <point x="310" y="468"/>
      <point x="310" y="332" type="curve"/>
      <point x="310" y="-217" type="line"/>
      <point x="423" y="-203" type="line"/>
      <point x="423" y="332" type="line"/>
      <point x="423" y="438"/>
      <point x="454" y="456"/>
      <point x="495" y="456" type="curve" smooth="yes"/>
      <point x="548" y="456"/>
      <point x="572" y="416"/>
      <point x="572" y="267" type="curve" smooth="yes"/>
      <point x="572" y="127"/>
      <point x="534" y="78"/>
      <point x="403" y="71" type="curve"/>
      <point x="404" y="-14" type="line"/>
      <point x="599" y="-5"/>
      <point x="691" y="81"/>
      <point x="691" y="269" type="curve" smooth="yes"/>
      <point x="691" y="460"/>
      <point x="619" y="543"/>
      <point x="493" y="543" type="curve" smooth="yes"/>
    </contour>
    <contour>
      <point x="113" y="529" type="line"/>
      <point x="84" y="451"/>
      <point x="53" y="355"/>
      <point x="53" y="242" type="curve" smooth="yes"/>
      <point x="53" y="85"/>
      <point x="137" y="-7"/>
      <point x="332" y="-14" type="curve"/>
      <point x="331" y="71" type="line"/>
      <point x="220" y="77"/>
      <point x="171" y="125"/>
      <point x="171" y="253" type="curve" smooth="yes"/>
      <point x="171" y="358"/>
      <point x="201" y="449"/>
      <point x="230" y="529" type="curve"/>
    </contour>
  </outline>
</glyph>
<glyph name="chi" format="1">
  <advance width="478"/>
  <unicode hex="03C7"/>
  <outline>
    <contour>
      <point x="-12" y="502" type="line"/>
      <point x="53" y="433"/>
      <point x="96" y="359"/>
      <point x="176" y="185" type="curve"/>
      <point x="237" y="89" type="line"/>
      <point x="359" y="-215" type="line"/>
      <point x="479" y="-198" type="line"/>
      <point x="302" y="186" type="line"/>
      <point x="241" y="280" type="line"/>
      <point x="188" y="427"/>
      <point x="154" y="479"/>
      <point x="105" y="541" type="curve"/>
    </contour>
    <contour>
      <point x="241" y="280" type="line"/>
      <point x="176" y="185" type="line"/>
      <point x="-8" y="-201" type="line"/>
      <point x="113" y="-214" type="line"/>
      <point x="237" y="89" type="line"/>
      <point x="302" y="186" type="line"/>
      <point x="461" y="527" type="line"/>
      <point x="337" y="541" type="line" smooth="yes"/>
    </contour>
  </outline>
</glyph>
<glyph name="psi" format="1">
  <advance width="765"/>
  <unicode hex="03C8"/>
  <outline>
    <contour>
      <point x="561" y="529" type="line"/>
      <point x="579" y="432"/>
      <point x="587" y="337"/>
      <point x="587" y="258" type="curve"/>
      <point x="587" y="138"/>
      <point x="537" y="81"/>
      <point x="421" y="75" type="curve"/>
      <point x="421" y="-14" type="line"/>
      <point x="591" y="-7"/>
      <point x="707" y="69"/>
      <point x="707" y="252" type="curve"/>
      <point x="707" y="358"/>
      <point x="696" y="444"/>
      <point x="679" y="529" type="curve"/>
    </contour>
    <contour>
      <point x="68" y="529" type="line"/>
      <point x="68" y="203" type="line" smooth="yes"/>
      <point x="68" y="73"/>
      <point x="154" y="-9"/>
      <point x="350" y="-14" type="curve"/>
      <point x="349" y="74" type="line"/>
      <point x="227" y="79"/>
      <point x="187" y="125"/>
      <point x="187" y="211" type="curve" smooth="yes"/>
      <point x="187" y="529" type="line"/>
    </contour>
    <contour>
      <point x="327" y="529" type="line"/>
      <point x="327" y="-217" type="line"/>
      <point x="441" y="-203" type="line"/>
      <point x="441" y="529" type="line"/>
    </contour>
  </outline>
</glyph>
<glyph name="omega" format="1">
  <advance width="776"/>
  <unicode hex="03C9"/>
  <outline>
    <contour>
      <point x="547" y="529" type="line"/>
      <point x="584" y="424"/>
      <point x="604" y="340"/>
      <point x="604" y="247" type="curve" smooth="yes"/>
      <point x="604" y="111"/>
      <point x="562" y="78"/>
      <point x="516" y="78" type="curve" smooth="yes"/>
      <point x="473" y="78"/>
      <point x="445" y="104"/>
      <point x="445" y="183" type="curve"/>
      <point x="445" y="370" type="line"/>
      <point x="332" y="355" type="line"/>
      <point x="332" y="183" type="line" smooth="yes"/>
      <point x="332" y="94"/>
      <point x="300" y="78"/>
      <point x="259" y="78" type="curve" smooth="yes"/>
      <point x="203" y="78"/>
      <point x="172" y="126"/>
      <point x="172" y="255" type="curve" smooth="yes"/>
      <point x="172" y="340"/>
      <point x="191" y="424"/>
      <point x="228" y="529" type="curve"/>
      <point x="114" y="529" type="line"/>
      <point x="82" y="455"/>
      <point x="53" y="360"/>
      <point x="53" y="240" type="curve" smooth="yes"/>
      <point x="53" y="59"/>
      <point x="136" y="-14"/>
      <point x="240" y="-14" type="curve" smooth="yes"/>
      <point x="323" y="-14"/>
      <point x="369" y="21"/>
      <point x="389" y="106" type="curve"/>
      <point x="404" y="22"/>
      <point x="456" y="-14"/>
      <point x="532" y="-14" type="curve" smooth="yes"/>
      <point x="639" y="-14"/>
      <point x="723" y="62"/>
      <point x="723" y="240" type="curve" smooth="yes"/>
      <point x="723" y="360"/>
      <point x="693" y="455"/>
      <point x="661" y="529" type="curve"/>
    </contour>
    <contour>
      <point x="388" y="529" type="move" name="top"/>
    </contour>
  </outline>
</glyph>
<glyph name="uni0402" format="1">
  <advance width="731"/>
  <unicode hex="0402"/>
  <outline>
    <contour>
      <point x="12" y="691" type="line"/>
      <point x="12" y="592" type="line"/>
      <point x="201" y="592" type="line"/>
      <point x="201" y="0" type="line"/>
      <point x="326" y="0" type="line"/>
      <point x="326" y="592" type="line"/>
      <point x="508" y="592" type="line"/>
      <point x="521" y="691" type="line"/>
    </contour>
    <contour>
      <point x="410" y="460"/>
      <point x="357" y="432"/>
      <point x="315" y="386" type="curve"/>
      <point x="315" y="288" type="line"/>
      <point x="350" y="333"/>
      <point x="391" y="361"/>
      <point x="458" y="361" type="curve" smooth="yes"/>
      <point x="540" y="361"/>
      <point x="576" y="317"/>
      <point x="576" y="232" type="curve" smooth="yes"/>
      <point x="576" y="105" type="line" smooth="yes"/>
      <point x="576" y="17"/>
      <point x="559" y="-26"/>
      <point x="469" y="-62" type="curve"/>
      <point x="502" y="-151" type="line"/>
      <point x="615" y="-114"/>
      <point x="700" y="-57"/>
      <point x="700" y="100" type="curve" smooth="yes"/>
      <point x="700" y="232" type="line" smooth="yes"/>
      <point x="700" y="374"/>
      <point x="625" y="460"/>
      <point x="490" y="460" type="curve" smooth="yes"/>
    </contour>
  </outline>
</glyph>
<glyph name="uni0404" format="1">
  <advance width="569"/>
  <unicode hex="0404"/>
  <outline>
    <contour>
      <point x="177" y="705"/>
      <point x="46" y="579"/>
      <point x="46" y="346" type="curve" smooth="yes"/>
      <point x="46" y="112"/>
      <point x="169" y="-14"/>
      <point x="343" y="-14" type="curve" smooth="yes"/>
      <point x="440" y="-14"/>
      <point x="511" y="26"/>
      <point x="552" y="68" type="curve"/>
      <point x="494" y="143" type="line"/>
      <point x="454" y="113"/>
      <point x="412" y="84"/>
      <point x="349" y="84" type="curve" smooth="yes"/>
      <point x="251" y="84"/>
      <point x="175" y="158"/>
      <point x="175" y="328" type="curve"/>
      <point x="174" y="377" type="line"/>
      <point x="178" y="544"/>
      <point x="255" y="609"/>
      <point x="350" y="609" type="curve" smooth="yes"/>
      <point x="397" y="609"/>
      <point x="438" y="593"/>
      <point x="480" y="559" type="curve"/>
      <point x="544" y="633" type="line"/>
      <point x="487" y="679"/>
      <point x="432" y="705"/>
      <point x="343" y="705" type="curve" smooth="yes"/>
    </contour>
    <contour>
      <point x="159" y="402" type="line"/>
      <point x="158" y="308" type="line"/>
      <point x="426" y="308" type="line"/>
      <point x="426" y="402" type="line"/>
    </contour>
  </outline>
</glyph>
<glyph name="uni0409" format="1">
  <advance width="913.0"/>
  <unicode hex="0409"/>
  <outline>
    <contour>
      <point x="425" y="666" type="line"/>
      <point x="425" y="0" type="line"/>
      <point x="623" y="0" type="line" smooth="yes"/>
      <point x="780" y="0"/>
      <point x="892" y="66"/>
      <point x="892" y="228" type="curve" smooth="yes"/>
      <point x="892" y="375"/>
      <point x="790" y="445"/>
      <point x="621" y="445" type="curve" smooth="yes"/>
      <point x="534" y="445" type="line"/>
      <point x="534" y="354" type="line"/>
      <point x="616" y="354" type="line" smooth="yes"/>
      <point x="711" y="354"/>
      <point x="761" y="318"/>
      <point x="761" y="226" type="curve" smooth="yes"/>
      <point x="761" y="124"/>
      <point x="705" y="94"/>
      <point x="622" y="94" type="curve" smooth="yes"/>
      <point x="550" y="94" type="line"/>
      <point x="550" y="691" type="line"/>
    </contour>
    <contour>
      <point x="113" y="321" type="line"/>
      <point x="92" y="148"/>
      <point x="83" y="106"/>
      <point x="9" y="77" type="curve"/>
      <point x="39" y="-14" type="line"/>
      <point x="168" y="21"/>
      <point x="206" y="84"/>
      <point x="233" y="322" type="curve" smooth="yes"/>
      <point x="263" y="595" type="line"/>
      <point x="157" y="691" type="line"/>
    </contour>
    <contour>
      <point x="157" y="691" type="line"/>
      <point x="235" y="592" type="line"/>
      <point x="425" y="592" type="line"/>
      <point x="550" y="691" type="line"/>
    </contour>
  </outline>
</glyph>
<glyph name="uni040A" format="1">
  <advance width="947"/>
  <unicode hex="040A"/>
  <outline>
    <contour>
      <point x="85" y="691" type="line"/>
      <point x="85" y="0" type="line"/>
      <point x="209" y="0" type="line"/>
      <point x="209" y="335" type="line"/>
      <point x="471" y="335" type="line"/>
      <point x="471" y="427" type="line"/>
      <point x="209" y="427" type="line"/>
      <point x="209" y="691" type="line"/>
    </contour>
    <contour>
      <point x="460" y="691" type="line"/>
      <point x="460" y="0" type="line"/>
      <point x="663" y="0" type="line" smooth="yes"/>
      <point x="814" y="0"/>
      <point x="926" y="65"/>
      <point x="926" y="219" type="curve" smooth="yes"/>
      <point x="926" y="358"/>
      <point x="825" y="427"/>
      <point x="663" y="427" type="curve" smooth="yes"/>
      <point x="568" y="427" type="line"/>
      <point x="568" y="335" type="line"/>
      <point x="660" y="335" type="line" smooth="yes"/>
      <point x="745" y="335"/>
      <point x="795" y="302"/>
      <point x="795" y="217" type="curve" smooth="yes"/>
      <point x="795" y="123"/>
      <point x="739" y="94"/>
      <point x="663" y="94" type="curve" smooth="yes"/>
      <point x="584" y="94" type="line"/>
      <point x="584" y="691" type="line"/>
    </contour>
  </outline>
</glyph>
<glyph name="uni040B" format="1">
  <advance width="731"/>
  <unicode hex="040B"/>
  <outline>
    <contour>
      <point x="12" y="691" type="line"/>
      <point x="12" y="592" type="line"/>
      <point x="508" y="592" type="line"/>
      <point x="521" y="691" type="line"/>
    </contour>
    <contour>
      <point x="410" y="460"/>
      <point x="357" y="432"/>
      <point x="315" y="386" type="curve"/>
      <point x="315" y="288" type="line"/>
      <point x="350" y="333"/>
      <point x="391" y="361"/>
      <point x="458" y="361" type="curve" smooth="yes"/>
      <point x="540" y="361"/>
      <point x="576" y="317"/>
      <point x="576" y="232" type="curve" smooth="yes"/>
      <point x="576" y="0" type="line"/>
      <point x="700" y="0" type="line"/>
      <point x="700" y="232" type="line" smooth="yes"/>
      <point x="700" y="374"/>
      <point x="625" y="460"/>
      <point x="490" y="460" type="curve" smooth="yes"/>
    </contour>
    <contour>
      <point x="201" y="688" type="line"/>
      <point x="201" y="0" type="line"/>
      <point x="326" y="0" type="line"/>
      <point x="326" y="688" type="line"/>
    </contour>
  </outline>
</glyph>
<glyph name="uni0411" format="1">
  <advance width="586"/>
  <unicode hex="0411"/>
  <outline>
    <contour>
      <point x="85" y="691" type="line"/>
      <point x="85" y="0" type="line"/>
      <point x="292" y="0" type="line" smooth="yes"/>
      <point x="449" y="0"/>
      <point x="561" y="66"/>
      <point x="561" y="224" type="curve" smooth="yes"/>
      <point x="561" y="367"/>
      <point x="459" y="437"/>
      <point x="293" y="437" type="curve" smooth="yes"/>
      <point x="193" y="437" type="line"/>
      <point x="193" y="346" type="line"/>
      <point x="288" y="346" type="line" smooth="yes"/>
      <point x="380" y="346"/>
      <point x="431" y="310"/>
      <point x="431" y="222" type="curve" smooth="yes"/>
      <point x="431" y="124"/>
      <point x="374" y="94"/>
      <point x="291" y="94" type="curve" smooth="yes"/>
      <point x="209" y="94" type="line"/>
      <point x="209" y="681" type="line"/>
    </contour>
    <contour>
      <point x="85" y="691" type="line"/>
      <point x="193" y="593" type="line"/>
      <point x="470" y="593" type="line"/>
      <point x="485" y="691" type="line"/>
    </contour>
  </outline>
</glyph>
<glyph name="uni0413" format="1">
  <advance width="509"/>
  <unicode hex="0413"/>
  <outline>
    <contour>
      <point x="85" y="0" type="line"/>
      <point x="209" y="0" type="line"/>
      <point x="209" y="613" type="line"/>
      <point x="85" y="691" type="line"/>
    </contour>
    <contour>
      <point x="85" y="691" type="line"/>
      <point x="193" y="589" type="line"/>
      <point x="487" y="589" type="line"/>
      <point x="503" y="691" type="line"/>
    </contour>
    <contour>
      <point x="308" y="691" type="move" name="top"/>
    </contour>
    <contour>
      <point x="219" y="0" type="move" name="bottomright"/>
    </contour>
  </outline>
</glyph>
